{
classes = (
{
code = "alefMaksura-ar.fina yeh-ar.fina yehHamzaabove-ar.fina yeh-farsi.fina";
name = YEH_FINALS;
},
{
code = "alefMaksura-ar.fina.seenYeh yeh-ar.fina.seenYeh yehHamzaabove-ar.fina.seenYeh yeh-farsi.fina.seenYeh";
name = YEH_FINALS_SEEN_YEH;
},
{

glyphs = (
{
glyphname = A;
lastChange = "2015-12-16 11:53:30 +0000";
layers = (
{
anchors = (
{
name = aboveUC;
position = "{350, 791}";
},
{
name = baseLC;
position = "{609, 0}";
},
{
name = belowLC;
position = "{350, -23}";
},
{
name = ogonekUC;
position = "{591.994, 0}";
}
);
layerId = "8A30092D-5DE4-432F-B813-0E7E8F54CAFB";
paths = (
{
closed = 1;
nodes = (
"47 0 LINE",
"117 0 LINE",
"265 444 LINE SMOOTH",
"294 533 OFFCURVE",
"321 614 OFFCURVE",
"346 707 CURVE",
"351 707 LINE",
"377 614 OFFCURVE",
"404 533 OFFCURVE",
"434 444 CURVE SMOOTH",
"580 0 LINE",
"653 0 LINE",
"386 768 LINE",
"313 768 LINE"
);
},
{
closed = 1;
nodes = (
"174 253 LINE",
"521 253 LINE",
"521 310 LINE",
"174 310 LINE"
);
}
);
width = 700;
},
{
anchors = (
{
name = aboveUC;
position = "{350, 785}";
},
{
name = baseLC;
position = "{603, 0}";
},
{
name = belowLC;
position = "{350, -23}";
},
{
name = ogonekUC;
position = "{579, 0}";
}
);
layerId = "70058D0C-C9A7-4421-A18D-CF261F8AA98E";
paths = (
{
closed = 1;
nodes = (
"18 0 LINE",
"171 0 LINE",
"280 397 LINE SMOOTH",
"302 476 OFFCURVE",
"324 564 OFFCURVE",
"344 647 CURVE",
"349 647 LINE",
"369 564 OFFCURVE",
"393 476 OFFCURVE",
"414 397 CURVE SMOOTH",
"523 0 LINE",
"682 0 LINE",
"438 762 LINE",
"261 762 LINE"
);
},
{
closed = 1;
nodes = (
"168 196 LINE",
"529 196 LINE",
"529 314 LINE",
"168 314 LINE"
);
}
);
width = 700;
}
);
unicode = 0041;
},
{
glyphname = Aogonek;
lastChange = "2015-12-16 11:53:30 +0000";
layers = (
{
anchors = (
{
name = aboveUC;
position = "{350, 791}";
}
);
layerId = "8A30092D-5DE4-432F-B813-0E7E8F54CAFB";
paths = (
{
closed = 1;
nodes = (
"605 -262 CURVE SMOOTH",
"649 -262 OFFCURVE",
"678 -244 OFFCURVE",
"704 -220 CURVE",
"679 -183 LINE",
"663 -198 OFFCURVE",
"643 -211 OFFCURVE",
"615 -211 CURVE SMOOTH",
"580 -211 OFFCURVE",
"547 -189 OFFCURVE",
"547 -145 CURVE SMOOTH",
"547 -85 OFFCURVE",
"594 -34 OFFCURVE",
"653 0 CURVE",
"386 768 LINE",
"313 768 LINE",
"47 0 LINE",
"117 0 LINE",
"265 444 LINE SMOOTH",
"294 533 OFFCURVE",
"321 614 OFFCURVE",
"346 707 CURVE",
"351 707 LINE",
"377 614 OFFCURVE",
"404 533 OFFCURVE",
"434 444 CURVE SMOOTH",
"580 0 LINE",
"592 0 LINE",
"544 -34 OFFCURVE",
"490 -86 OFFCURVE",
"490 -158 CURVE SMOOTH",
"490 -228 OFFCURVE",
"540 -262 OFFCURVE"
);
},
{
closed = 1;
nodes = (
"174 253 LINE",
"522 253 LINE",
"522 310 LINE",
"174 310 LINE"
);
}
);
width = 700;
},
{
anchors = (
{
name = aboveUC;
position = "{350, 785}";
}
);
layerId = "70058D0C-C9A7-4421-A18D-CF261F8AA98E";
paths = (
{
closed = 1;
nodes = (
"595 -264 CURVE SMOOTH",
"639 -264 OFFCURVE",
"684 -246 OFFCURVE",
"714 -221 CURVE",
"677 -145 LINE",
"665 -156 OFFCURVE",
"647 -166 OFFCURVE",
"625 -166 CURVE SMOOTH",
"598 -166 OFFCURVE",
"573 -149 OFFCURVE",
"573 -116 CURVE SMOOTH",
"573 -64 OFFCURVE",
"617 -13 OFFCURVE",
"682 0 CURVE",
"438 762 LINE",
"261 762 LINE",
"18 0 LINE",
"171 0 LINE",
"280 397 LINE SMOOTH",
"303 476 OFFCURVE",
"324 564 OFFCURVE",
"344 647 CURVE",
"349 647 LINE",
"369 564 OFFCURVE",
"392 476 OFFCURVE",
"414 397 CURVE SMOOTH",
"523 0 LINE",
"562 0 LINE",
"521 -25 OFFCURVE",
"462 -80 OFFCURVE",
"462 -154 CURVE SMOOTH",
"462 -226 OFFCURVE",
"520 -264 OFFCURVE"
);
},
{
closed = 1;
nodes = (
"167 196 LINE",
"529 196 LINE",
"529 314 LINE",
"167 314 LINE"
);
}
);
width = 700;
}
);
unicode = 0104;
},
{
glyphname = Aringacute;
lastChange = "2015-12-16 11:53:30 +0000";
layers = (
{
components = (
{
name = Aring;
}
);
layerId = "8A30092D-5DE4-432F-B813-0E7E8F54CAFB";
paths = (
{
closed = 1;
nodes = (
"305 977 LINE",
"464 1067 LINE",
"432 1110 LINE",
"279 995 LINE"
);
}
);
width = 700;
},
{
components = (
{
name = Aring;
}
);
layerId = "70058D0C-C9A7-4421-A18D-CF261F8AA98E";
paths = (
{
closed = 1;
nodes = (
"307 983 LINE",
"497 1076 LINE",
"435 1161 LINE",
"259 1007 LINE"
);
}
);
width = 700;
}
);
unicode = 01FA;
},
{
glyphname = AE;
lastChange = "2015-12-16 11:53:30 +0000";
layers = (
{
anchors = (
{
name = aboveUC;
position = "{504, 791}";
},
{
name = baseLC;
position = "{538, 0}";
},
{
name = belowLC;
position = "{394, -23}";
}
);
layerId = "8A30092D-5DE4-432F-B813-0E7E8F54CAFB";
paths = (
{
closed = 1;
nodes = (
"-1 0 LINE",
"73 0 LINE",
"259 449 LINE SMOOTH",
"295 538 OFFCURVE",
"333 623 OFFCURVE",
"368 711 CURVE",
"372 711 LINE",
"372 0 LINE",
"688 0 LINE",
"688 59 LINE",
"437 59 LINE",
"437 377 LINE",
"621 377 LINE",
"621 436 LINE",
"437 436 LINE",
"437 709 LINE",
"676 709 LINE",
"676 768 LINE",
"328 768 LINE"
);
},
{
closed = 1;
nodes = (
"153 243 LINE",
"412 243 LINE",
"412 299 LINE",
"153 299 LINE"
);
}
);
width = 700;
},
{
anchors = (
{
name = aboveUC;
position = "{466, 785}";
},
{
name = baseLC;
position = "{544, 0}";
},
{
name = belowLC;
position = "{388, -23}";
}
);
layerId = "70058D0C-C9A7-4421-A18D-CF261F8AA98E";
paths = (
{
closed = 1;
nodes = (
"-4 0 LINE",
"151 0 LINE",
"289 422 LINE SMOOTH",
"311 494 OFFCURVE",
"337 570 OFFCURVE",
"361 648 CURVE",
"364 648 LINE",
"364 0 LINE",
"692 0 LINE",
"692 126 LINE",
"497 126 LINE",
"497 333 LINE",
"645 333 LINE",
"645 459 LINE",
"497 459 LINE",
"497 636 LINE",
"682 636 LINE",
"682 762 LINE",
"267 762 LINE"
);
},
{
closed = 1;
nodes = (
"154 188 LINE",
"425 188 LINE",
"425 305 LINE",
"154 305 LINE"
);
}
);
width = 700;
}
);
unicode = 00C6;
},
{
glyphname = B;
lastChange = "2015-12-16 11:53:30 +0000";
layers = (
{
anchors = (
{
name = aboveUC;
position = "{348, 791}";
},
{
name = belowLC;
position = "{357, -23}";
}
);
layerId = "8A30092D-5DE4-432F-B813-0E7E8F54CAFB";
paths = (
{
closed = 1;
nodes = (
"127 0 LINE",
"345 0 LINE SMOOTH",
"522 0 OFFCURVE",
"630 75 OFFCURVE",
"630 224 CURVE SMOOTH",
"630 330 OFFCURVE",
"562 391 OFFCURVE",
"449 408 CURVE",
"449 413 LINE",
"539 436 OFFCURVE",
"584 502 OFFCURVE",
"584 580 CURVE SMOOTH",
"584 711 OFFCURVE",
"488 768 OFFCURVE",
"329 768 CURVE SMOOTH",
"127 768 LINE"
);
},
{
closed = 1;
nodes = (
"196 433 LINE",
"196 711 LINE",
"316 711 LINE SMOOTH",
"453 711 OFFCURVE",
"516 672 OFFCURVE",
"516 575 CURVE SMOOTH",
"516 482 OFFCURVE",
"459 433 OFFCURVE",
"310 433 CURVE SMOOTH"
);
},
{
closed = 1;
nodes = (
"196 56 LINE",
"196 380 LINE",
"332 380 LINE SMOOTH",
"481 380 OFFCURVE",
"562 330 OFFCURVE",
"562 225 CURVE SMOOTH",
"562 109 OFFCURVE",
"481 56 OFFCURVE",
"332 56 CURVE SMOOTH"
);
}
);
width = 700;
},
{
anchors = (
{
name = aboveUC;
position = "{356, 785}";
},
{
name = belowLC;
position = "{359, -23}";
}
);
layerId = "70058D0C-C9A7-4421-A18D-CF261F8AA98E";
paths = (
{
closed = 1;
nodes = (
"95 0 LINE",
"359 0 LINE SMOOTH",
"528 0 OFFCURVE",
"650 71 OFFCURVE",
"650 224 CURVE SMOOTH",
"650 326 OFFCURVE",
"591 384 OFFCURVE",
"481 404 CURVE",
"481 409 LINE",
"571 432 OFFCURVE",
"612 503 OFFCURVE",
"612 573 CURVE SMOOTH",
"612 715 OFFCURVE",
"498 762 OFFCURVE",
"339 762 CURVE SMOOTH",
"95 762 LINE"
);
},
{
closed = 1;
nodes = (
"245 449 LINE",
"245 645 LINE",
"331 645 LINE SMOOTH",
"424 645 OFFCURVE",
"466 619 OFFCURVE",
"466 553 CURVE SMOOTH",
"466 488 OFFCURVE",
"427 449 OFFCURVE",
"329 449 CURVE SMOOTH"
);
},
{
closed = 1;
nodes = (
"245 116 LINE",
"245 342 LINE",
"346 342 LINE SMOOTH",
"452 342 OFFCURVE",
"503 309 OFFCURVE",
"503 234 CURVE SMOOTH",
"503 155 OFFCURVE",
"452 116 OFFCURVE",
"346 116 CURVE SMOOTH"
);
}
);
width = 700;
}
);
unicode = 0042;
},
{
glyphname = Bstroke;
lastChange = "2015-12-16 11:53:30 +0000";
layers = (
{
layerId = "8A30092D-5DE4-432F-B813-0E7E8F54CAFB";
paths = (
{
closed = 1;
nodes = (
"130 0 LINE",
"345 0 LINE SMOOTH",
"522 0 OFFCURVE",
"630 76 OFFCURVE",
"630 226 CURVE SMOOTH",
"630 333 OFFCURVE",
"563 396 OFFCURVE",
"449 413 CURVE",
"449 418 LINE",
"540 441 OFFCURVE",
"584 504 OFFCURVE",
"584 582 CURVE SMOOTH",
"584 710 OFFCURVE",
"488 768 OFFCURVE",
"329 768 CURVE SMOOTH",
"130 768 LINE"
);
},
{
closed = 1;
nodes = (
"40 207 LINE",
"382 207 LINE",
"382 251 LINE",
"132 251 LINE",
"40 246 LINE"
);
},
{
closed = 1;
nodes = (
"199 54 LINE",
"199 386 LINE",
"332 386 LINE SMOOTH",
"481 386 OFFCURVE",
"562 335 OFFCURVE",
"562 228 CURVE SMOOTH",
"562 109 OFFCURVE",
"481 54 OFFCURVE",
"332 54 CURVE SMOOTH"
);
},
{
closed = 1;
nodes = (
"199 435 LINE",
"199 714 LINE",
"316 714 LINE SMOOTH",
"453 714 OFFCURVE",
"517 675 OFFCURVE",
"517 577 CURVE SMOOTH",
"517 484 OFFCURVE",
"459 435 OFFCURVE",
"311 435 CURVE SMOOTH"
);
}
);
width = 700;
},
{
layerId = "70058D0C-C9A7-4421-A18D-CF261F8AA98E";
paths = (
{
closed = 1;
nodes = (
"105 0 LINE",
"359 0 LINE SMOOTH",
"528 0 OFFCURVE",
"650 73 OFFCURVE",
"650 232 CURVE SMOOTH",
"650 339 OFFCURVE",
"591 400 OFFCURVE",
"481 420 CURVE",
"481 425 LINE",
"571 447 OFFCURVE",
"611 511 OFFCURVE",
"611 578 CURVE SMOOTH",
"611 714 OFFCURVE",
"498 762 OFFCURVE",
"339 762 CURVE SMOOTH",
"105 762 LINE"
);
},
{
closed = 1;
nodes = (
"17 205 LINE",
"391 205 LINE",
"391 279 LINE",
"107 279 LINE",
"17 273 LINE"
);
},
{
closed = 1;
nodes = (
"254 108 LINE",
"254 366 LINE",
"345 366 LINE SMOOTH",
"452 366 OFFCURVE",
"501 328 OFFCURVE",
"501 243 CURVE SMOOTH",
"501 154 OFFCURVE",
"451 108 OFFCURVE",
"345 108 CURVE SMOOTH"
);
},
{
closed = 1;
nodes = (
"254 457 LINE",
"254 654 LINE",
"330 654 LINE SMOOTH",
"424 654 OFFCURVE",
"467 627 OFFCURVE",
"467 560 CURVE SMOOTH",
"467 493 OFFCURVE",
"425 457 OFFCURVE",
"328 457 CURVE SMOOTH"
);
}
);
width = 700;
}
);
unicode = 0243;
},
{
glyphname = C;
lastChange = "2015-12-16 11:53:30 +0000";
layers = (
{
anchors = (
{
name = aboveUC;
position = "{400, 791}";
},
{
name = baseLC;
position = "{411, 0}";
},
{
name = belowLC;
position = "{402, -23}";
}
);
layerId = "8A30092D-5DE4-432F-B813-0E7E8F54CAFB";
paths = (
{
closed = 1;
nodes = (
"408 -14 CURVE SMOOTH",
"508 -14 OFFCURVE",
"580 27 OFFCURVE",
"639 96 CURVE",
"599 138 LINE",
"546 79 OFFCURVE",
"489 48 OFFCURVE",
"413 48 CURVE SMOOTH",
"254 48 OFFCURVE",
"153 180 OFFCURVE",
"153 386 CURVE SMOOTH",
"153 591 OFFCURVE",
"254 720 OFFCURVE",
"416 720 CURVE SMOOTH",
"484 720 OFFCURVE",
"538 690 OFFCURVE",
"578 644 CURVE",
"618 689 LINE",
"576 736 OFFCURVE",
"506 782 OFFCURVE",
"416 782 CURVE SMOOTH",
"218 782 OFFCURVE",
"81 629 OFFCURVE",
"81 384 CURVE SMOOTH",
"81 139 OFFCURVE",
"219 -14 OFFCURVE"
);
}
);
width = 700;
},
{
anchors = (
{
name = aboveUC;
position = "{409, 785}";
},
{
name = baseLC;
position = "{402, 0}";
},
{
name = belowLC;
position = "{398, -23}";
}
);
layerId = "70058D0C-C9A7-4421-A18D-CF261F8AA98E";
paths = (
{
closed = 1;
nodes = (
"414 -14 CURVE SMOOTH",
"516 -14 OFFCURVE",
"598 25 OFFCURVE",
"660 97 CURVE",
"576 188 LINE",
"536 144 OFFCURVE",
"488 116 OFFCURVE",
"429 116 CURVE SMOOTH",
"305 116 OFFCURVE",
"221 216 OFFCURVE",
"221 382 CURVE SMOOTH",
"221 546 OFFCURVE",
"305 646 OFFCURVE",
"424 646 CURVE SMOOTH",
"482 646 OFFCURVE",
"526 623 OFFCURVE",
"563 586 CURVE",
"645 680 LINE",
"597 729 OFFCURVE",
"519 776 OFFCURVE",
"424 776 CURVE SMOOTH",
"222 776 OFFCURVE",
"67 628 OFFCURVE",
"67 377 CURVE SMOOTH",
"67 124 OFFCURVE",
"225 -14 OFFCURVE"
);
}
);
width = 700;
}
);
unicode = 0043;
},
{
glyphname = D;
lastChange = "2015-12-16 11:53:30 +0000";
layers = (
{
anchors = (
{
name = aboveUC;
position = "{350, 791}";
},
{
name = baseLC;
position = "{336, 0}";
},
{
name = belowLC;
position = "{340, -23}";
}
);
layerId = "8A30092D-5DE4-432F-B813-0E7E8F54CAFB";
paths = (
{
closed = 1;
nodes = (
"109 0 LINE",
"292 0 LINE SMOOTH",
"524 0 OFFCURVE",
"639 150 OFFCURVE",
"639 386 CURVE SMOOTH",
"639 623 OFFCURVE",
"524 768 OFFCURVE",
"290 768 CURVE SMOOTH",
"109 768 LINE"
);
},
{
closed = 1;
nodes = (
"177 58 LINE",
"177 710 LINE",
"284 710 LINE SMOOTH",
"480 710 OFFCURVE",
"568 584 OFFCURVE",
"568 386 CURVE SMOOTH",
"568 188 OFFCURVE",
"480 58 OFFCURVE",
"284 58 CURVE SMOOTH"
);
}
);
width = 700;
},
{
anchors = (
{
name = aboveUC;
position = "{350, 785}";
},
{
name = baseLC;
position = "{330, 0}";
},
{
name = belowLC;
position = "{346, -23}";
}
);
layerId = "70058D0C-C9A7-4421-A18D-CF261F8AA98E";
paths = (
{
closed = 1;
nodes = (
"88 0 LINE",
"299 0 LINE SMOOTH",
"515 0 OFFCURVE",
"653 128 OFFCURVE",
"653 384 CURVE SMOOTH",
"653 640 OFFCURVE",
"515 762 OFFCURVE",
"292 762 CURVE SMOOTH",
"88 762 LINE"
);
},
{
closed = 1;
nodes = (
"237 121 LINE",
"237 640 LINE",
"283 640 LINE SMOOTH",
"417 640 OFFCURVE",
"499 569 OFFCURVE",
"499 384 CURVE SMOOTH",
"499 198 OFFCURVE",
"417 121 OFFCURVE",
"283 121 CURVE SMOOTH"
);
}
);
width = 700;
}
);
unicode = 0044;
},
{
glyphname = Eth;
lastChange = "2015-12-16 11:53:30 +0000";
layers = (
{
anchors = (
{
name = aboveUC;
position = "{349, 791}";
},
{
name = belowLC;
position = "{338, -23}";
}
);
layerId = "8A30092D-5DE4-432F-B813-0E7E8F54CAFB";
paths = (
{
closed = 1;
nodes = (
"109 0 LINE",
"292 0 LINE SMOOTH",
"523 0 OFFCURVE",
"639 150 OFFCURVE",
"639 386 CURVE SMOOTH",
"639 623 OFFCURVE",
"523 768 OFFCURVE",
"290 768 CURVE SMOOTH",
"109 768 LINE",
"109 428 LINE",
"20 423 LINE",
"20 384 LINE",
"109 384 LINE"
);
},
{
closed = 1;
nodes = (
"177 58 LINE",
"177 384 LINE",
"360 384 LINE",
"360 428 LINE",
"177 428 LINE",
"177 710 LINE",
"284 710 LINE SMOOTH",
"479 710 OFFCURVE",
"568 584 OFFCURVE",
"568 386 CURVE SMOOTH",
"568 188 OFFCURVE",
"479 58 OFFCURVE",
"284 58 CURVE SMOOTH"
);
}
);
width = 700;
},
{
anchors = (
{
name = aboveUC;
position = "{347, 785}";
},
{
name = belowLC;
position = "{338, -23}";
}
);
layerId = "70058D0C-C9A7-4421-A18D-CF261F8AA98E";
paths = (
{
closed = 1;
nodes = (
"88 0 LINE",
"300 0 LINE SMOOTH",
"514 0 OFFCURVE",
"654 128 OFFCURVE",
"654 384 CURVE SMOOTH",
"654 640 OFFCURVE",
"514 762 OFFCURVE",
"293 762 CURVE SMOOTH",
"88 762 LINE",
"88 432 LINE",
"5 425 LINE",
"5 357 LINE",
"88 357 LINE"
);
},
{
closed = 1;
nodes = (
"237 121 LINE",
"237 357 LINE",
"375 357 LINE",
"375 432 LINE",
"237 432 LINE",
"237 640 LINE",
"283 640 LINE SMOOTH",
"417 640 OFFCURVE",
"499 569 OFFCURVE",
"499 384 CURVE SMOOTH",
"499 198 OFFCURVE",
"417 121 OFFCURVE",
"283 121 CURVE SMOOTH"
);
}
);
width = 700;
}
);
unicode = 00D0;
},
{
glyphname = Dhook;
lastChange = "2015-12-16 11:53:30 +0000";
layers = (
{
anchors = (
{
name = aboveUC;
position = "{380, 791}";
},
{
name = belowLC;
position = "{431, -23}";
}
);
layerId = "8A30092D-5DE4-432F-B813-0E7E8F54CAFB";
paths = (
{
closed = 1;
nodes = (
"260 0 LINE",
"346 0 LINE SMOOTH",
"545 0 OFFCURVE",
"655 152 OFFCURVE",
"655 395 CURVE SMOOTH",
"655 635 OFFCURVE",
"548 782 OFFCURVE",
"309 782 CURVE SMOOTH",
"127 782 OFFCURVE",
"38 675 OFFCURVE",
"38 525 CURVE SMOOTH",
"38 416 OFFCURVE",
"84 350 OFFCURVE",
"164 310 CURVE",
"195 359 LINE",
"129 397 OFFCURVE",
"98 445 OFFCURVE",
"98 527 CURVE SMOOTH",
"98 638 OFFCURVE",
"166 722 OFFCURVE",
"297 722 CURVE SMOOTH",
"315 722 LINE SMOOTH",
"513 722 OFFCURVE",
"589 595 OFFCURVE",
"589 395 CURVE SMOOTH",
"589 191 OFFCURVE",
"515 58 OFFCURVE",
"356 58 CURVE SMOOTH",
"324 58 LINE",
"324 750 LINE",
"260 750 LINE"
);
}
);
width = 700;
},
{
anchors = (
{
name = aboveUC;
position = "{397, 785}";
},
{
name = belowLC;
position = "{431, -23}";
}
);
layerId = "70058D0C-C9A7-4421-A18D-CF261F8AA98E";
paths = (
{
closed = 1;
nodes = (
"229 0 LINE",
"359 0 LINE SMOOTH",
"548 0 OFFCURVE",
"672 129 OFFCURVE",
"672 391 CURVE SMOOTH",
"672 649 OFFCURVE",
"549 776 OFFCURVE",
"322 776 CURVE SMOOTH",
"105 776 OFFCURVE",
"13 665 OFFCURVE",
"13 508 CURVE SMOOTH",
"13 402 OFFCURVE",
"59 338 OFFCURVE",
"140 298 CURVE",
"195 395 LINE",
"149 421 OFFCURVE",
"126 457 OFFCURVE",
"126 515 CURVE SMOOTH",
"126 594 OFFCURVE",
"173 654 OFFCURVE",
"286 654 CURVE SMOOTH",
"345 654 LINE SMOOTH",
"474 654 OFFCURVE",
"534 578 OFFCURVE",
"534 391 CURVE SMOOTH",
"534 200 OFFCURVE",
"478 121 OFFCURVE",
"382 121 CURVE SMOOTH",
"362 121 LINE",
"362 698 LINE",
"229 698 LINE"
);
}
);
width = 700;
}
);
unicode = 018A;
},
{
glyphname = E;
lastChange = "2015-12-16 11:53:30 +0000";
layers = (
{
anchors = (
{
name = aboveUC;
position = "{390, 791}";
},
{
name = baseLC;
position = "{383, 0}";
},
{
name = belowLC;
position = "{392, -23}";
},
{
name = ogonekUC;
position = "{500, 0}";
}
);
layerId = "8A30092D-5DE4-432F-B813-0E7E8F54CAFB";
paths = (
{
closed = 1;
nodes = (
"143 0 LINE",
"615 0 LINE",
"615 59 LINE",
"211 59 LINE",
"211 376 LINE",
"542 376 LINE",
"542 435 LINE",
"211 435 LINE",
"211 709 LINE",
"604 709 LINE",
"604 768 LINE",
"143 768 LINE"
);
}
);
width = 700;
},
{
anchors = (
{
name = aboveUC;
position = "{380, 785}";
},
{
name = baseLC;
position = "{377, 0}";
},
{
name = belowLC;
position = "{380, -23}";
},
{
name = ogonekUC;
position = "{501, 0}";
}
);
layerId = "70058D0C-C9A7-4421-A18D-CF261F8AA98E";
paths = (
{
closed = 1;
nodes = (
"115 0 LINE",
"621 0 LINE",
"621 126 LINE",
"264 126 LINE",
"264 331 LINE",
"557 331 LINE",
"557 457 LINE",
"264 457 LINE",
"264 636 LINE",
"609 636 LINE",
"609 762 LINE",
"115 762 LINE"
);
}
);
width = 700;
}
);
unicode = 0045;
},
{
glyphname = Eogonek;
lastChange = "2015-12-16 11:53:30 +0000";
layers = (
{
anchors = (
{
name = aboveUC;
position = "{390, 791}";
}
);
layerId = "8A30092D-5DE4-432F-B813-0E7E8F54CAFB";
paths = (
{
closed = 1;
nodes = (
"544 -262 CURVE SMOOTH",
"589 -262 OFFCURVE",
"618 -244 OFFCURVE",
"643 -220 CURVE",
"618 -183 LINE",
"603 -198 OFFCURVE",
"583 -211 OFFCURVE",
"556 -211 CURVE SMOOTH",
"520 -211 OFFCURVE",
"486 -190 OFFCURVE",
"486 -145 CURVE SMOOTH",
"486 -79 OFFCURVE",
"551 -11 OFFCURVE",
"613 0 CURVE SMOOTH",
"616 0 LINE",
"616 59 LINE",
"213 59 LINE",
"213 376 LINE",
"542 376 LINE",
"542 435 LINE",
"213 435 LINE",
"213 709 LINE",
"605 709 LINE",
"605 768 LINE",
"144 768 LINE",
"144 0 LINE",
"533 0 LINE",
"479 -33 OFFCURVE",
"430 -88 OFFCURVE",
"430 -158 CURVE SMOOTH",
"430 -228 OFFCURVE",
"480 -262 OFFCURVE"
);
}
);
width = 700;
},
{
anchors = (
{
name = aboveUC;
position = "{378, 785}";
}
);
layerId = "70058D0C-C9A7-4421-A18D-CF261F8AA98E";
paths = (
{
closed = 1;
nodes = (
"528 -264 CURVE SMOOTH",
"572 -264 OFFCURVE",
"618 -246 OFFCURVE",
"648 -221 CURVE",
"611 -145 LINE",
"599 -155 OFFCURVE",
"582 -166 OFFCURVE",
"563 -166 CURVE SMOOTH",
"534 -166 OFFCURVE",
"507 -151 OFFCURVE",
"507 -116 CURVE SMOOTH",
"507 -61 OFFCURVE",
"559 -4 OFFCURVE",
"616 0 CURVE SMOOTH",
"622 0 LINE",
"622 126 LINE",
"267 126 LINE",
"267 331 LINE",
"558 331 LINE",
"558 457 LINE",
"267 457 LINE",
"267 636 LINE",
"610 636 LINE",
"610 762 LINE",
"117 762 LINE",
"117 0 LINE",
"494 0 LINE",
"449 -27 OFFCURVE",
"396 -82 OFFCURVE",
"396 -154 CURVE SMOOTH",
"396 -226 OFFCURVE",
"454 -264 OFFCURVE"
);
}
);
width = 700;
}
);
unicode = 0118;
},
{
glyphname = F;
lastChange = "2015-12-16 11:53:30 +0000";
layers = (
{
anchors = (
{
name = aboveUC;
position = "{403, 791}";
},
{
name = baseLC;
position = "{195, 0}";
},
{
name = belowLC;
position = "{211, -23}";
}
);
layerId = "8A30092D-5DE4-432F-B813-0E7E8F54CAFB";
paths = (
{
closed = 1;
nodes = (
"168 0 LINE",
"236 0 LINE",
"236 360 LINE",
"563 360 LINE",
"563 419 LINE",
"236 419 LINE",
"236 709 LINE",
"624 709 LINE",
"624 768 LINE",
"168 768 LINE"
);
}
);
width = 700;
},
{
anchors = (
{
name = aboveUC;
position = "{392, 785}";
},
{
name = baseLC;
position = "{204, 0}";
},
{
name = belowLC;
position = "{210, -23}";
}
);
layerId = "70058D0C-C9A7-4421-A18D-CF261F8AA98E";
paths = (
{
closed = 1;
nodes = (
"132 0 LINE",
"281 0 LINE",
"281 310 LINE",
"575 310 LINE",
"575 435 LINE",
"281 435 LINE",
"281 636 LINE",
"626 636 LINE",
"626 762 LINE",
"132 762 LINE"
);
}
);
width = 700;
}
);
unicode = 0046;
},
{
glyphname = G;
lastChange = "2015-12-16 11:53:30 +0000";
layers = (
{
anchors = (
{
name = aboveUC;
position = "{385, 791}";
},
{
name = belowLC;
position = "{388, -23}";
}
);
layerId = "8A30092D-5DE4-432F-B813-0E7E8F54CAFB";
paths = (
{
closed = 1;
nodes = (
"390 -14 CURVE SMOOTH",
"489 -14 OFFCURVE",
"567 23 OFFCURVE",
"615 73 CURVE",
"615 384 LINE",
"381 384 LINE",
"381 326 LINE",
"549 326 LINE",
"549 101 LINE",
"517 67 OFFCURVE",
"458 48 OFFCURVE",
"395 48 CURVE SMOOTH",
"233 48 OFFCURVE",
"138 180 OFFCURVE",
"138 386 CURVE SMOOTH",
"138 591 OFFCURVE",
"239 720 OFFCURVE",
"400 720 CURVE SMOOTH",
"479 720 OFFCURVE",
"529 686 OFFCURVE",
"566 644 CURVE",
"607 689 LINE",
"565 733 OFFCURVE",
"501 782 OFFCURVE",
"400 782 CURVE SMOOTH",
"202 782 OFFCURVE",
"66 630 OFFCURVE",
"66 384 CURVE SMOOTH",
"66 139 OFFCURVE",
"199 -14 OFFCURVE"
);
}
);
width = 700;
},
{
anchors = (
{
name = aboveUC;
position = "{385, 785}";
},
{
name = belowLC;
position = "{379, -23}";
}
);
layerId = "70058D0C-C9A7-4421-A18D-CF261F8AA98E";
paths = (
{
closed = 1;
nodes = (
"397 -14 CURVE SMOOTH",
"495 -14 OFFCURVE",
"582 29 OFFCURVE",
"633 77 CURVE",
"633 419 LINE",
"375 419 LINE",
"375 297 LINE",
"497 297 LINE",
"497 145 LINE",
"478 126 OFFCURVE",
"442 116 OFFCURVE",
"406 116 CURVE SMOOTH",
"277 116 OFFCURVE",
"208 216 OFFCURVE",
"208 382 CURVE SMOOTH",
"208 546 OFFCURVE",
"289 646 OFFCURVE",
"402 646 CURVE SMOOTH",
"466 646 OFFCURVE",
"504 621 OFFCURVE",
"538 586 CURVE",
"621 680 LINE",
"574 728 OFFCURVE",
"504 776 OFFCURVE",
"402 776 CURVE SMOOTH",
"204 776 OFFCURVE",
"54 630 OFFCURVE",
"54 377 CURVE SMOOTH",
"54 124 OFFCURVE",
"204 -14 OFFCURVE"
);
}
);
width = 700;
}
);
unicode = 0047;
},
{
glyphname = Ghook;
lastChange = "2015-12-16 11:53:30 +0000";
layers = (
{
components = (
{
name = G;
}
);
layerId = "8A30092D-5DE4-432F-B813-0E7E8F54CAFB";
paths = (
{
closed = 1;
nodes = (
"607 689 LINE",
"573 741 OFFCURVE",
"558 765 OFFCURVE",
"558 809 CURVE SMOOTH",
"558 844 OFFCURVE",
"580 874 OFFCURVE",
"621 874 CURVE SMOOTH",
"639 874 OFFCURVE",
"651 868 OFFCURVE",
"664 863 CURVE",
"678 916 LINE",
"661 923 OFFCURVE",
"640 930 OFFCURVE",
"615 930 CURVE SMOOTH",
"548 930 OFFCURVE",
"498 889 OFFCURVE",
"498 821 CURVE SMOOTH",
"498 776 OFFCURVE",
"513 747 OFFCURVE",
"548 691 CURVE"
);
}
);
width = 700;
},
{
components = (
{
name = G;
}
);
layerId = "70058D0C-C9A7-4421-A18D-CF261F8AA98E";
paths = (
{
closed = 1;
nodes = (
"622 680 LINE",
"598 711 OFFCURVE",
"581 735 OFFCURVE",
"581 773 CURVE SMOOTH",
"581 809 OFFCURVE",
"605 832 OFFCURVE",
"641 832 CURVE SMOOTH",
"655 832 OFFCURVE",
"664 827 OFFCURVE",
"676 823 CURVE",
"703 933 LINE",
"681 942 OFFCURVE",
"654 949 OFFCURVE",
"612 949 CURVE SMOOTH",
"516 949 OFFCURVE",
"457 885 OFFCURVE",
"457 804 CURVE SMOOTH",
"457 764 OFFCURVE",
"473 720 OFFCURVE",
"500 676 CURVE"
);
}
);
width = 700;
}
);
unicode = 0193;
},
{
glyphname = H;
lastChange = "2015-12-16 11:53:30 +0000";
layers = (
{
anchors = (
{
name = aboveUC;
position = "{350, 791}";
},
{
name = baseLC;
position = "{134, 0}";
},
{
name = belowLC;
position = "{350, -23}";
}
);
layerId = "8A30092D-5DE4-432F-B813-0E7E8F54CAFB";
paths = (
{
closed = 1;
nodes = (
"99 0 LINE",
"168 0 LINE",
"168 376 LINE",
"531 376 LINE",
"531 0 LINE",
"599 0 LINE",
"599 768 LINE",
"531 768 LINE",
"531 436 LINE",
"168 436 LINE",
"168 768 LINE",
"99 768 LINE"
);
}
);
width = 700;
},
{
anchors = (
{
name = aboveUC;
position = "{350, 785}";
},
{
name = baseLC;
position = "{156, 0}";
},
{
name = belowLC;
position = "{350, -23}";
}
);
layerId = "70058D0C-C9A7-4421-A18D-CF261F8AA98E";
paths = (
{
closed = 1;
nodes = (
"80 0 LINE",
"230 0 LINE",
"230 330 LINE",
"469 330 LINE",
"469 0 LINE",
"619 0 LINE",
"619 762 LINE",
"469 762 LINE",
"469 461 LINE",
"230 461 LINE",
"230 762 LINE",
"80 762 LINE"
);
}
);
width = 700;
}
);
unicode = 0048;
},
{
glyphname = Hbar;
lastChange = "2015-12-16 11:53:30 +0000";
layers = (
{
components = (
{
name = H;
}
);
layerId = "8A30092D-5DE4-432F-B813-0E7E8F54CAFB";
paths = (
{
closed = 1;
nodes = (
"15 575 LINE",
"684 575 LINE",
"684 620 LINE",
"101 620 LINE",
"15 615 LINE"
);
}
);
width = 700;
},
{
components = (
{
name = H;
}
);
layerId = "70058D0C-C9A7-4421-A18D-CF261F8AA98E";
paths = (
{
closed = 1;
nodes = (
"6 568 LINE",
"694 568 LINE",
"694 643 LINE",
"86 643 LINE",
"6 637 LINE"
);
}
);
width = 700;
}
);
unicode = 0126;
},
{
glyphname = I;
lastChange = "2015-12-16 11:53:30 +0000";
layers = (
{
anchors = (
{
name = aboveUC;
position = "{350, 791}";
},
{
name = baseLC;
position = "{350, 0}";
},
{
name = belowLC;
position = "{350, -23}";
},
{
name = ogonekUC;
position = "{350, 0}";
}
);
layerId = "8A30092D-5DE4-432F-B813-0E7E8F54CAFB";
paths = (
{
closed = 1;
nodes = (
"121 0 LINE",
"580 0 LINE",
"580 59 LINE",
"384 59 LINE",
"384 709 LINE",
"580 709 LINE",
"580 768 LINE",
"121 768 LINE",
"121 709 LINE",
"316 709 LINE",
"316 59 LINE",
"121 59 LINE"
);
}
);
width = 700;
},
{
anchors = (
{
name = aboveUC;
position = "{350, 785}";
},
{
name = baseLC;
position = "{350, 0}";
},
{
name = belowLC;
position = "{350, -23}";
},
{
name = ogonekUC;
position = "{350, 0}";
}
);
layerId = "70058D0C-C9A7-4421-A18D-CF261F8AA98E";
paths = (
{
closed = 1;
nodes = (
"94 0 LINE",
"606 0 LINE",
"606 126 LINE",
"425 126 LINE",
"425 636 LINE",
"606 636 LINE",
"606 762 LINE",
"94 762 LINE",
"94 636 LINE",
"275 636 LINE",
"275 126 LINE",
"94 126 LINE"
);
}
);
width = 700;
}
);
unicode = 0049;
},
{
glyphname = IJ;
lastChange = "2015-12-16 11:53:30 +0000";
layers = (
{
layerId = "8A30092D-5DE4-432F-B813-0E7E8F54CAFB";
paths = (
{
closed = 1;
nodes = (
"148 0 LINE",
"217 0 LINE",
"217 768 LINE",
"148 768 LINE"
);
},
{
closed = 1;
nodes = (
"413 -185 CURVE SMOOTH",
"510 -185 OFFCURVE",
"552 -125 OFFCURVE",
"552 -13 CURVE SMOOTH",
"552 768 LINE",
"484 768 LINE",
"484 -7 LINE SMOOTH",
"484 -77 OFFCURVE",
"470 -125 OFFCURVE",
"409 -125 CURVE SMOOTH",
"386 -125 OFFCURVE",
"365 -119 OFFCURVE",
"350 -114 CURVE",
"336 -170 LINE",
"354 -178 OFFCURVE",
"383 -185 OFFCURVE"
);
}
);
width = 700;
},
{
layerId = "70058D0C-C9A7-4421-A18D-CF261F8AA98E";
paths = (
{
closed = 1;
nodes = (
"100 0 LINE",
"250 0 LINE",
"250 762 LINE",
"100 762 LINE"
);
},
{
closed = 1;
nodes = (
"402 -206 CURVE SMOOTH",
"551 -206 OFFCURVE",
"600 -110 OFFCURVE",
"600 14 CURVE SMOOTH",
"600 762 LINE",
"450 762 LINE",
"450 12 LINE SMOOTH",
"450 -54 OFFCURVE",
"433 -87 OFFCURVE",
"381 -87 CURVE SMOOTH",
"362 -87 OFFCURVE",
"344 -82 OFFCURVE",
"326 -77 CURVE",
"300 -189 LINE",
"324 -198 OFFCURVE",
"355 -206 OFFCURVE"
);
}
);
width = 700;
}
);
unicode = 0132;
},
{
glyphname = Iogonek;
lastChange = "2015-12-16 11:53:30 +0000";
layers = (
{
anchors = (
{
name = aboveUC;
position = "{350, 791}";
}
);
layerId = "8A30092D-5DE4-432F-B813-0E7E8F54CAFB";
paths = (
{
closed = 1;
nodes = (
"365 -262 CURVE SMOOTH",
"409 -262 OFFCURVE",
"439 -244 OFFCURVE",
"464 -220 CURVE",
"438 -183 LINE",
"423 -198 OFFCURVE",
"403 -211 OFFCURVE",
"376 -211 CURVE SMOOTH",
"340 -211 OFFCURVE",
"307 -190 OFFCURVE",
"307 -145 CURVE SMOOTH",
"307 -101 OFFCURVE",
"336 -51 OFFCURVE",
"392 0 CURVE",
"580 0 LINE",
"580 59 LINE",
"384 59 LINE",
"384 709 LINE",
"580 709 LINE",
"580 768 LINE",
"121 768 LINE",
"121 709 LINE",
"316 709 LINE",
"316 59 LINE",
"121 59 LINE",
"121 0 LINE",
"332 0 LINE",
"292 -42 OFFCURVE",
"251 -95 OFFCURVE",
"251 -158 CURVE SMOOTH",
"251 -228 OFFCURVE",
"299 -262 OFFCURVE"
);
}
);
width = 700;
},
{
anchors = (
{
name = aboveUC;
position = "{350, 785}";
}
);
layerId = "70058D0C-C9A7-4421-A18D-CF261F8AA98E";
paths = (
{
closed = 1;
nodes = (
"360 -264 CURVE SMOOTH",
"404 -264 OFFCURVE",
"450 -246 OFFCURVE",
"480 -221 CURVE",
"442 -145 LINE",
"431 -155 OFFCURVE",
"414 -166 OFFCURVE",
"394 -166 CURVE SMOOTH",
"366 -166 OFFCURVE",
"339 -151 OFFCURVE",
"339 -116 CURVE SMOOTH",
"339 -76 OFFCURVE",
"364 -32 OFFCURVE",
"428 0 CURVE",
"606 0 LINE",
"606 126 LINE",
"425 126 LINE",
"425 636 LINE",
"606 636 LINE",
"606 762 LINE",
"94 762 LINE",
"94 636 LINE",
"275 636 LINE",
"275 126 LINE",
"94 126 LINE",
"94 0 LINE",
"315 0 LINE",
"280 -29 OFFCURVE",
"229 -83 OFFCURVE",
"229 -154 CURVE SMOOTH",
"229 -226 OFFCURVE",
"286 -264 OFFCURVE"
);
}
);
width = 700;
}
);
unicode = 012E;
},
{
glyphname = J;
lastChange = "2015-12-16 11:53:30 +0000";
layers = (
{
anchors = (
{
name = aboveUC;
position = "{375, 791}";
},
{
name = belowLC;
position = "{350, -23}";
}
);
layerId = "8A30092D-5DE4-432F-B813-0E7E8F54CAFB";
paths = (
{
closed = 1;
nodes = (
"322 -14 CURVE SMOOTH",
"505 -14 OFFCURVE",
"565 100 OFFCURVE",
"565 240 CURVE SMOOTH",
"565 768 LINE",
"166 768 LINE",
"166 710 LINE",
"496 710 LINE",
"496 246 LINE SMOOTH",
"496 111 OFFCURVE",
"442 48 OFFCURVE",
"321 48 CURVE SMOOTH",
"260 48 OFFCURVE",
"194 81 OFFCURVE",
"150 154 CURVE",
"103 113 LINE",
"151 27 OFFCURVE",
"237 -14 OFFCURVE"
);
}
);
width = 700;
},
{
anchors = (
{
name = aboveUC;
position = "{381, 785}";
},
{
name = belowLC;
position = "{350, -23}";
}
);
layerId = "70058D0C-C9A7-4421-A18D-CF261F8AA98E";
paths = (
{
closed = 1;
nodes = (
"319 -14 CURVE SMOOTH",
"523 -14 OFFCURVE",
"594 107 OFFCURVE",
"594 255 CURVE SMOOTH",
"594 762 LINE",
"140 762 LINE",
"140 636 LINE",
"445 636 LINE",
"445 267 LINE SMOOTH",
"445 156 OFFCURVE",
"401 116 OFFCURVE",
"314 116 CURVE SMOOTH",
"262 116 OFFCURVE",
"208 146 OFFCURVE",
"164 205 CURVE",
"76 112 LINE",
"139 20 OFFCURVE",
"234 -14 OFFCURVE"
);
}
);
width = 700;
}
);
unicode = 004A;
},
{
glyphname = K;
lastChange = "2015-12-16 11:53:30 +0000";
layers = (
{
anchors = (
{
name = aboveUC;
position = "{382, 791}";
},
{
name = belowLC;
position = "{400, -23}";
}
);
layerId = "8A30092D-5DE4-432F-B813-0E7E8F54CAFB";
paths = (
{
closed = 1;
nodes = (
"127 0 LINE",
"197 0 LINE",
"197 258 LINE",
"638 768 LINE",
"559 768 LINE",
"199 355 LINE",
"197 355 LINE",
"197 768 LINE",
"127 768 LINE"
);
},
{
closed = 1;
nodes = (
"591 0 LINE",
"669 0 LINE",
"375 511 LINE",
"331 456 LINE"
);
}
);
width = 700;
},
{
anchors = (
{
name = aboveUC;
position = "{376, 785}";
},
{
name = belowLC;
position = "{384, -23}";
}
);
layerId = "70058D0C-C9A7-4421-A18D-CF261F8AA98E";
paths = (
{
closed = 1;
nodes = (
"89 0 LINE",
"241 0 LINE",
"241 219 LINE",
"665 762 LINE",
"498 762 LINE",
"245 429 LINE",
"241 429 LINE",
"241 762 LINE",
"89 762 LINE"
);
},
{
closed = 1;
nodes = (
"522 0 LINE",
"688 0 LINE",
"416 492 LINE",
"327 375 LINE"
);
}
);
width = 700;
}
);
unicode = 004B;
},
{
glyphname = L;
lastChange = "2015-12-16 11:53:30 +0000";
layers = (
{
anchors = (
{
name = aboveUC;
position = "{219, 791}";
},
{
name = baseLC;
position = "{413, 0}";
},
{
name = belowLC;
position = "{413, -23}";
},
{
name = center;
position = "{204, 389}";
}
);
layerId = "8A30092D-5DE4-432F-B813-0E7E8F54CAFB";
paths = (
{
closed = 1;
nodes = (
"169 0 LINE",
"629 0 LINE",
"629 59 LINE",
"236 59 LINE",
"236 768 LINE",
"169 768 LINE"
);
}
);
width = 700;
},
{
anchors = (
{
name = aboveUC;
position = "{223, 785}";
},
{
name = baseLC;
position = "{396, 0}";
},
{
name = belowLC;
position = "{396, -23}";
},
{
name = center;
position = "{208, 401}";
}
);
layerId = "70058D0C-C9A7-4421-A18D-CF261F8AA98E";
paths = (
{
closed = 1;
nodes = (
"134 0 LINE",
"633 0 LINE",
"633 126 LINE",
"283 126 LINE",
"283 762 LINE",
"134 762 LINE"
);
}
);
width = 700;
}
);
unicode = 004C;
},
{
glyphname = Lslash;
lastChange = "2015-12-16 11:53:30 +0000";
layers = (
{
anchors = (
{
name = aboveUC;
position = "{219, 791}";
},
{
name = belowLC;
position = "{413, -23}";
}
);
components = (
{
name = L;
}
);
layerId = "8A30092D-5DE4-432F-B813-0E7E8F54CAFB";
paths = (
{
closed = 1;
nodes = (
"44 217 LINE",
"175 285 LINE",
"230 309 LINE",
"520 461 LINE",
"496 506 LINE",
"230 367 LINE",
"175 342 LINE",
"20 262 LINE"
);
}
);
width = 700;
},
{
anchors = (
{
name = aboveUC;
position = "{223, 785}";
},
{
name = belowLC;
position = "{396, -23}";
}
);
components = (
{
name = L;
}
);
layerId = "70058D0C-C9A7-4421-A18D-CF261F8AA98E";
paths = (
{
closed = 1;
nodes = (
"48 203 LINE",
"149 260 LINE",
"268 311 LINE",
"554 466 LINE",
"503 557 LINE",
"268 428 LINE",
"149 377 LINE",
"-3 293 LINE"
);
}
);
width = 700;
}
);
unicode = 0141;
},
{
glyphname = M;
lastChange = "2015-12-16 11:53:30 +0000";
layers = (
{
anchors = (
{
name = aboveUC;
position = "{350, 791}";
},
{
name = baseLC;
position = "{568, 0}";
},
{
name = belowLC;
position = "{350, -23}";
}
);
layerId = "8A30092D-5DE4-432F-B813-0E7E8F54CAFB";
paths = (
{
closed = 1;
nodes = (
"91 0 LINE",
"151 0 LINE",
"151 500 LINE SMOOTH",
"151 556 OFFCURVE",
"146 640 OFFCURVE",
"142 695 CURVE",
"146 695 LINE",
"193 551 LINE",
"327 204 LINE",
"370 204 LINE",
"505 551 LINE",
"551 695 LINE",
"555 695 LINE",
"552 640 OFFCURVE",
"547 556 OFFCURVE",
"547 500 CURVE SMOOTH",
"547 0 LINE",
"609 0 LINE",
"609 768 LINE",
"526 768 LINE",
"396 418 LINE",
"352 289 LINE",
"347 289 LINE",
"302 418 LINE",
"174 768 LINE",
"91 768 LINE"
);
}
);
width = 700;
},
{
anchors = (
{
name = aboveUC;
position = "{350, 785}";
},
{
name = baseLC;
position = "{561, 0}";
},
{
name = belowLC;
position = "{350, -23}";
}
);
layerId = "70058D0C-C9A7-4421-A18D-CF261F8AA98E";
paths = (
{
closed = 1;
nodes = (
"72 0 LINE",
"196 0 LINE",
"196 302 LINE SMOOTH",
"196 379 OFFCURVE",
"184 538 OFFCURVE",
"176 614 CURVE",
"180 614 LINE",
"234 420 LINE",
"312 202 LINE",
"383 202 LINE",
"459 420 LINE",
"517 614 LINE",
"520 614 LINE",
"513 538 OFFCURVE",
"501 379 OFFCURVE",
"501 302 CURVE SMOOTH",
"501 0 LINE",
"627 0 LINE",
"627 762 LINE",
"470 762 LINE",
"381 475 LINE",
"352 365 LINE",
"347 365 LINE",
"316 475 LINE",
"229 762 LINE",
"72 762 LINE"
);
}
);
width = 700;
}
);
unicode = 004D;
},
{
glyphname = N;
lastChange = "2015-12-16 11:53:30 +0000";
layers = (
{
anchors = (
{
name = aboveUC;
position = "{361, 791}";
},
{
name = baseLC;
position = "{555, 0}";
},
{
name = belowLC;
position = "{350, -23}";
}
);
layerId = "8A30092D-5DE4-432F-B813-0E7E8F54CAFB";
paths = (
{
closed = 1;
nodes = (
"104 0 LINE",
"169 0 LINE",
"169 450 LINE SMOOTH",
"169 526 OFFCURVE",
"162 600 OFFCURVE",
"160 676 CURVE",
"163 676 LINE",
"244 523 LINE",
"526 0 LINE",
"596 0 LINE",
"596 768 LINE",
"531 768 LINE",
"531 321 LINE SMOOTH",
"531 245 OFFCURVE",
"537 166 OFFCURVE",
"540 92 CURVE",
"537 92 LINE",
"457 245 LINE",
"174 768 LINE",
"104 768 LINE"
);
}
);
width = 700;
},
{
anchors = (
{
name = aboveUC;
position = "{361, 785}";
},
{
name = baseLC;
position = "{543, 0}";
},
{
name = belowLC;
position = "{350, -23}";
}
);
layerId = "70058D0C-C9A7-4421-A18D-CF261F8AA98E";
paths = (
{
closed = 1;
nodes = (
"83 0 LINE",
"226 0 LINE",
"226 308 LINE SMOOTH",
"226 394 OFFCURVE",
"212 490 OFFCURVE",
"205 573 CURVE",
"209 573 LINE",
"278 410 LINE",
"465 0 LINE",
"617 0 LINE",
"617 762 LINE",
"474 762 LINE",
"474 455 LINE SMOOTH",
"474 368 OFFCURVE",
"488 268 OFFCURVE",
"494 189 CURVE",
"491 189 LINE",
"422 353 LINE",
"235 762 LINE",
"83 762 LINE"
);
}
);
width = 700;
}
);
unicode = 004E;
},
{
glyphname = Eng;
lastChange = "2015-12-16 11:53:30 +0000";
layers = (
{
anchors = (
{
name = aboveUC;
position = "{377, 791}";
},
{
name = belowLC;
position = "{359, -23}";
}
);
layerId = "8A30092D-5DE4-432F-B813-0E7E8F54CAFB";
paths = (
{
closed = 1;
nodes = (
"449 -14 CURVE SMOOTH",
"558 -14 OFFCURVE",
"638 90 OFFCURVE",
"638 392 CURVE SMOOTH",
"638 678 OFFCURVE",
"527 782 OFFCURVE",
"381 782 CURVE SMOOTH",
"302 782 OFFCURVE",
"226 728 OFFCURVE",
"175 670 CURVE",
"175 768 LINE",
"108 768 LINE",
"108 0 LINE",
"176 0 LINE",
"176 601 LINE",
"223 666 OFFCURVE",
"305 720 OFFCURVE",
"368 720 CURVE SMOOTH",
"485 720 OFFCURVE",
"567 644 OFFCURVE",
"567 392 CURVE SMOOTH",
"567 132 OFFCURVE",
"512 52 OFFCURVE",
"443 52 CURVE SMOOTH",
"417 52 OFFCURVE",
"400 56 OFFCURVE",
"383 65 CURVE",
"364 1 LINE",
"385 -9 OFFCURVE",
"421 -14 OFFCURVE"
);
}
);
width = 700;
},
{
anchors = (
{
name = aboveUC;
position = "{373, 785}";
},
{
name = belowLC;
position = "{353, -23}";
}
);
layerId = "70058D0C-C9A7-4421-A18D-CF261F8AA98E";
paths = (
{
closed = 1;
nodes = (
"426 -14 CURVE SMOOTH",
"581 -14 OFFCURVE",
"646 110 OFFCURVE",
"646 388 CURVE SMOOTH",
"646 671 OFFCURVE",
"542 776 OFFCURVE",
"404 776 CURVE SMOOTH",
"334 776 OFFCURVE",
"275 740 OFFCURVE",
"228 684 CURVE",
"228 762 LINE",
"83 762 LINE",
"83 0 LINE",
"232 0 LINE",
"232 552 LINE",
"268 610 OFFCURVE",
"321 646 OFFCURVE",
"366 646 CURVE SMOOTH",
"443 646 OFFCURVE",
"491 579 OFFCURVE",
"491 388 CURVE SMOOTH",
"491 177 OFFCURVE",
"461 126 OFFCURVE",
"409 126 CURVE SMOOTH",
"391 126 OFFCURVE",
"378 130 OFFCURVE",
"367 136 CURVE",
"333 5 LINE",
"354 -8 OFFCURVE",
"395 -14 OFFCURVE"
);
}
);
width = 700;
}
);
unicode = 014A;
},
{
glyphname = O;
lastChange = "2015-12-16 11:53:30 +0000";
layers = (
{
anchors = (
{
name = aboveUC;
position = "{350, 791}";
},
{
name = baseLC;
position = "{350, 0}";
},
{
name = belowLC;
position = "{350, -23}";
},
{
name = hornLC;
position = "{487, 756}";
},
{
name = ogonekUC;
position = "{350, 0}";
}
);
layerId = "8A30092D-5DE4-432F-B813-0E7E8F54CAFB";
paths = (
{
closed = 1;
nodes = (
"350 -14 CURVE SMOOTH",
"518 -14 OFFCURVE",
"639.006 139.994 OFFCURVE",
"639 386 CURVE SMOOTH",
"639 632 OFFCURVE",
"518 782 OFFCURVE",
"350 782 CURVE SMOOTH",
"180 782 OFFCURVE",
"60 632 OFFCURVE",
"60 386 CURVE SMOOTH",
"60 140 OFFCURVE",
"180 -14 OFFCURVE"
);
},
{
closed = 1;
nodes = (
"350 48 CURVE SMOOTH",
"220 48 OFFCURVE",
"132 179 OFFCURVE",
"132 386 CURVE SMOOTH",
"132 593 OFFCURVE",
"220 720 OFFCURVE",
"350 720 CURVE SMOOTH",
"480 720 OFFCURVE",
"568 593 OFFCURVE",
"568 386 CURVE SMOOTH",
"568 179 OFFCURVE",
"480 48 OFFCURVE"
);
}
);
width = 700;
},
{
anchors = (
{
name = aboveUC;
position = "{350, 785}";
},
{
name = baseLC;
position = "{350, 0}";
},
{
name = belowLC;
position = "{350, -23}";
},
{
name = hornLC;
position = "{493, 750}";
},
{
name = ogonekUC;
position = "{350, 0}";
}
);
layerId = "70058D0C-C9A7-4421-A18D-CF261F8AA98E";
paths = (
{
closed = 1;
nodes = (
"350 -14 CURVE SMOOTH",
"528 -14 OFFCURVE",
"652 127 OFFCURVE",
"652 384 CURVE SMOOTH",
"652 636 OFFCURVE",
"528 776 OFFCURVE",
"350 776 CURVE SMOOTH",
"172 776 OFFCURVE",
"48 636 OFFCURVE",
"48 384 CURVE SMOOTH",
"48 127 OFFCURVE",
"172 -14 OFFCURVE"
);
},
{
closed = 1;
nodes = (
"350 116 CURVE SMOOTH",
"260 116 OFFCURVE",
"202 211 OFFCURVE",
"202 384 CURVE SMOOTH",
"202 552 OFFCURVE",
"260 646 OFFCURVE",
"350 646 CURVE SMOOTH",
"441 646 OFFCURVE",
"499 552 OFFCURVE",
"499 384 CURVE SMOOTH",
"499 211 OFFCURVE",
"441 116 OFFCURVE"
);
}
);
width = 700;
}
);
unicode = 004F;
},
{
glyphname = Ohorn;
lastChange = "2015-12-16 11:53:30 +0000";
layers = (
{
anchors = (
{
name = aboveUC;
position = "{350, 791}";
},
{
name = belowLC;
position = "{350, -23}";
}
);
components = (
{
name = O;
}
);
layerId = "8A30092D-5DE4-432F-B813-0E7E8F54CAFB";
paths = (
{
closed = 1;
nodes = (
"516 711 LINE",
"593 731 OFFCURVE",
"641 778 OFFCURVE",
"641 854 CURVE SMOOTH",
"641 884 OFFCURVE",
"632 914 OFFCURVE",
"617 939 CURVE",
"561 913 LINE",
"572 894 OFFCURVE",
"577 870 OFFCURVE",
"577 849 CURVE SMOOTH",
"577 792 OFFCURVE",
"543 758 OFFCURVE",
"469 745 CURVE"
);
}
);
width = 700;
},
{
anchors = (
{
name = aboveUC;
position = "{350, 785}";
},
{
name = belowLC;
position = "{350, -23}";
}
);
components = (
{
name = O;
}
);
layerId = "70058D0C-C9A7-4421-A18D-CF261F8AA98E";
paths = (
{
closed = 1;
nodes = (
"549 691 LINE",
"639 715 OFFCURVE",
"683 769 OFFCURVE",
"683 854 CURVE SMOOTH",
"683 897 OFFCURVE",
"668 937 OFFCURVE",
"651 962 CURVE",
"539 917 LINE",
"548 898 OFFCURVE",
"556 871 OFFCURVE",
"556 843 CURVE SMOOTH",
"556 785 OFFCURVE",
"530 757 OFFCURVE",
"476 743 CURVE"
);
}
);
width = 700;
}
);
unicode = 01A0;
},
{
glyphname = Oogonek;
lastChange = "2015-12-16 11:53:30 +0000";
layers = (
{
anchors = (
{
name = aboveUC;
position = "{350, 791}";
}
);
layerId = "8A30092D-5DE4-432F-B813-0E7E8F54CAFB";
paths = (
{
closed = 1;
nodes = (
"368 -262 CURVE SMOOTH",
"412 -262 OFFCURVE",
"442 -244 OFFCURVE",
"467 -220 CURVE",
"442 -183 LINE",
"427 -198 OFFCURVE",
"407 -211 OFFCURVE",
"379 -211 CURVE SMOOTH",
"344 -211 OFFCURVE",
"310 -190 OFFCURVE",
"310 -145 CURVE SMOOTH",
"310 -93 OFFCURVE",
"351 -36 OFFCURVE",
"425 -5 CURVE SMOOTH",
"564 55 OFFCURVE",
"639 185 OFFCURVE",
"639 386 CURVE SMOOTH",
"639 630 OFFCURVE",
"518 782 OFFCURVE",
"350 782 CURVE SMOOTH",
"180 782 OFFCURVE",
"60 630 OFFCURVE",
"60 386 CURVE SMOOTH",
"60 163 OFFCURVE",
"160 -3 OFFCURVE",
"340 -14 CURVE",
"294 -51 OFFCURVE",
"254 -96 OFFCURVE",
"254 -158 CURVE SMOOTH",
"254 -228 OFFCURVE",
"303 -262 OFFCURVE"
);
},
{
closed = 1;
nodes = (
"350 47 CURVE SMOOTH",
"220 47 OFFCURVE",
"132 176 OFFCURVE",
"132 386 CURVE SMOOTH",
"132 593 OFFCURVE",
"220 720 OFFCURVE",
"350 720 CURVE SMOOTH",
"480 720 OFFCURVE",
"568 593 OFFCURVE",
"568 386 CURVE SMOOTH",
"568 176 OFFCURVE",
"480 47 OFFCURVE"
);
}
);
width = 700;
},
{
anchors = (
{
name = aboveUC;
position = "{350, 785}";
}
);
layerId = "70058D0C-C9A7-4421-A18D-CF261F8AA98E";
paths = (
{
closed = 1;
nodes = (
"375 -264 CURVE SMOOTH",
"419 -264 OFFCURVE",
"465 -246 OFFCURVE",
"494 -221 CURVE",
"457 -145 LINE",
"445 -155 OFFCURVE",
"428 -166 OFFCURVE",
"409 -166 CURVE SMOOTH",
"381 -166 OFFCURVE",
"354 -151 OFFCURVE",
"354 -116 CURVE SMOOTH",
"354 -75 OFFCURVE",
"381 -27 OFFCURVE",
"445 1 CURVE SMOOTH",
"573 57 OFFCURVE",
"652 179 OFFCURVE",
"652 384 CURVE SMOOTH",
"652 631 OFFCURVE",
"528 776 OFFCURVE",
"350 776 CURVE SMOOTH",
"172 776 OFFCURVE",
"48 631 OFFCURVE",
"48 384 CURVE SMOOTH",
"48 175 OFFCURVE",
"139 7 OFFCURVE",
"322 -13 CURVE",
"284 -44 OFFCURVE",
"243 -92 OFFCURVE",
"243 -154 CURVE SMOOTH",
"243 -226 OFFCURVE",
"300 -264 OFFCURVE"
);
},
{
closed = 1;
nodes = (
"350 113 CURVE SMOOTH",
"260 113 OFFCURVE",
"202 203 OFFCURVE",
"202 384 CURVE SMOOTH",
"202 552 OFFCURVE",
"260 646 OFFCURVE",
"350 646 CURVE SMOOTH",
"441 646 OFFCURVE",
"499 552 OFFCURVE",
"499 384 CURVE SMOOTH",
"499 203 OFFCURVE",
"441 113 OFFCURVE"
);
}
);
width = 700;
}
);
unicode = 01EA;
},
{
glyphname = Oslash;
lastChange = "2015-12-16 11:53:30 +0000";
layers = (
{
anchors = (
{
name = aboveUC;
position = "{350, 791}";
},
{
name = baseLC;
position = "{350, 0}";
}
);
components = (
{
name = O;
}
);
layerId = "8A30092D-5DE4-432F-B813-0E7E8F54CAFB";
paths = (
{
closed = 1;
nodes = (
"58 -1 LINE",
"98 -29 LINE",
"639 768 LINE",
"598 797 LINE"
);
}
);
width = 700;
},
{
anchors = (
{
name = aboveUC;
position = "{350, 785}";
},
{
name = baseLC;
position = "{350, 0}";
}
);
components = (
{
name = O;
}
);
layerId = "70058D0C-C9A7-4421-A18D-CF261F8AA98E";
paths = (
{
closed = 1;
nodes = (
"31 8 LINE",
"111 -44 LINE",
"668 753 LINE",
"588 806 LINE"
);
}
);
width = 700;
}
);
unicode = 00D8;
},
{
glyphname = OE;
lastChange = "2015-12-16 11:53:30 +0000";
layers = (
{
anchors = (
{
name = aboveUC;
position = "{450, 791}";
},
{
name = baseLC;
position = "{537, 0}";
}
);
layerId = "8A30092D-5DE4-432F-B813-0E7E8F54CAFB";
paths = (
{
closed = 1;
nodes = (
"349 0 CURVE SMOOTH",
"687 0 LINE",
"687 59 LINE",
"434 59 LINE",
"434 376 LINE",
"618 376 LINE",
"618 435 LINE",
"434 435 LINE",
"434 710 LINE",
"675 710 LINE",
"675 768 LINE",
"350 768 LINE SMOOTH",
"153 768 OFFCURVE",
"44 623 OFFCURVE",
"44 386 CURVE SMOOTH",
"44 150 OFFCURVE",
"152 0 OFFCURVE"
);
},
{
closed = 1;
nodes = (
"341 58 LINE SMOOTH",
"186 58 OFFCURVE",
"116 188 OFFCURVE",
"116 386 CURVE SMOOTH",
"116 585 OFFCURVE",
"186 711 OFFCURVE",
"341 711 CURVE SMOOTH",
"370 711 LINE",
"370 58 LINE"
);
}
);
width = 700;
},
{
anchors = (
{
name = aboveUC;
position = "{438, 785}";
},
{
name = baseLC;
position = "{508, 0}";
}
);
layerId = "70058D0C-C9A7-4421-A18D-CF261F8AA98E";
paths = (
{
closed = 1;
nodes = (
"338 0 CURVE SMOOTH",
"692 0 LINE",
"692 126 LINE",
"483 126 LINE",
"483 331 LINE",
"632 331 LINE",
"632 457 LINE",
"483 457 LINE",
"483 636 LINE",
"680 636 LINE",
"680 762 LINE",
"346 762 LINE SMOOTH",
"158 762 OFFCURVE",
"27 640 OFFCURVE",
"27 384 CURVE SMOOTH",
"27 128 OFFCURVE",
"154 0 OFFCURVE"
);
},
{
closed = 1;
nodes = (
"327 121 LINE SMOOTH",
"235 121 OFFCURVE",
"181 197 OFFCURVE",
"181 384 CURVE SMOOTH",
"181 571 OFFCURVE",
"235 641 OFFCURVE",
"327 641 CURVE SMOOTH",
"349 641 LINE",
"349 121 LINE"
);
}
);
width = 700;
}
);
unicode = 0152;
},
{
glyphname = P;
lastChange = "2015-12-16 11:53:30 +0000";
layers = (
{
anchors = (
{
name = aboveUC;
position = "{373, 791}";
},
{
name = belowLC;
position = "{163, -23}";
}
);
layerId = "8A30092D-5DE4-432F-B813-0E7E8F54CAFB";
paths = (
{
closed = 1;
nodes = (
"132 0 LINE",
"200 0 LINE",
"200 321 LINE",
"348 321 LINE SMOOTH",
"518 321 OFFCURVE",
"625 395 OFFCURVE",
"625 550 CURVE SMOOTH",
"625 711 OFFCURVE",
"519 768 OFFCURVE",
"348 768 CURVE SMOOTH",
"132 768 LINE"
);
},
{
closed = 1;
nodes = (
"200 378 LINE",
"200 710 LINE",
"335 710 LINE SMOOTH",
"483 710 OFFCURVE",
"555 672 OFFCURVE",
"555 550 CURVE SMOOTH",
"555 429 OFFCURVE",
"484 378 OFFCURVE",
"335 378 CURVE SMOOTH"
);
}
);
width = 700;
},
{
anchors = (
{
name = aboveUC;
position = "{373, 785}";
},
{
name = belowLC;
position = "{163, -23}";
}
);
layerId = "70058D0C-C9A7-4421-A18D-CF261F8AA98E";
paths = (
{
closed = 1;
nodes = (
"97 0 LINE",
"246 0 LINE",
"246 271 LINE",
"355 271 LINE SMOOTH",
"518 271 OFFCURVE",
"648 350 OFFCURVE",
"648 523 CURVE SMOOTH",
"648 702 OFFCURVE",
"521 762 OFFCURVE",
"355 762 CURVE SMOOTH",
"97 762 LINE"
);
},
{
closed = 1;
nodes = (
"246 391 LINE",
"246 642 LINE",
"344 642 LINE SMOOTH",
"447 642 OFFCURVE",
"500 612 OFFCURVE",
"500 523 CURVE SMOOTH",
"500 435 OFFCURVE",
"450 391 OFFCURVE",
"344 391 CURVE SMOOTH"
);
}
);
width = 700;
}
);
unicode = 0050;
},
{
glyphname = Thorn;
lastChange = "2015-12-16 11:53:30 +0000";
layers = (
{
layerId = "8A30092D-5DE4-432F-B813-0E7E8F54CAFB";
paths = (
{
closed = 1;
nodes = (
"131 0 LINE",
"200 0 LINE",
"200 188 LINE",
"349 188 LINE SMOOTH",
"519 188 OFFCURVE",
"626 261 OFFCURVE",
"626 415 CURVE SMOOTH",
"626 577 OFFCURVE",
"520 633 OFFCURVE",
"349 633 CURVE SMOOTH",
"200 633 LINE",
"200 768 LINE",
"131 768 LINE"
);
},
{
closed = 1;
nodes = (
"200 244 LINE",
"200 576 LINE",
"336 576 LINE SMOOTH",
"485 576 OFFCURVE",
"557 537 OFFCURVE",
"557 415 CURVE SMOOTH",
"557 295 OFFCURVE",
"486 244 OFFCURVE",
"336 244 CURVE SMOOTH"
);
}
);
width = 700;
},
{
layerId = "70058D0C-C9A7-4421-A18D-CF261F8AA98E";
paths = (
{
closed = 1;
nodes = (
"95 0 LINE",
"245 0 LINE",
"245 153 LINE",
"360 153 LINE SMOOTH",
"523 153 OFFCURVE",
"653 230 OFFCURVE",
"653 403 CURVE SMOOTH",
"653 584 OFFCURVE",
"526 642 OFFCURVE",
"360 642 CURVE SMOOTH",
"245 642 LINE",
"245 762 LINE",
"95 762 LINE"
);
},
{
closed = 1;
nodes = (
"245 272 LINE",
"245 523 LINE",
"349 523 LINE SMOOTH",
"452 523 OFFCURVE",
"505 492 OFFCURVE",
"505 403 CURVE SMOOTH",
"505 316 OFFCURVE",
"455 272 OFFCURVE",
"349 272 CURVE SMOOTH"
);
}
);
width = 700;
}
);
unicode = 00DE;
},
{
glyphname = Q;
lastChange = "2015-12-16 11:53:30 +0000";
layers = (
{
anchors = (
{
name = aboveUC;
position = "{351, 804}";
}
);
layerId = "8A30092D-5DE4-432F-B813-0E7E8F54CAFB";
paths = (
{
closed = 1;
nodes = (
"350 -14 CURVE SMOOTH",
"520 -14 OFFCURVE",
"636 141 OFFCURVE",
"636 386 CURVE SMOOTH",
"636 632 OFFCURVE",
"520 782 OFFCURVE",
"350 782 CURVE SMOOTH",
"180 782 OFFCURVE",
"64 632 OFFCURVE",
"64 386 CURVE SMOOTH",
"64 141 OFFCURVE",
"180 -14 OFFCURVE"
);
},
{
closed = 1;
nodes = (
"350 44 CURVE SMOOTH",
"218 44 OFFCURVE",
"134 177 OFFCURVE",
"134 386 CURVE SMOOTH",
"134 593 OFFCURVE",
"218 723 OFFCURVE",
"350 723 CURVE SMOOTH",
"482 723 OFFCURVE",
"566 593 OFFCURVE",
"566 386 CURVE SMOOTH",
"566 177 OFFCURVE",
"482 44 OFFCURVE"
);
},
{
closed = 1;
nodes = (
"557 -183 CURVE SMOOTH",
"585 -183 OFFCURVE",
"609 -177 OFFCURVE",
"634 -170 CURVE",
"621 -111 LINE",
"607 -117 OFFCURVE",
"589 -121 OFFCURVE",
"566 -121 CURVE SMOOTH",
"471 -121 OFFCURVE",
"407 -77 OFFCURVE",
"384 1 CURVE",
"311 -3 LINE",
"345 -105 OFFCURVE",
"424 -183 OFFCURVE"
);
}
);
width = 700;
},
{
anchors = (
{
name = aboveUC;
position = "{355, 790}";
}
);
layerId = "70058D0C-C9A7-4421-A18D-CF261F8AA98E";
paths = (
{
closed = 1;
nodes = (
"350 -14 CURVE SMOOTH",
"528 -14 OFFCURVE",
"650 127 OFFCURVE",
"650 384 CURVE SMOOTH",
"650 636 OFFCURVE",
"528 776 OFFCURVE",
"350 776 CURVE SMOOTH",
"171 776 OFFCURVE",
"49 636 OFFCURVE",
"49 384 CURVE SMOOTH",
"49 127 OFFCURVE",
"171 -14 OFFCURVE"
);
},
{
closed = 1;
nodes = (
"350 109 CURVE SMOOTH",
"259 109 OFFCURVE",
"202 201 OFFCURVE",
"202 384 CURVE SMOOTH",
"202 552 OFFCURVE",
"259 647 OFFCURVE",
"350 647 CURVE SMOOTH",
"441 647 OFFCURVE",
"497 552 OFFCURVE",
"497 384 CURVE SMOOTH",
"497 201 OFFCURVE",
"441 109 OFFCURVE"
);
},
{
closed = 1;
nodes = (
"566 -203 CURVE SMOOTH",
"610 -203 OFFCURVE",
"645 -193 OFFCURVE",
"670 -180 CURVE",
"644 -67 LINE",
"628 -74 OFFCURVE",
"607 -81 OFFCURVE",
"584 -81 CURVE SMOOTH",
"515 -81 OFFCURVE",
"451 -54 OFFCURVE",
"429 18 CURVE",
"276 3 LINE",
"319 -117 OFFCURVE",
"418 -203 OFFCURVE"
);
}
);
width = 700;
}
);
unicode = 0051;
},
{
glyphname = R;
lastChange = "2015-12-16 11:53:30 +0000";
layers = (
{
anchors = (
{
name = aboveUC;
position = "{356, 791}";
},
{
name = baseLC;
position = "{157, 0}";
},
{
name = belowLC;
position = "{373, -23}";
}
);
layerId = "8A30092D-5DE4-432F-B813-0E7E8F54CAFB";
paths = (
{
closed = 1;
nodes = (
"130 0 LINE",
"198 0 LINE",
"198 343 LINE",
"355 343 LINE SMOOTH",
"509 343 OFFCURVE",
"613 416 OFFCURVE",
"613 560 CURVE SMOOTH",
"613 712 OFFCURVE",
"509 768 OFFCURVE",
"355 768 CURVE SMOOTH",
"130 768 LINE"
);
},
{
closed = 1;
nodes = (
"199 399 LINE",
"199 710 LINE",
"342 710 LINE SMOOTH",
"472 710 OFFCURVE",
"544 671 OFFCURVE",
"544 560 CURVE SMOOTH",
"544 451 OFFCURVE",
"472 399 OFFCURVE",
"342 399 CURVE SMOOTH"
);
},
{
closed = 1;
nodes = (
"341 362 LINE",
"552 0 LINE",
"632 0 LINE",
"401 390 LINE"
);
}
);
width = 700;
},
{
anchors = (
{
name = aboveUC;
position = "{352, 785}";
},
{
name = baseLC;
position = "{165, 0}";
},
{
name = belowLC;
position = "{373, -23}";
}
);
layerId = "70058D0C-C9A7-4421-A18D-CF261F8AA98E";
paths = (
{
closed = 1;
nodes = (
"92 0 LINE",
"241 0 LINE",
"241 288 LINE",
"352 288 LINE SMOOTH",
"512 288 OFFCURVE",
"638 363 OFFCURVE",
"638 531 CURVE SMOOTH",
"638 706 OFFCURVE",
"512 762 OFFCURVE",
"352 762 CURVE SMOOTH",
"92 762 LINE"
);
},
{
closed = 1;
nodes = (
"241 408 LINE",
"241 642 LINE",
"338 642 LINE SMOOTH",
"436 642 OFFCURVE",
"490 614 OFFCURVE",
"490 531 CURVE SMOOTH",
"490 449 OFFCURVE",
"436 408 OFFCURVE",
"338 408 CURVE SMOOTH"
);
},
{
closed = 1;
nodes = (
"324 328 LINE",
"502 0 LINE",
"670 0 LINE",
"430 421 LINE"
);
}
);
width = 700;
}
);
unicode = 0052;
},
{
glyphname = S;
lastChange = "2015-12-16 11:53:30 +0000";
layers = (
{
anchors = (
{
name = aboveUC;
position = "{367, 791}";
},
{
name = baseLC;
position = "{378, 0}";
},
{
name = belowLC;
position = "{369, -23}";
}
);
layerId = "8A30092D-5DE4-432F-B813-0E7E8F54CAFB";
paths = (
{
closed = 1;
nodes = (
"358 -14 CURVE SMOOTH",
"518 -14 OFFCURVE",
"620 77 OFFCURVE",
"620 197 CURVE SMOOTH",
"620 313 OFFCURVE",
"541 362 OFFCURVE",
"448 400 CURVE SMOOTH",
"335 450 LINE SMOOTH",
"273 476 OFFCURVE",
"194 507 OFFCURVE",
"194 592 CURVE SMOOTH",
"194 669 OFFCURVE",
"262 720 OFFCURVE",
"363 720 CURVE SMOOTH",
"444 720 OFFCURVE",
"507 690 OFFCURVE",
"555 644 CURVE",
"593 689 LINE",
"542 740 OFFCURVE",
"461 782 OFFCURVE",
"365 782 CURVE SMOOTH",
"226 782 OFFCURVE",
"124 701 OFFCURVE",
"124 587 CURVE SMOOTH",
"124 474 OFFCURVE",
"217 424 OFFCURVE",
"291 394 CURVE SMOOTH",
"405 343 LINE SMOOTH",
"485 309 OFFCURVE",
"550 281 OFFCURVE",
"550 190 CURVE SMOOTH",
"550 106 OFFCURVE",
"478 48 OFFCURVE",
"361 48 CURVE SMOOTH",
"269 48 OFFCURVE",
"186 87 OFFCURVE",
"128 148 CURVE",
"85 101 LINE",
"151 32 OFFCURVE",
"244 -14 OFFCURVE"
);
}
);
width = 700;
},
{
anchors = (
{
name = aboveUC;
position = "{371, 785}";
},
{
name = baseLC;
position = "{361, 0}";
},
{
name = belowLC;
position = "{357, -23}";
}
);
layerId = "70058D0C-C9A7-4421-A18D-CF261F8AA98E";
paths = (
{
closed = 1;
nodes = (
"350 -14 CURVE SMOOTH",
"532 -14 OFFCURVE",
"637 91 OFFCURVE",
"637 217 CURVE SMOOTH",
"637 325 OFFCURVE",
"571 385 OFFCURVE",
"473 422 CURVE SMOOTH",
"375 464 LINE SMOOTH",
"305 491 OFFCURVE",
"248 511 OFFCURVE",
"248 565 CURVE SMOOTH",
"248 616 OFFCURVE",
"293 646 OFFCURVE",
"359 646 CURVE SMOOTH",
"435 646 OFFCURVE",
"485 623 OFFCURVE",
"538 583 CURVE",
"614 677 LINE",
"549 739 OFFCURVE",
"459 776 OFFCURVE",
"367 776 CURVE SMOOTH",
"207 776 OFFCURVE",
"96 679 OFFCURVE",
"96 556 CURVE SMOOTH",
"96 445 OFFCURVE",
"177 383 OFFCURVE",
"259 351 CURVE SMOOTH",
"361 308 LINE SMOOTH",
"435 277 OFFCURVE",
"484 260 OFFCURVE",
"484 198 CURVE SMOOTH",
"484 150 OFFCURVE",
"442 116 OFFCURVE",
"360 116 CURVE SMOOTH",
"282 116 OFFCURVE",
"209 150 OFFCURVE",
"151 200 CURVE",
"64 97 LINE",
"142 25 OFFCURVE",
"245 -14 OFFCURVE"
);
}
);
width = 700;
}
);
unicode = 0053;
},
{
glyphname = Germandbls;
lastChange = "2015-12-16 11:53:30 +0000";
layers = (
{
layerId = "8A30092D-5DE4-432F-B813-0E7E8F54CAFB";
paths = (
{
closed = 1;
nodes = (
"453 -14 CURVE SMOOTH",
"577 -14 OFFCURVE",
"659 76 OFFCURVE",
"659 195 CURVE SMOOTH",
"659 307 OFFCURVE",
"600 389 OFFCURVE",
"408 430 CURVE",
"410 396 LINE",
"593 614 LINE",
"554 715 OFFCURVE",
"482 782 OFFCURVE",
"357 782 CURVE SMOOTH",
"204 782 OFFCURVE",
"98 675 OFFCURVE",
"98 497 CURVE SMOOTH",
"98 0 LINE",
"167 0 LINE",
"167 481 LINE SMOOTH",
"167 647 OFFCURVE",
"245 722 OFFCURVE",
"356 722 CURVE SMOOTH",
"443 722 OFFCURVE",
"501 679 OFFCURVE",
"530 589 CURVE",
"540 644 LINE",
"357 426 LINE",
"362 377 LINE",
"545 344 OFFCURVE",
"586 277 OFFCURVE",
"586 193 CURVE SMOOTH",
"586 107 OFFCURVE",
"536 45 OFFCURVE",
"451 45 CURVE SMOOTH",
"388 45 OFFCURVE",
"342 70 OFFCURVE",
"300 120 CURVE",
"263 75 LINE",
"307 18 OFFCURVE",
"378 -14 OFFCURVE"
);
}
);
width = 700;
},
{
layerId = "70058D0C-C9A7-4421-A18D-CF261F8AA98E";
paths = (
{
closed = 1;
nodes = (
"456 -14 CURVE SMOOTH",
"601 -14 OFFCURVE",
"672 78 OFFCURVE",
"672 197 CURVE SMOOTH",
"672 306 OFFCURVE",
"619 376 OFFCURVE",
"475 434 CURVE",
"481 390 LINE",
"612 572 LINE",
"580 694 OFFCURVE",
"491 776 OFFCURVE",
"352 776 CURVE SMOOTH",
"170 776 OFFCURVE",
"79 665 OFFCURVE",
"79 504 CURVE SMOOTH",
"79 0 LINE",
"229 0 LINE",
"229 482 LINE SMOOTH",
"229 599 OFFCURVE",
"275 654 OFFCURVE",
"353 654 CURVE SMOOTH",
"411 654 OFFCURVE",
"456 625 OFFCURVE",
"468 551 CURVE",
"483 607 LINE",
"349 422 LINE",
"360 333 LINE",
"477 306 OFFCURVE",
"516 256 OFFCURVE",
"516 198 CURVE SMOOTH",
"516 145 OFFCURVE",
"484 108 OFFCURVE",
"438 108 CURVE SMOOTH",
"399 108 OFFCURVE",
"368 123 OFFCURVE",
"339 155 CURVE",
"276 63 LINE",
"314 17 OFFCURVE",
"380 -14 OFFCURVE"
);
}
);
width = 700;
}
);
unicode = 1E9E;
},
{
glyphname = Schwa;
lastChange = "2015-12-16 11:53:30 +0000";
layers = (
{
anchors = (
{
name = aboveUC;
position = "{369, 791}";
},
{
name = baseLC;
position = "{361, 0}";
},
{
name = belowLC;
position = "{352, -23}";
},
{
name = ogonekUC;
position = "{361, 0}";
}
);
layerId = "8A30092D-5DE4-432F-B813-0E7E8F54CAFB";
paths = (
{
closed = 1;
nodes = (
"349 -14 CURVE SMOOTH",
"521 -14 OFFCURVE",
"637 142 OFFCURVE",
"637 386 CURVE SMOOTH",
"637.006 630 OFFCURVE",
"532 782 OFFCURVE",
"352 782 CURVE SMOOTH",
"265 782 OFFCURVE",
"198 744 OFFCURVE",
"153 695 CURVE",
"187 649 LINE",
"228 693 OFFCURVE",
"285 722 OFFCURVE",
"350 722 CURVE SMOOTH",
"493 722 OFFCURVE",
"569 593 OFFCURVE",
"569 386 CURVE SMOOTH",
"569 173 OFFCURVE",
"483 46 OFFCURVE",
"349 46 CURVE SMOOTH",
"219 46 OFFCURVE",
"140 169 OFFCURVE",
"140 386 CURVE",
"115 343 LINE",
"582 343 LINE",
"582 398 LINE",
"74 398 LINE",
"73 393 OFFCURVE",
"73 389 OFFCURVE",
"73 383 CURVE SMOOTH",
"73 149 OFFCURVE",
"178 -14 OFFCURVE"
);
}
);
width = 700;
},
{
anchors = (
{
name = aboveUC;
position = "{371, 785}";
},
{
name = baseLC;
position = "{361, 0}";
},
{
name = belowLC;
position = "{358, -23}";
},
{
name = ogonekUC;
position = "{361, 0}";
}
);
layerId = "70058D0C-C9A7-4421-A18D-CF261F8AA98E";
paths = (
{
closed = 1;
nodes = (
"352 -14 CURVE SMOOTH",
"528 -14 OFFCURVE",
"650 135 OFFCURVE",
"650 382 CURVE SMOOTH",
"650 630 OFFCURVE",
"532 776 OFFCURVE",
"350 776 CURVE SMOOTH",
"255 776 OFFCURVE",
"185 740 OFFCURVE",
"135 691 CURVE",
"204 588 LINE",
"237 621 OFFCURVE",
"282 646 OFFCURVE",
"338 646 CURVE SMOOTH",
"445 646 OFFCURVE",
"501 561 OFFCURVE",
"501 382 CURVE SMOOTH",
"501 187 OFFCURVE",
"440 116 OFFCURVE",
"352 116 CURVE SMOOTH",
"263 116 OFFCURVE",
"206 186 OFFCURVE",
"206 382 CURVE",
"182 315 LINE",
"538 315 LINE",
"538 426 LINE",
"64 426 LINE",
"62 410 OFFCURVE",
"61 393 OFFCURVE",
"61 378 CURVE SMOOTH",
"61 135 OFFCURVE",
"180 -14 OFFCURVE"
);
}
);
width = 700;
}
);
unicode = 018F;
},
{
glyphname = T;
lastChange = "2015-12-16 11:53:30 +0000";
layers = (
{
anchors = (
{
name = aboveUC;
position = "{350, 791}";
},
{
name = baseLC;
position = "{350, 0}";
},
{
name = belowLC;
position = "{350, -23}";
}
);
layerId = "8A30092D-5DE4-432F-B813-0E7E8F54CAFB";
paths = (
{
closed = 1;
nodes = (
"316 0 LINE",
"384 0 LINE",
"384 709 LINE",
"646 709 LINE",
"646 768 LINE",
"53 768 LINE",
"53 709 LINE",
"316 709 LINE"
);
}
);
width = 700;
},
{
anchors = (
{
name = aboveUC;
position = "{350, 785}";
},
{
name = baseLC;
position = "{350, 0}";
},
{
name = belowLC;
position = "{350, -23}";
}
);
layerId = "70058D0C-C9A7-4421-A18D-CF261F8AA98E";
paths = (
{
closed = 1;
nodes = (
"275 0 LINE",
"424 0 LINE",
"424 636 LINE",
"659 636 LINE",
"659 762 LINE",
"39 762 LINE",
"39 636 LINE",
"275 636 LINE"
);
}
);
width = 700;
}
);
unicode = 0054;
},
{
glyphname = Tbar;
lastChange = "2015-12-16 11:53:30 +0000";
layers = (
{
anchors = (
{
name = aboveUC;
position = "{350, 791}";
},
{
name = belowLC;
position = "{350, -23}";
}
);
components = (
{
name = T;
}
);
layerId = "8A30092D-5DE4-432F-B813-0E7E8F54CAFB";
paths = (
{
closed = 1;
nodes = (
"147 378 LINE",
"552 378 LINE",
"552 422 LINE",
"248 422 LINE",
"147 419 LINE"
);
}
);
width = 700;
},
{
anchors = (
{
name = aboveUC;
position = "{350, 785}";
},
{
name = belowLC;
position = "{350, -23}";
}
);
components = (
{
name = T;
}
);
layerId = "70058D0C-C9A7-4421-A18D-CF261F8AA98E";
paths = (
{
closed = 1;
nodes = (
"117 342 LINE",
"583 342 LINE",
"583 416 LINE",
"225 416 LINE",
"117 411 LINE"
);
}
);
width = 700;
}
);
unicode = 0166;
},
{
glyphname = U;
lastChange = "2015-12-16 11:53:30 +0000";
layers = (
{
anchors = (
{
name = aboveUC;
position = "{350, 791}";
},
{
name = baseLC;
position = "{350, 0}";
},
{
name = belowLC;
position = "{350, -23}";
},
{
name = hornLC;
position = "{582, 779}";
},
{
name = ogonekUC;
position = "{350, 0}";
}
);
layerId = "8A30092D-5DE4-432F-B813-0E7E8F54CAFB";
paths = (
{
closed = 1;
nodes = (
"350 -14 CURVE SMOOTH",
"486 -14 OFFCURVE",
"599 60 OFFCURVE",
"599 288 CURVE SMOOTH",
"599 768 LINE",
"534 768 LINE",
"534 291 LINE SMOOTH",
"534 107 OFFCURVE",
"450 48 OFFCURVE",
"350 48 CURVE SMOOTH",
"251 48 OFFCURVE",
"168 107 OFFCURVE",
"168 291 CURVE SMOOTH",
"168 768 LINE",
"99 768 LINE",
"99 288 LINE SMOOTH",
"99 60 OFFCURVE",
"214 -14 OFFCURVE"
);
}
);
width = 700;
},
{
anchors = (
{
name = aboveUC;
position = "{350, 785}";
},
{
name = baseLC;
position = "{350, 0}";
},
{
name = belowLC;
position = "{350, -23}";
},
{
name = hornLC;
position = "{594, 773}";
},
{
name = ogonekUC;
position = "{350, 0}";
}
);
layerId = "70058D0C-C9A7-4421-A18D-CF261F8AA98E";
paths = (
{
closed = 1;
nodes = (
"351 -14 CURVE SMOOTH",
"525 -14 OFFCURVE",
"619 88 OFFCURVE",
"619 292 CURVE SMOOTH",
"619 762 LINE",
"475 762 LINE",
"475 279 LINE SMOOTH",
"475 167 OFFCURVE",
"429 116 OFFCURVE",
"351 116 CURVE SMOOTH",
"274 116 OFFCURVE",
"230 167 OFFCURVE",
"230 279 CURVE SMOOTH",
"230 762 LINE",
"80 762 LINE",
"80 292 LINE SMOOTH",
"80 88 OFFCURVE",
"177 -14 OFFCURVE"
);
}
);
width = 700;
}
);
unicode = 0055;
},
{
glyphname = Uhorn;
lastChange = "2015-12-16 11:53:30 +0000";
layers = (
{
anchors = (
{
name = aboveUC;
position = "{350, 791}";
},
{
name = belowLC;
position = "{350, -23}";
}
);
components = (
{
name = U;
}
);
layerId = "8A30092D-5DE4-432F-B813-0E7E8F54CAFB";
paths = (
{
closed = 1;
nodes = (
"598 733 LINE",
"663 749 OFFCURVE",
"721 786 OFFCURVE",
"721 873 CURVE SMOOTH",
"721 903 OFFCURVE",
"712 932 OFFCURVE",
"697 958 CURVE",
"641 932 LINE",
"651 912 OFFCURVE",
"657 888 OFFCURVE",
"657 867 CURVE SMOOTH",
"657 805 OFFCURVE",
"626 777 OFFCURVE",
"555 768 CURVE"
);
}
);
width = 700;
},
{
anchors = (
{
name = aboveUC;
position = "{350, 785}";
},
{
name = belowLC;
position = "{350, -23}";
}
);
components = (
{
name = U;
}
);
layerId = "70058D0C-C9A7-4421-A18D-CF261F8AA98E";
paths = (
{
closed = 1;
nodes = (
"619 705 LINE",
"704 721 OFFCURVE",
"760 767 OFFCURVE",
"760 861 CURVE SMOOTH",
"760 904 OFFCURVE",
"744 944 OFFCURVE",
"727 970 CURVE",
"615 924 LINE",
"624 905 OFFCURVE",
"633 878 OFFCURVE",
"633 851 CURVE SMOOTH",
"633 781 OFFCURVE",
"594 765 OFFCURVE",
"543 762 CURVE"
);
}
);
width = 700;
}
);
unicode = 01AF;
},
{
glyphname = Uogonek;
lastChange = "2015-12-16 11:53:30 +0000";
layers = (
{
anchors = (
{
name = aboveUC;
position = "{350, 791}";
}
);
layerId = "8A30092D-5DE4-432F-B813-0E7E8F54CAFB";
paths = (
{
closed = 1;
nodes = (
"368 -262 CURVE SMOOTH",
"412 -262 OFFCURVE",
"442 -244 OFFCURVE",
"467 -220 CURVE",
"441 -183 LINE",
"426 -198 OFFCURVE",
"407 -211 OFFCURVE",
"379 -211 CURVE SMOOTH",
"344 -211 OFFCURVE",
"310 -190 OFFCURVE",
"310 -145 CURVE SMOOTH",
"310 -94 OFFCURVE",
"343 -39 OFFCURVE",
"434 -3 CURVE SMOOTH",
"542 38 OFFCURVE",
"599 116 OFFCURVE",
"599 288 CURVE SMOOTH",
"599 768 LINE",
"534 768 LINE",
"534 291 LINE SMOOTH",
"534 107 OFFCURVE",
"449 48 OFFCURVE",
"349 48 CURVE SMOOTH",
"249 48 OFFCURVE",
"168 107 OFFCURVE",
"168 291 CURVE SMOOTH",
"168 768 LINE",
"99 768 LINE",
"99 288 LINE SMOOTH",
"99 83 OFFCURVE",
"193 -7 OFFCURVE",
"334 -14 CURVE",
"297 -45 OFFCURVE",
"254 -93 OFFCURVE",
"254 -158 CURVE SMOOTH",
"254 -228 OFFCURVE",
"302 -262 OFFCURVE"
);
}
);
width = 700;
},
{
anchors = (
{
name = aboveUC;
position = "{350, 785}";
}
);
layerId = "70058D0C-C9A7-4421-A18D-CF261F8AA98E";
paths = (
{
closed = 1;
nodes = (
"374 -264 CURVE SMOOTH",
"418 -264 OFFCURVE",
"464 -246 OFFCURVE",
"494 -221 CURVE",
"457 -145 LINE",
"445 -155 OFFCURVE",
"428 -166 OFFCURVE",
"409 -166 CURVE SMOOTH",
"380 -166 OFFCURVE",
"353 -151 OFFCURVE",
"353 -116 CURVE SMOOTH",
"353 -78 OFFCURVE",
"374 -36 OFFCURVE",
"467 6 CURVE SMOOTH",
"569 51 OFFCURVE",
"619 140 OFFCURVE",
"619 292 CURVE SMOOTH",
"619 762 LINE",
"475 762 LINE",
"475 279 LINE SMOOTH",
"475 167 OFFCURVE",
"429 116 OFFCURVE",
"351 116 CURVE SMOOTH",
"273 116 OFFCURVE",
"230 167 OFFCURVE",
"230 279 CURVE SMOOTH",
"230 762 LINE",
"80 762 LINE",
"80 292 LINE SMOOTH",
"80 102 OFFCURVE",
"165 -1 OFFCURVE",
"319 -13 CURVE",
"295 -34 OFFCURVE",
"243 -83 OFFCURVE",
"243 -154 CURVE SMOOTH",
"243 -226 OFFCURVE",
"300 -264 OFFCURVE"
);
}
);
width = 700;
}
);
unicode = 0172;
},
{
glyphname = V;
lastChange = "2015-12-16 11:53:30 +0000";
layers = (
{
anchors = (
{
name = aboveUC;
position = "{350, 791}";
},
{
name = belowLC;
position = "{352, -23}";
}
);
layerId = "8A30092D-5DE4-432F-B813-0E7E8F54CAFB";
paths = (
{
closed = 1;
nodes = (
"312 0 LINE",
"389 0 LINE",
"637 768 LINE",
"567 768 LINE",
"432 331 LINE SMOOTH",
"404 238 OFFCURVE",
"384 166 OFFCURVE",
"353 75 CURVE",
"349 75 LINE",
"319 166 OFFCURVE",
"299 238 OFFCURVE",
"271 331 CURVE SMOOTH",
"134 768 LINE",
"62 768 LINE"
);
}
);
width = 700;
},
{
anchors = (
{
name = aboveUC;
position = "{350, 785}";
},
{
name = belowLC;
position = "{351, -23}";
}
);
layerId = "70058D0C-C9A7-4421-A18D-CF261F8AA98E";
paths = (
{
closed = 1;
nodes = (
"261 0 LINE",
"440 0 LINE",
"673 762 LINE",
"520 762 LINE",
"420 390 LINE SMOOTH",
"397 304 OFFCURVE",
"380 229 OFFCURVE",
"356 144 CURVE",
"351 144 LINE",
"326 229 OFFCURVE",
"310 304 OFFCURVE",
"286 390 CURVE SMOOTH",
"185 762 LINE",
"27 762 LINE"
);
}
);
width = 700;
}
);
unicode = 0056;
},
{
glyphname = W;
lastChange = "2015-12-16 11:53:30 +0000";
layers = (
{
anchors = (
{
name = aboveUC;
position = "{350, 791}";
},
{
name = belowLC;
position = "{353, -23}";
}
);
layerId = "8A30092D-5DE4-432F-B813-0E7E8F54CAFB";
paths = (
{
closed = 1;
nodes = (
"138 0 LINE",
"217 0 LINE",
"315 352 LINE SMOOTH",
"328 397 OFFCURVE",
"338 442 OFFCURVE",
"349 488 CURVE",
"352 488 LINE",
"363 442 OFFCURVE",
"371 397 OFFCURVE",
"384 352 CURVE SMOOTH",
"485 0 LINE",
"565 0 LINE",
"684 768 LINE",
"621 768 LINE",
"549 258 LINE",
"542 196 OFFCURVE",
"533 134 OFFCURVE",
"527 72 CURVE",
"522 72 LINE",
"505 134 OFFCURVE",
"487 197 OFFCURVE",
"472 258 CURVE SMOOTH",
"380 569 LINE",
"324 569 LINE",
"233 258 LINE SMOOTH",
"217 196 OFFCURVE",
"199 134 OFFCURVE",
"181 72 CURVE",
"178 72 LINE",
"172 134 OFFCURVE",
"162 196 OFFCURVE",
"156 258 CURVE SMOOTH",
"81 768 LINE",
"14 768 LINE"
);
}
);
width = 700;
},
{
anchors = (
{
name = aboveUC;
position = "{350, 785}";
},
{
name = belowLC;
position = "{351, -23}";
}
);
layerId = "70058D0C-C9A7-4421-A18D-CF261F8AA98E";
paths = (
{
closed = 1;
nodes = (
"113 0 LINE",
"268 0 LINE",
"325 263 LINE SMOOTH",
"335 311 OFFCURVE",
"343 361 OFFCURVE",
"349 407 CURVE",
"352 407 LINE",
"357 361 OFFCURVE",
"365 311 OFFCURVE",
"376 263 CURVE SMOOTH",
"435 0 LINE",
"594 0 LINE",
"693 762 LINE",
"551 762 LINE",
"518 334 LINE",
"515 272 OFFCURVE",
"512 208 OFFCURVE",
"510 143 CURVE",
"505 143 LINE",
"492 208 OFFCURVE",
"474 273 OFFCURVE",
"463 334 CURVE SMOOTH",
"403 568 LINE",
"310 568 LINE",
"249 334 LINE SMOOTH",
"236 271 OFFCURVE",
"219 207 OFFCURVE",
"207 143 CURVE",
"202 143 LINE",
"200 207 OFFCURVE",
"196 270 OFFCURVE",
"194 334 CURVE SMOOTH",
"160 762 LINE",
"7 762 LINE"
);
}
);
width = 700;
}
);
unicode = 0057;
},
{
glyphname = X;
lastChange = "2015-12-16 11:53:30 +0000";
layers = (
{
anchors = (
{
name = aboveUC;
position = "{350, 791}";
},
{
name = baseLC;
position = "{576, 0}";
},
{
name = belowLC;
position = "{350, -23}";
}
);
layerId = "8A30092D-5DE4-432F-B813-0E7E8F54CAFB";
paths = (
{
closed = 1;
nodes = (
"79 0 LINE",
"150 0 LINE",
"277 225 LINE SMOOTH",
"298 264 OFFCURVE",
"318 301 OFFCURVE",
"343 347 CURVE",
"348 347 LINE",
"374 301 OFFCURVE",
"396 264 OFFCURVE",
"417 225 CURVE SMOOTH",
"545 0 LINE",
"620 0 LINE",
"390 393 LINE",
"604 768 LINE",
"533 768 LINE",
"414 552 LINE SMOOTH",
"394 517 OFFCURVE",
"379 488 OFFCURVE",
"357 444 CURVE",
"352 444 LINE",
"327 488 OFFCURVE",
"311 517 OFFCURVE",
"290 552 CURVE SMOOTH",
"170 768 LINE",
"94 768 LINE",
"309 397 LINE"
);
}
);
width = 700;
},
{
anchors = (
{
name = aboveUC;
position = "{350, 785}";
},
{
name = baseLC;
position = "{577, 0}";
},
{
name = belowLC;
position = "{350, -23}";
}
);
layerId = "70058D0C-C9A7-4421-A18D-CF261F8AA98E";
paths = (
{
closed = 1;
nodes = (
"34 0 LINE",
"193 0 LINE",
"283 170 LINE SMOOTH",
"302 209 OFFCURVE",
"320 248 OFFCURVE",
"340 294 CURVE",
"345 294 LINE",
"368 248 OFFCURVE",
"387 209 OFFCURVE",
"408 170 CURVE SMOOTH",
"500 0 LINE",
"667 0 LINE",
"444 385 LINE",
"653 762 LINE",
"494 762 LINE",
"414 602 LINE SMOOTH",
"398 567 OFFCURVE",
"381 530 OFFCURVE",
"362 483 CURVE",
"357 483 LINE",
"334 530 OFFCURVE",
"316 567 OFFCURVE",
"298 602 CURVE SMOOTH",
"214 762 LINE",
"47 762 LINE",
"257 392 LINE"
);
}
);
width = 700;
}
);
unicode = 0058;
},
{
glyphname = Y;
lastChange = "2015-12-16 11:53:30 +0000";
layers = (
{
anchors = (
{
name = aboveUC;
position = "{350, 791}";
},
{
name = belowLC;
position = "{350, -23}";
},
{
name = ogonekUC;
position = "{350, 0}";
}
);
layerId = "8A30092D-5DE4-432F-B813-0E7E8F54CAFB";
paths = (
{
closed = 1;
nodes = (
"315 0 LINE",
"384 0 LINE",
"384 279 LINE",
"645 768 LINE",
"576 768 LINE",
"451 523 LINE SMOOTH",
"420 464 OFFCURVE",
"388 404 OFFCURVE",
"354 342 CURVE",
"350 342 LINE",
"316 404 OFFCURVE",
"287 464 OFFCURVE",
"254 523 CURVE SMOOTH",
"126 768 LINE",
"54 768 LINE",
"315 279 LINE"
);
}
);
width = 700;
},
{
anchors = (
{
name = aboveUC;
position = "{350, 785}";
},
{
name = belowLC;
position = "{350, -23}";
},
{
name = ogonekUC;
position = "{350, 0}";
}
);
layerId = "70058D0C-C9A7-4421-A18D-CF261F8AA98E";
paths = (
{
closed = 1;
nodes = (
"275 0 LINE",
"424 0 LINE",
"424 262 LINE",
"672 762 LINE",
"517 762 LINE",
"430 566 LINE SMOOTH",
"405 507 OFFCURVE",
"379 451 OFFCURVE",
"353 390 CURVE",
"349 390 LINE",
"323 451 OFFCURVE",
"299 507 OFFCURVE",
"274 565 CURVE SMOOTH",
"186 762 LINE",
"26 762 LINE",
"275 262 LINE"
);
}
);
width = 700;
}
);
unicode = 0059;
},
{
glyphname = Z;
lastChange = "2015-12-16 11:53:30 +0000";
layers = (
{
anchors = (
{
name = aboveUC;
position = "{369, 791}";
},
{
name = baseLC;
position = "{373, 0}";
},
{
name = belowLC;
position = "{371, -23}";
}
);
layerId = "8A30092D-5DE4-432F-B813-0E7E8F54CAFB";
paths = (
{
closed = 1;
nodes = (
"80 0 LINE",
"625 0 LINE",
"625 59 LINE",
"162 59 LINE",
"618 727 LINE",
"618 768 LINE",
"119 768 LINE",
"119 710 LINE",
"535 710 LINE",
"80 41 LINE"
);
}
);
width = 700;
},
{
anchors = (
{
name = aboveUC;
position = "{371, 785}";
},
{
name = baseLC;
position = "{373, 0}";
},
{
name = belowLC;
position = "{365, -23}";
}
);
layerId = "70058D0C-C9A7-4421-A18D-CF261F8AA98E";
paths = (
{
closed = 1;
nodes = (
"69 0 LINE",
"635 0 LINE",
"635 126 LINE",
"253 126 LINE",
"630 672 LINE",
"630 762 LINE",
"103 762 LINE",
"103 636 LINE",
"445 636 LINE",
"69 90 LINE"
);
}
);
width = 700;
}
);
unicode = 005A;
},
{
glyphname = Eng.a;
lastChange = "2015-12-16 11:53:30 +0000";
layers = (
{
anchors = (
{
name = aboveUC;
position = "{361, 791}";
}
);
layerId = "8A30092D-5DE4-432F-B813-0E7E8F54CAFB";
paths = (
{
closed = 1;
nodes = (
"471 -185 CURVE SMOOTH",
"558 -185 OFFCURVE",
"596 -126 OFFCURVE",
"596 -13 CURVE",
"596 768 LINE",
"531 768 LINE",
"531 321 LINE SMOOTH",
"531 245 OFFCURVE",
"537 166 OFFCURVE",
"540 92 CURVE",
"537 92 LINE",
"457 245 LINE",
"174 768 LINE",
"104 768 LINE",
"104 0 LINE",
"169 0 LINE",
"169 450 LINE SMOOTH",
"169 526 OFFCURVE",
"162 600 OFFCURVE",
"160 676 CURVE",
"163 676 LINE",
"244 523 LINE",
"526 0 LINE",
"533 0 LINE",
"533 -78 OFFCURVE",
"521 -125 OFFCURVE",
"466 -125 CURVE SMOOTH",
"446 -125 OFFCURVE",
"427 -119 OFFCURVE",
"414 -114 CURVE",
"399 -171 LINE",
"417 -178 OFFCURVE",
"443 -185 OFFCURVE"
);
}
);
width = 700;
},
{
anchors = (
{
name = aboveUC;
position = "{361, 785}";
}
);
layerId = "70058D0C-C9A7-4421-A18D-CF261F8AA98E";
paths = (
{
closed = 1;
nodes = (
"446 -206 CURVE SMOOTH",
"572 -206 OFFCURVE",
"617 -110 OFFCURVE",
"617 14 CURVE",
"617 762 LINE",
"474 762 LINE",
"474 455 LINE SMOOTH",
"474 368 OFFCURVE",
"488 268 OFFCURVE",
"494 189 CURVE",
"491 189 LINE",
"422 353 LINE",
"235 762 LINE",
"83 762 LINE",
"83 0 LINE",
"226 0 LINE",
"226 308 LINE SMOOTH",
"226 394 OFFCURVE",
"212 490 OFFCURVE",
"205 573 CURVE",
"209 573 LINE",
"278 410 LINE",
"465 0 LINE",
"474 0 LINE",
"474 -50 OFFCURVE",
"463 -87 OFFCURVE",
"422 -87 CURVE SMOOTH",
"406 -87 OFFCURVE",
"393 -83 OFFCURVE",
"379 -78 CURVE",
"351 -191 LINE",
"374 -199 OFFCURVE",
"403 -206 OFFCURVE"
);
}
);
width = 700;
}
);
},
{
glyphname = a;
lastChange = "2015-12-16 11:53:30 +0000";
layers = (
{
anchors = (
{
name = aboveLC;
position = "{373, 587}";
},
{
name = baseLC;
position = "{552, 0}";
},
{
name = belowLC;
position = "{350, -23}";
},
{
name = ogonekLC;
position = "{511, 0}";
}
);
layerId = "8A30092D-5DE4-432F-B813-0E7E8F54CAFB";
paths = (
{
closed = 1;
nodes = (
"298 -14 CURVE SMOOTH",
"379 -14 OFFCURVE",
"464 31 OFFCURVE",
"528 81 CURVE",
"531 81 LINE",
"537 0 LINE",
"593 0 LINE",
"593 354 LINE SMOOTH",
"593 481 OFFCURVE",
"526 576 OFFCURVE",
"375 576 CURVE SMOOTH",
"275 576 OFFCURVE",
"179 528 OFFCURVE",
"129 493 CURVE",
"158 446 LINE",
"206 479 OFFCURVE",
"284 520 OFFCURVE",
"365 520 CURVE SMOOTH",
"487 520 OFFCURVE",
"525 440 OFFCURVE",
"526 353 CURVE",
"226 328 OFFCURVE",
"103 268 OFFCURVE",
"103 142 CURVE SMOOTH",
"103 38 OFFCURVE",
"195 -14 OFFCURVE"
);
},
{
closed = 1;
nodes = (
"311 42 CURVE SMOOTH",
"239 42 OFFCURVE",
"169 71 OFFCURVE",
"169 146 CURVE SMOOTH",
"169 231 OFFCURVE",
"255 282 OFFCURVE",
"525 306 CURVE",
"525 137 LINE",
"451 75 OFFCURVE",
"381 42 OFFCURVE"
);
}
);
width = 700;
},
{
anchors = (
{
name = aboveLC;
position = "{373, 599}";
},
{
name = baseLC;
position = "{550, 0}";
},
{
name = belowLC;
position = "{350, -23}";
},
{
name = ogonekLC;
position = "{505, 0}";
}
);
layerId = "70058D0C-C9A7-4421-A18D-CF261F8AA98E";
paths = (
{
closed = 1;
nodes = (
"269 -14 CURVE SMOOTH",
"345 -14 OFFCURVE",
"420 24 OFFCURVE",
"480 69 CURVE",
"484 69 LINE",
"495 0 LINE",
"617 0 LINE",
"617 335 LINE SMOOTH",
"617 502 OFFCURVE",
"525 589 OFFCURVE",
"365 589 CURVE SMOOTH",
"266 589 OFFCURVE",
"173 553 OFFCURVE",
"100 510 CURVE",
"154 411 LINE",
"216 444 OFFCURVE",
"276 469 OFFCURVE",
"336 469 CURVE SMOOTH",
"424 469 OFFCURVE",
"462 428 OFFCURVE",
"467 368 CURVE",
"189 350 OFFCURVE",
"78 285 OFFCURVE",
"78 157 CURVE SMOOTH",
"78 58 OFFCURVE",
"155 -14 OFFCURVE"
);
},
{
closed = 1;
nodes = (
"314 102 CURVE SMOOTH",
"261 102 OFFCURVE",
"221 123 OFFCURVE",
"221 168 CURVE SMOOTH",
"221 225 OFFCURVE",
"276 265 OFFCURVE",
"467 277 CURVE",
"467 166 LINE",
"419 128 OFFCURVE",
"370 102 OFFCURVE"
);
}
);
width = 700;
}
);
unicode = 0061;
},
{
glyphname = alphalatin;
lastChange = "2015-12-16 11:53:30 +0000";
layers = (
{
anchors = (
{
name = aboveLC;
position = "{352, 587}";
},
{
name = baseLC;
position = "{542, 0}";
},
{
name = belowLC;
position = "{352, -23}";
}
);
layerId = "8A30092D-5DE4-432F-B813-0E7E8F54CAFB";
paths = (
{
closed = 1;
nodes = (
"322 -14 CURVE SMOOTH",
"397 -14 OFFCURVE",
"469 30 OFFCURVE",
"517 80 CURVE",
"519 80 LINE",
"526 0 LINE",
"582 0 LINE",
"582 562 LINE",
"527 562 LINE",
"520 498 LINE",
"518 498 LINE",
"463 548 OFFCURVE",
"407 576 OFFCURVE",
"338 576 CURVE SMOOTH",
"199 576 OFFCURVE",
"76 462 OFFCURVE",
"76 281 CURVE SMOOTH",
"76 92 OFFCURVE",
"176 -14 OFFCURVE"
);
},
{
closed = 1;
nodes = (
"334 44 CURVE SMOOTH",
"215 44 OFFCURVE",
"145 137 OFFCURVE",
"145 281 CURVE SMOOTH",
"144.994 416.994 OFFCURVE",
"234 519 OFFCURVE",
"345 519 CURVE SMOOTH",
"401 519 OFFCURVE",
"456 497 OFFCURVE",
"514 442 CURVE",
"514 140 LINE",
"457 77 OFFCURVE",
"396 44 OFFCURVE"
);
}
);
width = 700;
},
{
anchors = (
{
name = aboveLC;
position = "{358, 599}";
},
{
name = baseLC;
position = "{544, 0}";
},
{
name = belowLC;
position = "{358, -23}";
}
);
layerId = "70058D0C-C9A7-4421-A18D-CF261F8AA98E";
paths = (
{
closed = 1;
nodes = (
"303 -14 CURVE SMOOTH",
"364 -14 OFFCURVE",
"428 20 OFFCURVE",
"471 64 CURVE",
"475 64 LINE",
"486 0 LINE",
"608 0 LINE",
"608 575 LINE",
"491 575 LINE",
"478 515 LINE",
"474 515 LINE",
"426 565 OFFCURVE",
"373 589 OFFCURVE",
"312 589 CURVE SMOOTH",
"180 589 OFFCURVE",
"59 475 OFFCURVE",
"59 287 CURVE SMOOTH",
"59 99 OFFCURVE",
"158 -14 OFFCURVE"
);
},
{
closed = 1;
nodes = (
"341 109 CURVE SMOOTH",
"260 109 OFFCURVE",
"212 169 OFFCURVE",
"212 289 CURVE SMOOTH",
"212 404 OFFCURVE",
"273 467 OFFCURVE",
"346 467 CURVE SMOOTH",
"385 467 OFFCURVE",
"422 454 OFFCURVE",
"459 420 CURVE",
"459 171 LINE",
"423 128 OFFCURVE",
"385 109 OFFCURVE"
);
}
);
width = 700;
}
);
unicode = 0251;
},
{
glyphname = alphalatinturned;
lastChange = "2015-12-16 11:53:30 +0000";
layers = (
{
anchors = (
{
name = aboveLC;
position = "{373, 587}";
},
{
name = belowLC;
position = "{371, -23}";
}
);
layerId = "8A30092D-5DE4-432F-B813-0E7E8F54CAFB";
paths = (
{
closed = 1;
nodes = (
"366 -14 CURVE SMOOTH",
"503 -14 OFFCURVE",
"625 98 OFFCURVE",
"625 290 CURVE SMOOTH",
"625 463 OFFCURVE",
"544 576 OFFCURVE",
"388 576 CURVE SMOOTH",
"310 576 OFFCURVE",
"232 533 OFFCURVE",
"184 482 CURVE",
"180 482 LINE",
"174 562 LINE",
"118 562 LINE",
"118 0 LINE",
"173 0 LINE",
"179 63 LINE",
"183 63 LINE",
"238 15 OFFCURVE",
"308 -14 OFFCURVE"
);
},
{
closed = 1;
nodes = (
"358 44 CURVE SMOOTH",
"313 44 OFFCURVE",
"248 64 OFFCURVE",
"185 120 CURVE",
"185 422 LINE",
"243 485 OFFCURVE",
"312 519 OFFCURVE",
"374 519 CURVE SMOOTH",
"503 519 OFFCURVE",
"555 422 OFFCURVE",
"555 287 CURVE SMOOTH",
"555 142 OFFCURVE",
"471 44 OFFCURVE"
);
}
);
width = 700;
},
{
anchors = (
{
name = aboveLC;
position = "{372, 599}";
},
{
name = belowLC;
position = "{365, -23}";
}
);
layerId = "70058D0C-C9A7-4421-A18D-CF261F8AA98E";
paths = (
{
closed = 1;
nodes = (
"387 -14 CURVE SMOOTH",
"519 -14 OFFCURVE",
"640 99 OFFCURVE",
"640 298 CURVE SMOOTH",
"640 473 OFFCURVE",
"553 589 OFFCURVE",
"407 589 CURVE SMOOTH",
"338 589 OFFCURVE",
"271 555 OFFCURVE",
"228 511 CURVE",
"224 511 LINE",
"213 575 LINE",
"91 575 LINE",
"91 0 LINE",
"208 0 LINE",
"220 63 LINE",
"225 63 LINE",
"273 13 OFFCURVE",
"333 -14 OFFCURVE"
);
},
{
closed = 1;
nodes = (
"354 109 CURVE SMOOTH",
"319 109 OFFCURVE",
"279 121 OFFCURVE",
"240 155 CURVE",
"240 403 LINE",
"276 447 OFFCURVE",
"318 467 OFFCURVE",
"361 467 CURVE SMOOTH",
"447 467 OFFCURVE",
"487 405 OFFCURVE",
"487 288 CURVE SMOOTH",
"487 170 OFFCURVE",
"427 109 OFFCURVE"
);
}
);
width = 700;
}
);
unicode = 0252;
},
{
glyphname = aogonek;
lastChange = "2015-12-16 11:53:30 +0000";
layers = (
{
anchors = (
{
name = aboveLC;
position = "{373, 587}";
}
);
layerId = "8A30092D-5DE4-432F-B813-0E7E8F54CAFB";
paths = (
{
closed = 1;
nodes = (
"536 -262 CURVE SMOOTH",
"580 -262 OFFCURVE",
"612 -245 OFFCURVE",
"637 -220 CURVE",
"612 -186 LINE",
"597 -201 OFFCURVE",
"576 -214 OFFCURVE",
"547 -214 CURVE SMOOTH",
"511 -214 OFFCURVE",
"477 -192 OFFCURVE",
"477 -145 CURVE SMOOTH",
"477 -93 OFFCURVE",
"510 -42 OFFCURVE",
"593 0 CURVE",
"593 354 LINE SMOOTH",
"593 481 OFFCURVE",
"526 576 OFFCURVE",
"375 576 CURVE SMOOTH",
"275 576 OFFCURVE",
"179 528 OFFCURVE",
"129 493 CURVE",
"158 446 LINE",
"206 479 OFFCURVE",
"284 520 OFFCURVE",
"365 520 CURVE SMOOTH",
"487 520 OFFCURVE",
"525 440 OFFCURVE",
"526 353 CURVE",
"226 328 OFFCURVE",
"103 268 OFFCURVE",
"103 142 CURVE SMOOTH",
"103 38 OFFCURVE",
"195 -14 OFFCURVE",
"298 -14 CURVE SMOOTH",
"379 -14 OFFCURVE",
"464 31 OFFCURVE",
"528 81 CURVE",
"531 81 LINE",
"538 9 LINE",
"470 -33 OFFCURVE",
"423 -87 OFFCURVE",
"423 -157 CURVE SMOOTH",
"423 -228 OFFCURVE",
"471 -262 OFFCURVE"
);
},
{
closed = 1;
nodes = (
"311 42 CURVE SMOOTH",
"239 42 OFFCURVE",
"169 71 OFFCURVE",
"169 146 CURVE SMOOTH",
"169 231 OFFCURVE",
"255 282 OFFCURVE",
"525 306 CURVE",
"525 137 LINE",
"451 75 OFFCURVE",
"381 42 OFFCURVE"
);
}
);
width = 700;
},
{
anchors = (
{
name = aboveLC;
position = "{373, 599}";
}
);
layerId = "70058D0C-C9A7-4421-A18D-CF261F8AA98E";
paths = (
{
closed = 1;
nodes = (
"523 -264 CURVE SMOOTH",
"567 -264 OFFCURVE",
"616 -249 OFFCURVE",
"648 -222 CURVE",
"614 -155 LINE",
"601 -165 OFFCURVE",
"580 -174 OFFCURVE",
"557 -174 CURVE SMOOTH",
"525 -174 OFFCURVE",
"494 -157 OFFCURVE",
"494 -117 CURVE SMOOTH",
"494 -75 OFFCURVE",
"530 -29 OFFCURVE",
"617 0 CURVE",
"617 335 LINE SMOOTH",
"617 502 OFFCURVE",
"525 589 OFFCURVE",
"365 589 CURVE SMOOTH",
"266 589 OFFCURVE",
"173 553 OFFCURVE",
"100 510 CURVE",
"154 411 LINE",
"216 444 OFFCURVE",
"276 469 OFFCURVE",
"336 469 CURVE SMOOTH",
"424 469 OFFCURVE",
"462 428 OFFCURVE",
"467 368 CURVE",
"189 350 OFFCURVE",
"78 285 OFFCURVE",
"78 157 CURVE SMOOTH",
"78 58 OFFCURVE",
"155 -14 OFFCURVE",
"269 -14 CURVE SMOOTH",
"345 -14 OFFCURVE",
"420 24 OFFCURVE",
"480 69 CURVE",
"484 69 LINE",
"496 0 LINE",
"447 -29 OFFCURVE",
"392 -78 OFFCURVE",
"392 -151 CURVE SMOOTH",
"392 -226 OFFCURVE",
"450 -264 OFFCURVE"
);
},
{
closed = 1;
nodes = (
"314 102 CURVE SMOOTH",
"261 102 OFFCURVE",
"221 123 OFFCURVE",
"221 168 CURVE SMOOTH",
"221 225 OFFCURVE",
"276 265 OFFCURVE",
"467 277 CURVE",
"467 166 LINE",
"419 128 OFFCURVE",
"370 102 OFFCURVE"
);
}
);
width = 700;
}
);
unicode = 0105;
},
{
glyphname = aringacute;
lastChange = "2015-12-16 11:53:30 +0000";
layers = (
{
components = (
{
name = aring;
}
);
layerId = "8A30092D-5DE4-432F-B813-0E7E8F54CAFB";
paths = (
{
closed = 1;
nodes = (
"333 845 LINE",
"486 919 LINE",
"455 967 LINE",
"300 860 LINE"
);
}
);
width = 700;
},
{
components = (
{
name = aring;
}
);
layerId = "70058D0C-C9A7-4421-A18D-CF261F8AA98E";
paths = (
{
closed = 1;
nodes = (
"339 853 LINE",
"513 933 LINE",
"452 1012 LINE",
"275 872 LINE"
);
}
);
width = 700;
}
);
unicode = 01FB;
},
{
glyphname = aturned;
lastChange = "2015-12-16 11:53:30 +0000";
layers = (
{
anchors = (
{
name = aboveLC;
position = "{375, 587}";
},
{
name = belowLC;
position = "{359, -23}";
}
);
layerId = "8A30092D-5DE4-432F-B813-0E7E8F54CAFB";
paths = (
{
closed = 1;
nodes = (
"338 -14 CURVE SMOOTH",
"438 -14 OFFCURVE",
"534 35 OFFCURVE",
"584 69 CURVE",
"555 116 LINE",
"507 83 OFFCURVE",
"429 43 OFFCURVE",
"347 43 CURVE SMOOTH",
"226 43 OFFCURVE",
"188 122 OFFCURVE",
"187 209 CURVE",
"486 234 OFFCURVE",
"610 294 OFFCURVE",
"610 420 CURVE SMOOTH",
"610 524 OFFCURVE",
"518 576 OFFCURVE",
"415 576 CURVE SMOOTH",
"333 576 OFFCURVE",
"248 532 OFFCURVE",
"185 481 CURVE",
"182 481 LINE",
"176 562 LINE",
"120 562 LINE",
"120 208 LINE SMOOTH",
"120 81 OFFCURVE",
"187 -14 OFFCURVE"
);
},
{
closed = 1;
nodes = (
"187 256 CURVE",
"187 425 LINE",
"261 487 OFFCURVE",
"332 521 OFFCURVE",
"400 521 CURVE SMOOTH",
"473 521 OFFCURVE",
"542 491 OFFCURVE",
"542 416 CURVE SMOOTH",
"542 331 OFFCURVE",
"457 280 OFFCURVE"
);
}
);
width = 700;
},
{
anchors = (
{
name = aboveLC;
position = "{381, 599}";
},
{
name = belowLC;
position = "{353, -23}";
}
);
layerId = "70058D0C-C9A7-4421-A18D-CF261F8AA98E";
paths = (
{
closed = 1;
nodes = (
"343 -14 CURVE SMOOTH",
"442 -14 OFFCURVE",
"535 22 OFFCURVE",
"609 65 CURVE",
"555 164 LINE",
"493 131 OFFCURVE",
"433 106 OFFCURVE",
"371 106 CURVE SMOOTH",
"285 106 OFFCURVE",
"246 147 OFFCURVE",
"241 207 CURVE",
"519 225 OFFCURVE",
"631 290 OFFCURVE",
"631 418 CURVE SMOOTH",
"631 517 OFFCURVE",
"553 589 OFFCURVE",
"439 589 CURVE SMOOTH",
"363 589 OFFCURVE",
"288 552 OFFCURVE",
"229 506 CURVE",
"225 506 LINE",
"214 575 LINE",
"92 575 LINE",
"92 239 LINE SMOOTH",
"92 73 OFFCURVE",
"183 -14 OFFCURVE"
);
},
{
closed = 1;
nodes = (
"241 298 CURVE",
"241 409 LINE",
"289 447 OFFCURVE",
"339 473 OFFCURVE",
"393 473 CURVE SMOOTH",
"447 473 OFFCURVE",
"487 452 OFFCURVE",
"487 407 CURVE SMOOTH",
"487 350 OFFCURVE",
"432 310 OFFCURVE"
);
}
);
width = 700;
}
);
unicode = 0250;
},
{
glyphname = ae;
lastChange = "2015-12-16 11:53:30 +0000";
layers = (
{
anchors = (
{
name = aboveLC;
position = "{370, 587}";
},
{
name = baseLC;
position = "{529, 0}";
},
{
name = belowLC;
position = "{361, -23}";
}
);
layerId = "8A30092D-5DE4-432F-B813-0E7E8F54CAFB";
paths = (
{
closed = 1;
nodes = (
"168 -14 CURVE SMOOTH",
"249 -14 OFFCURVE",
"320 40 OFFCURVE",
"379 117 CURVE",
"352 155 LINE",
"309 84 OFFCURVE",
"240 42 OFFCURVE",
"183 42 CURVE SMOOTH",
"125 42 OFFCURVE",
"85 77 OFFCURVE",
"85 141 CURVE SMOOTH",
"85 223 OFFCURVE",
"139 277 OFFCURVE",
"341 302 CURVE",
"341 349 LINE",
"111 324 OFFCURVE",
"21 251 OFFCURVE",
"21 136 CURVE SMOOTH",
"21 40 OFFCURVE",
"84 -14 OFFCURVE"
);
},
{
closed = 1;
nodes = (
"533 -14 CURVE SMOOTH",
"595 -14 OFFCURVE",
"643 8 OFFCURVE",
"681 35 CURVE",
"655 82 LINE",
"625 61 OFFCURVE",
"583 43 OFFCURVE",
"535 43 CURVE SMOOTH",
"429 43 OFFCURVE",
"376 139 OFFCURVE",
"376 282 CURVE SMOOTH",
"376 457 OFFCURVE",
"451 521 OFFCURVE",
"524 521 CURVE SMOOTH",
"605 521 OFFCURVE",
"641 447 OFFCURVE",
"641 302 CURVE",
"655 318 LINE",
"350 318 LINE",
"350 269 LINE",
"694 269 LINE",
"697 290 OFFCURVE",
"698 307 OFFCURVE",
"698 325 CURVE SMOOTH",
"698 459 OFFCURVE",
"643 576 OFFCURVE",
"528 576 CURVE SMOOTH",
"452 576 OFFCURVE",
"377 526 OFFCURVE",
"345 409 CURVE",
"367 409 LINE",
"347 526 OFFCURVE",
"293 576 OFFCURVE",
"213 576 CURVE SMOOTH",
"144 576 OFFCURVE",
"81 543 OFFCURVE",
"40 517 CURVE",
"66 470 LINE",
"101 495 OFFCURVE",
"157 520 OFFCURVE",
"206 520 CURVE SMOOTH",
"277 520 OFFCURVE",
"320 471 OFFCURVE",
"320 338 CURVE SMOOTH",
"320 278 LINE SMOOTH",
"320 112 OFFCURVE",
"395 -14 OFFCURVE"
);
}
);
width = 700;
},
{
anchors = (
{
name = aboveLC;
position = "{363, 599}";
},
{
name = baseLC;
position = "{512, 0}";
},
{
name = belowLC;
position = "{360, -23}";
}
);
layerId = "70058D0C-C9A7-4421-A18D-CF261F8AA98E";
paths = (
{
closed = 1;
nodes = (
"173 -14 CURVE SMOOTH",
"241 -14 OFFCURVE",
"304 23 OFFCURVE",
"370 105 CURVE",
"326 175 LINE",
"287 122 OFFCURVE",
"249 102 OFFCURVE",
"217 102 CURVE SMOOTH",
"181 102 OFFCURVE",
"154 124 OFFCURVE",
"154 166 CURVE SMOOTH",
"154 219 OFFCURVE",
"190 262 OFFCURVE",
"318 275 CURVE",
"318 365 LINE",
"113 343 OFFCURVE",
"20 273 OFFCURVE",
"20 148 CURVE SMOOTH",
"20 51 OFFCURVE",
"83 -14 OFFCURVE"
);
},
{
closed = 1;
nodes = (
"522 -14 CURVE SMOOTH",
"574 -14 OFFCURVE",
"632 6 OFFCURVE",
"676 39 CURVE",
"624 136 LINE",
"594 115 OFFCURVE",
"563 104 OFFCURVE",
"527 104 CURVE SMOOTH",
"454 104 OFFCURVE",
"403 169 OFFCURVE",
"403 288 CURVE SMOOTH",
"403 426 OFFCURVE",
"454 474 OFFCURVE",
"500 474 CURVE SMOOTH",
"553 474 OFFCURVE",
"576 427 OFFCURVE",
"576 319 CURVE",
"601 339 LINE",
"376 339 LINE",
"376 246 LINE",
"686 246 LINE",
"689 262 OFFCURVE",
"693 287 OFFCURVE",
"693 316 CURVE SMOOTH",
"693 463 OFFCURVE",
"632 589 OFFCURVE",
"514 589 CURVE SMOOTH",
"446 589 OFFCURVE",
"385 554 OFFCURVE",
"342 460 CURVE",
"375 460 LINE",
"342 554 OFFCURVE",
"292 589 OFFCURVE",
"221 589 CURVE SMOOTH",
"157 589 OFFCURVE",
"95 562 OFFCURVE",
"36 526 CURVE",
"89 427 LINE",
"128 452 OFFCURVE",
"167 469 OFFCURVE",
"210 469 CURVE SMOOTH",
"258 469 OFFCURVE",
"292 441 OFFCURVE",
"291 339 CURVE SMOOTH",
"291 261 LINE SMOOTH",
"291 113 OFFCURVE",
"374 -14 OFFCURVE"
);
}
);
width = 700;
}
);
unicode = 00E6;
},
{
glyphname = b;
lastChange = "2015-12-16 11:53:30 +0000";
layers = (
{
anchors = (
{
name = aboveUC;
position = "{156, 861}";
},
{
name = belowLC;
position = "{361, -23}";
}
);
layerId = "8A30092D-5DE4-432F-B813-0E7E8F54CAFB";
paths = (
{
closed = 1;
nodes = (
"366 -14 CURVE SMOOTH",
"503 -14 OFFCURVE",
"625 98 OFFCURVE",
"625 290 CURVE SMOOTH",
"625 463 OFFCURVE",
"544 576 OFFCURVE",
"388 576 CURVE SMOOTH",
"317 576 OFFCURVE",
"240 538 OFFCURVE",
"184 482 CURVE",
"182 482 LINE",
"185 598 LINE",
"185 836 LINE",
"118 836 LINE",
"118 0 LINE",
"173 0 LINE",
"179 63 LINE",
"183 63 LINE",
"237 15 OFFCURVE",
"310 -14 OFFCURVE"
);
},
{
closed = 1;
nodes = (
"358 44 CURVE SMOOTH",
"315 44 OFFCURVE",
"246 65 OFFCURVE",
"185 120 CURVE",
"185 422 LINE",
"251 488 OFFCURVE",
"319 519 OFFCURVE",
"375 519 CURVE SMOOTH",
"504 519 OFFCURVE",
"555 422 OFFCURVE",
"555 289 CURVE SMOOTH",
"555 142 OFFCURVE",
"471 44 OFFCURVE"
);
}
);
width = 700;
},
{
anchors = (
{
name = aboveUC;
position = "{168, 855}";
},
{
name = belowLC;
position = "{361, -23}";
}
);
layerId = "70058D0C-C9A7-4421-A18D-CF261F8AA98E";
paths = (
{
closed = 1;
nodes = (
"388 -14 CURVE SMOOTH",
"518 -14 OFFCURVE",
"640 99 OFFCURVE",
"640 297 CURVE SMOOTH",
"640 473 OFFCURVE",
"553 589 OFFCURVE",
"406 589 CURVE SMOOTH",
"347 589 OFFCURVE",
"284 561 OFFCURVE",
"238 517 CURVE",
"234 517 LINE",
"240 613 LINE",
"240 821 LINE",
"91 821 LINE",
"91 0 LINE",
"208 0 LINE",
"220 63 LINE",
"225 63 LINE",
"274 13 OFFCURVE",
"334 -14 OFFCURVE"
);
},
{
closed = 1;
nodes = (
"355 109 CURVE SMOOTH",
"323 109 OFFCURVE",
"279 121 OFFCURVE",
"240 155 CURVE",
"240 403 LINE",
"283 447 OFFCURVE",
"324 467 OFFCURVE",
"365 467 CURVE SMOOTH",
"449 467 OFFCURVE",
"487 405 OFFCURVE",
"487 295 CURVE SMOOTH",
"487 170 OFFCURVE",
"429 109 OFFCURVE"
);
}
);
width = 700;
}
);
unicode = 0062;
},
{
glyphname = bhook;
lastChange = "2015-12-16 11:53:30 +0000";
layers = (
{
anchors = (
{
name = aboveUC;
position = "{345, 861}";
},
{
name = belowLC;
position = "{371, -23}";
}
);
layerId = "8A30092D-5DE4-432F-B813-0E7E8F54CAFB";
paths = (
{
closed = 1;
nodes = (
"366 -14 CURVE SMOOTH",
"502 -14 OFFCURVE",
"624 98 OFFCURVE",
"624 288 CURVE SMOOTH",
"624 460 OFFCURVE",
"543 572 OFFCURVE",
"388 572 CURVE SMOOTH",
"317 572 OFFCURVE",
"240 534 OFFCURVE",
"184 478 CURVE",
"180 478 LINE",
"185 641 LINE",
"186 733 OFFCURVE",
"225 793 OFFCURVE",
"315 793 CURVE SMOOTH",
"339 793 OFFCURVE",
"367 789 OFFCURVE",
"393 776 CURVE",
"411 828 LINE",
"382 841 OFFCURVE",
"345 850 OFFCURVE",
"311 850 CURVE SMOOTH",
"186 850 OFFCURVE",
"118 770 OFFCURVE",
"118 642 CURVE",
"118 0 LINE",
"173 0 LINE",
"179 63 LINE",
"183 63 LINE",
"237 15 OFFCURVE",
"310 -14 OFFCURVE"
);
},
{
closed = 1;
nodes = (
"358 44 CURVE SMOOTH",
"315 44 OFFCURVE",
"246 65 OFFCURVE",
"185 120 CURVE",
"185 417 LINE",
"251 484 OFFCURVE",
"319 514 OFFCURVE",
"375 514 CURVE SMOOTH",
"503 514 OFFCURVE",
"555 418 OFFCURVE",
"555 287 CURVE SMOOTH",
"555 141 OFFCURVE",
"471 44 OFFCURVE"
);
}
);
width = 700;
},
{
anchors = (
{
name = aboveUC;
position = "{333, 855}";
},
{
name = belowLC;
position = "{365, -23}";
}
);
layerId = "70058D0C-C9A7-4421-A18D-CF261F8AA98E";
paths = (
{
closed = 1;
nodes = (
"388 -14 CURVE SMOOTH",
"518 -14 OFFCURVE",
"638 97 OFFCURVE",
"638 289 CURVE SMOOTH",
"638 461 OFFCURVE",
"551 573 OFFCURVE",
"406 573 CURVE SMOOTH",
"347 573 OFFCURVE",
"286 546 OFFCURVE",
"238 501 CURVE",
"234 501 LINE",
"240 605 LINE",
"245 681 OFFCURVE",
"278 717 OFFCURVE",
"350 717 CURVE SMOOTH",
"373 717 OFFCURVE",
"401 710 OFFCURVE",
"426 700 CURVE",
"455 811 LINE",
"426 822 OFFCURVE",
"381 835 OFFCURVE",
"330 835 CURVE SMOOTH",
"160 835 OFFCURVE",
"91 729 OFFCURVE",
"91 596 CURVE",
"91 0 LINE",
"208 0 LINE",
"220 63 LINE",
"225 63 LINE",
"274 12 OFFCURVE",
"335 -14 OFFCURVE"
);
},
{
closed = 1;
nodes = (
"355 109 CURVE SMOOTH",
"323 109 OFFCURVE",
"279 120 OFFCURVE",
"240 155 CURVE",
"240 387 LINE",
"282 432 OFFCURVE",
"324 450 OFFCURVE",
"365 450 CURVE SMOOTH",
"448 450 OFFCURVE",
"486 391 OFFCURVE",
"486 287 CURVE SMOOTH",
"486 167 OFFCURVE",
"428 109 OFFCURVE"
);
}
);
width = 700;
}
);
unicode = 0253;
},
{
glyphname = bstroke;
lastChange = "2015-12-16 11:53:30 +0000";
layers = (
{
layerId = "8A30092D-5DE4-432F-B813-0E7E8F54CAFB";
paths = (
{
closed = 1;
nodes = (
"366 -14 CURVE SMOOTH",
"503 -14 OFFCURVE",
"625 94 OFFCURVE",
"625 278 CURVE SMOOTH",
"625 445 OFFCURVE",
"544 553 OFFCURVE",
"388 553 CURVE SMOOTH",
"317 553 OFFCURVE",
"240 515 OFFCURVE",
"184 458 CURVE",
"182 458 LINE",
"184 573 LINE",
"185 836 LINE",
"118 836 LINE",
"118 0 LINE",
"173 0 LINE",
"179 63 LINE",
"183 63 LINE",
"237 15 OFFCURVE",
"310 -14 OFFCURVE"
);
},
{
closed = 1;
nodes = (
"358 44 CURVE SMOOTH",
"315 44 OFFCURVE",
"246 65 OFFCURVE",
"185 120 CURVE",
"185 399 LINE",
"251 464 OFFCURVE",
"319 495 OFFCURVE",
"375 495 CURVE SMOOTH",
"504 495 OFFCURVE",
"555 403 OFFCURVE",
"555 277 CURVE SMOOTH",
"555 137 OFFCURVE",
"471 44 OFFCURVE"
);
},
{
closed = 1;
nodes = (
"30 673 LINE",
"445 673 LINE",
"445 718 LINE",
"121 718 LINE",
"30 713 LINE"
);
}
);
width = 700;
},
{
layerId = "70058D0C-C9A7-4421-A18D-CF261F8AA98E";
paths = (
{
closed = 1;
nodes = (
"388 -14 CURVE SMOOTH",
"518 -14 OFFCURVE",
"640 95 OFFCURVE",
"640 285 CURVE SMOOTH",
"640 455 OFFCURVE",
"553 566 OFFCURVE",
"406 566 CURVE SMOOTH",
"347 566 OFFCURVE",
"284 538 OFFCURVE",
"238 493 CURVE",
"234 493 LINE",
"237 585 LINE",
"240 821 LINE",
"91 821 LINE",
"91 0 LINE",
"208 0 LINE",
"220 63 LINE",
"225 63 LINE",
"274 13 OFFCURVE",
"334 -14 OFFCURVE"
);
},
{
closed = 1;
nodes = (
"355 109 CURVE SMOOTH",
"323 109 OFFCURVE",
"279 121 OFFCURVE",
"240 155 CURVE",
"240 380 LINE",
"283 424 OFFCURVE",
"324 443 OFFCURVE",
"365 443 CURVE SMOOTH",
"449 443 OFFCURVE",
"487 385 OFFCURVE",
"487 283 CURVE SMOOTH",
"487 165 OFFCURVE",
"429 109 OFFCURVE"
);
},
{
closed = 1;
nodes = (
"11 653 LINE",
"462 653 LINE",
"462 728 LINE",
"101 728 LINE",
"11 722 LINE"
);
}
);
width = 700;
}
);
unicode = 0180;
},
{
glyphname = c;
lastChange = "2015-12-16 11:53:30 +0000";
layers = (
{
anchors = (
{
name = aboveLC;
position = "{406, 587}";
},
{
name = baseLC;
position = "{406, 0}";
},
{
name = belowLC;
position = "{396, -23}";
}
);
layerId = "8A30092D-5DE4-432F-B813-0E7E8F54CAFB";
paths = (
{
closed = 1;
nodes = (
"405 -14 CURVE SMOOTH",
"491 -14 OFFCURVE",
"565 20 OFFCURVE",
"624 76 CURVE",
"592 121 LINE",
"543 77 OFFCURVE",
"483 44 OFFCURVE",
"409 44 CURVE SMOOTH",
"265 44 OFFCURVE",
"169 139 OFFCURVE",
"169 281 CURVE SMOOTH",
"169 421 OFFCURVE",
"267 519 OFFCURVE",
"410 519 CURVE SMOOTH",
"475 519 OFFCURVE",
"528 491 OFFCURVE",
"575 447 CURVE",
"611 492 LINE",
"565 536 OFFCURVE",
"501 576 OFFCURVE",
"408 576 CURVE SMOOTH",
"239 576 OFFCURVE",
"99 468 OFFCURVE",
"99 281 CURVE SMOOTH",
"99 94 OFFCURVE",
"230 -14 OFFCURVE"
);
}
);
width = 700;
},
{
anchors = (
{
name = aboveLC;
position = "{400, 599}";
},
{
name = baseLC;
position = "{400, 0}";
},
{
name = belowLC;
position = "{396, -23}";
}
);
layerId = "70058D0C-C9A7-4421-A18D-CF261F8AA98E";
paths = (
{
closed = 1;
nodes = (
"401 -14 CURVE SMOOTH",
"481 -14 OFFCURVE",
"567 14 OFFCURVE",
"634 72 CURVE",
"573 167 LINE",
"530 135 OFFCURVE",
"478 107 OFFCURVE",
"415 107 CURVE SMOOTH",
"309 107 OFFCURVE",
"236 178 OFFCURVE",
"236 287 CURVE SMOOTH",
"236 396 OFFCURVE",
"310 468 OFFCURVE",
"420 468 CURVE SMOOTH",
"467 468 OFFCURVE",
"510 451 OFFCURVE",
"555 416 CURVE",
"625 509 LINE",
"577 555 OFFCURVE",
"503 589 OFFCURVE",
"411 589 CURVE SMOOTH",
"235 589 OFFCURVE",
"82 478 OFFCURVE",
"82 287 CURVE SMOOTH",
"82 96 OFFCURVE",
"220 -14 OFFCURVE"
);
}
);
width = 700;
}
);
unicode = 0063;
},
{
glyphname = ccurl;
lastChange = "2015-12-16 11:53:30 +0000";
layers = (
{
anchors = (
{
name = aboveLC;
position = "{396, 587}";
},
{
name = belowLC;
position = "{420, -23}";
}
);
layerId = "8A30092D-5DE4-432F-B813-0E7E8F54CAFB";
paths = (
{
closed = 1;
nodes = (
"212 -121 LINE",
"261 45 OFFCURVE",
"396 167 OFFCURVE",
"486 167 CURVE SMOOTH",
"541 167 OFFCURVE",
"562 145 OFFCURVE",
"562 115 CURVE SMOOTH",
"562 72 OFFCURVE",
"513 42 OFFCURVE",
"418 42 CURVE SMOOTH",
"275 42 OFFCURVE",
"166 136 OFFCURVE",
"166 281 CURVE SMOOTH",
"166 423 OFFCURVE",
"269 521 OFFCURVE",
"401 521 CURVE SMOOTH",
"472 521 OFFCURVE",
"528 495 OFFCURVE",
"575 448 CURVE",
"610 492 LINE",
"562 540 OFFCURVE",
"496 576 OFFCURVE",
"398 576 CURVE SMOOTH",
"239 576 OFFCURVE",
"99 468 OFFCURVE",
"99 281 CURVE SMOOTH",
"99 94 OFFCURVE",
"241 -14 OFFCURVE",
"417 -14 CURVE SMOOTH",
"553 -14 OFFCURVE",
"619 44 OFFCURVE",
"619 118 CURVE SMOOTH",
"619 179 OFFCURVE",
"573 219 OFFCURVE",
"489 219 CURVE SMOOTH",
"369 219 OFFCURVE",
"225 97 OFFCURVE",
"156 -99 CURVE"
);
}
);
width = 700;
},
{
anchors = (
{
name = aboveLC;
position = "{396, 599}";
},
{
name = belowLC;
position = "{420, -23}";
}
);
layerId = "70058D0C-C9A7-4421-A18D-CF261F8AA98E";
paths = (
{
closed = 1;
nodes = (
"222 -114 LINE",
"277 72 OFFCURVE",
"399 197 OFFCURVE",
"469 197 CURVE SMOOTH",
"512 197 OFFCURVE",
"530 181 OFFCURVE",
"530 155 CURVE SMOOTH",
"530 125 OFFCURVE",
"494 101 OFFCURVE",
"426 101 CURVE SMOOTH",
"316 101 OFFCURVE",
"227 165 OFFCURVE",
"227 287 CURVE SMOOTH",
"227 401 OFFCURVE",
"308 474 OFFCURVE",
"417 474 CURVE SMOOTH",
"470 474 OFFCURVE",
"517 456 OFFCURVE",
"558 419 CURVE",
"624 509 LINE",
"575 557 OFFCURVE",
"503 589 OFFCURVE",
"408 589 CURVE SMOOTH",
"235 589 OFFCURVE",
"82 478 OFFCURVE",
"82 287 CURVE SMOOTH",
"82 96 OFFCURVE",
"230 -14 OFFCURVE",
"421 -14 CURVE SMOOTH",
"564 -14 OFFCURVE",
"643 61 OFFCURVE",
"643 156 CURVE SMOOTH",
"643 242 OFFCURVE",
"582 297 OFFCURVE",
"481 297 CURVE SMOOTH",
"358 297 OFFCURVE",
"191 171 OFFCURVE",
"106 -64 CURVE"
);
}
);
width = 700;
}
);
unicode = 0255;
},
{
glyphname = clickbilabial;
lastChange = "2015-12-16 11:53:30 +0000";
layers = (
{
layerId = "8A30092D-5DE4-432F-B813-0E7E8F54CAFB";
paths = (
{
closed = 1;
nodes = (
"350 -14 CURVE SMOOTH",
"520 -14 OFFCURVE",
"625 117 OFFCURVE",
"625 421 CURVE SMOOTH",
"625 696 OFFCURVE",
"520 850 OFFCURVE",
"350 850 CURVE SMOOTH",
"180 850 OFFCURVE",
"76 697 OFFCURVE",
"76 421 CURVE SMOOTH",
"76 117 OFFCURVE",
"180 -14 OFFCURVE"
);
},
{
closed = 1;
nodes = (
"350 44 CURVE SMOOTH",
"230 44 OFFCURVE",
"141 146 OFFCURVE",
"141 421 CURVE SMOOTH",
"141 669 OFFCURVE",
"230 793 OFFCURVE",
"350 793 CURVE SMOOTH",
"470 793 OFFCURVE",
"559 669 OFFCURVE",
"559 421 CURVE SMOOTH",
"559 146 OFFCURVE",
"470 44 OFFCURVE"
);
},
{
closed = 1;
nodes = (
"350 352 CURVE SMOOTH",
"385 352 OFFCURVE",
"418 381 OFFCURVE",
"418 421 CURVE SMOOTH",
"418 465 OFFCURVE",
"385 492 OFFCURVE",
"350 492 CURVE SMOOTH",
"314 492 OFFCURVE",
"282 465 OFFCURVE",
"282 421 CURVE SMOOTH",
"282 381 OFFCURVE",
"314 352 OFFCURVE"
);
}
);
width = 700;
},
{
layerId = "70058D0C-C9A7-4421-A18D-CF261F8AA98E";
paths = (
{
closed = 1;
nodes = (
"350 -14 CURVE SMOOTH",
"520 -14 OFFCURVE",
"641 124 OFFCURVE",
"641 413 CURVE SMOOTH",
"641 695 OFFCURVE",
"520 835 OFFCURVE",
"350 835 CURVE SMOOTH",
"180 835 OFFCURVE",
"59 696 OFFCURVE",
"59 413 CURVE SMOOTH",
"59 124 OFFCURVE",
"180 -14 OFFCURVE"
);
},
{
closed = 1;
nodes = (
"350 107 CURVE SMOOTH",
"268 107 OFFCURVE",
"198 181 OFFCURVE",
"198 413 CURVE SMOOTH",
"198 633 OFFCURVE",
"268 714 OFFCURVE",
"350 714 CURVE SMOOTH",
"432 714 OFFCURVE",
"503 633 OFFCURVE",
"503 413 CURVE SMOOTH",
"503 181 OFFCURVE",
"432 107 OFFCURVE"
);
},
{
closed = 1;
nodes = (
"350 333 CURVE SMOOTH",
"394 333 OFFCURVE",
"430 367 OFFCURVE",
"430 413 CURVE SMOOTH",
"430 461 OFFCURVE",
"394 496 OFFCURVE",
"350 496 CURVE SMOOTH",
"306 496 OFFCURVE",
"269 461 OFFCURVE",
"269 413 CURVE SMOOTH",
"269 367 OFFCURVE",
"306 333 OFFCURVE"
);
}
);
width = 700;
}
);
unicode = 0298;
},
{
glyphname = d;
lastChange = "2015-12-16 11:53:30 +0000";
layers = (
{
anchors = (
{
name = aboveUC;
position = "{541, 861}";
},
{
name = baseLC;
position = "{352, 0}";
},
{
name = belowLC;
position = "{352, -23}";
}
);
layerId = "8A30092D-5DE4-432F-B813-0E7E8F54CAFB";
paths = (
{
closed = 1;
nodes = (
"322 -14 CURVE SMOOTH",
"398 -14 OFFCURVE",
"469 30 OFFCURVE",
"517 80 CURVE",
"519 80 LINE",
"526 0 LINE",
"582 0 LINE",
"582 836 LINE",
"515 836 LINE",
"515 609 LINE",
"519 499 LINE",
"516 499 LINE",
"462 548 OFFCURVE",
"407 576 OFFCURVE",
"337 576 CURVE SMOOTH",
"199 576 OFFCURVE",
"76 462 OFFCURVE",
"76 281 CURVE SMOOTH",
"76 92 OFFCURVE",
"175 -14 OFFCURVE"
);
},
{
closed = 1;
nodes = (
"334 44 CURVE SMOOTH",
"215 44 OFFCURVE",
"145 137 OFFCURVE",
"145 281 CURVE SMOOTH",
"144.994 416.994 OFFCURVE",
"234 519 OFFCURVE",
"345 519 CURVE SMOOTH",
"401 519 OFFCURVE",
"456 497 OFFCURVE",
"514 442 CURVE",
"514 140 LINE",
"457 77 OFFCURVE",
"396 44 OFFCURVE"
);
}
);
width = 700;
},
{
anchors = (
{
name = aboveUC;
position = "{524, 855}";
},
{
name = baseLC;
position = "{329, 0}";
},
{
name = belowLC;
position = "{358, -23}";
}
);
layerId = "70058D0C-C9A7-4421-A18D-CF261F8AA98E";
paths = (
{
closed = 1;
nodes = (
"304 -14 CURVE SMOOTH",
"365 -14 OFFCURVE",
"427 20 OFFCURVE",
"471 64 CURVE",
"475 64 LINE",
"486 0 LINE",
"608 0 LINE",
"608 821 LINE",
"459 821 LINE",
"459 618 LINE",
"466 524 LINE",
"462 524 LINE",
"420 565 OFFCURVE",
"374 589 OFFCURVE",
"310 589 CURVE SMOOTH",
"181 589 OFFCURVE",
"59 475 OFFCURVE",
"59 287 CURVE SMOOTH",
"59 99 OFFCURVE",
"156 -14 OFFCURVE"
);
},
{
closed = 1;
nodes = (
"341 109 CURVE SMOOTH",
"260 109 OFFCURVE",
"212 169 OFFCURVE",
"212 289 CURVE SMOOTH",
"212 404 OFFCURVE",
"273 467 OFFCURVE",
"346 467 CURVE SMOOTH",
"385 467 OFFCURVE",
"422 454 OFFCURVE",
"459 420 CURVE",
"459 171 LINE",
"423 128 OFFCURVE",
"385 109 OFFCURVE"
);
}
);
width = 700;
}
);
unicode = 0064;
},
{
glyphname = eth;
lastChange = "2015-12-16 11:53:30 +0000";
layers = (
{
anchors = (
{
name = aboveUC;
position = "{385, 861}";
},
{
name = belowLC;
position = "{359, -23}";
}
);
layerId = "8A30092D-5DE4-432F-B813-0E7E8F54CAFB";
paths = (
{
closed = 1;
nodes = (
"349 -14 CURVE SMOOTH",
"512 -14 OFFCURVE",
"618 109 OFFCURVE",
"618 296 CURVE SMOOTH",
"618 598 OFFCURVE",
"450 748 OFFCURVE",
"238 847 CURVE",
"207 803 LINE",
"414 702 OFFCURVE",
"553 582 OFFCURVE",
"553 293 CURVE SMOOTH",
"553 152 OFFCURVE",
"492 44 OFFCURVE",
"350 44 CURVE SMOOTH",
"235 44 OFFCURVE",
"141 130 OFFCURVE",
"141 257 CURVE SMOOTH",
"141 370 OFFCURVE",
"211 462 OFFCURVE",
"351 462 CURVE SMOOTH",
"419 462 OFFCURVE",
"496 431 OFFCURVE",
"556 344 CURVE",
"555 399 LINE",
"510 468 OFFCURVE",
"429 517 OFFCURVE",
"345 517 CURVE SMOOTH",
"185 517 OFFCURVE",
"76 412 OFFCURVE",
"76 257 CURVE SMOOTH",
"76 88 OFFCURVE",
"206 -14 OFFCURVE"
);
},
{
closed = 1;
nodes = (
"218 594 LINE",
"589 786 LINE",
"568 824 LINE",
"197 631 LINE"
);
}
);
width = 700;
},
{
anchors = (
{
name = aboveUC;
position = "{385, 855}";
},
{
name = belowLC;
position = "{353, -23}";
}
);
layerId = "70058D0C-C9A7-4421-A18D-CF261F8AA98E";
paths = (
{
closed = 1;
nodes = (
"345 -14 CURVE SMOOTH",
"526 -14 OFFCURVE",
"636 119 OFFCURVE",
"636 308 CURVE SMOOTH",
"636 607 OFFCURVE",
"450 760 OFFCURVE",
"233 860 CURVE",
"167 768 LINE",
"385 664 OFFCURVE",
"497 549 OFFCURVE",
"497 299 CURVE SMOOTH",
"497 178 OFFCURVE",
"443 107 OFFCURVE",
"350 107 CURVE SMOOTH",
"265 107 OFFCURVE",
"196 165 OFFCURVE",
"196 264 CURVE SMOOTH",
"196 361 OFFCURVE",
"252 416 OFFCURVE",
"348 416 CURVE SMOOTH",
"403 416 OFFCURVE",
"456 394 OFFCURVE",
"502 335 CURVE",
"500 418 LINE",
"465 492 OFFCURVE",
"393 527 OFFCURVE",
"319 527 CURVE SMOOTH",
"178 527 OFFCURVE",
"59 428 OFFCURVE",
"59 264 CURVE SMOOTH",
"59 93 OFFCURVE",
"191.006 -14 OFFCURVE"
);
},
{
closed = 1;
nodes = (
"182 562 LINE",
"602 774 LINE",
"562 843 LINE",
"142 629 LINE"
);
}
);
width = 700;
}
);
unicode = 00F0;
},
{
glyphname = dcaron;
lastChange = "2015-12-16 12:27:51 +0000";
layers = (
{
components = (
{
name = caron.a;
transform = "{1, 0, 0, 1, 348, 0}";
}
);
layerId = "8A30092D-5DE4-432F-B813-0E7E8F54CAFB";
paths = (
{
closed = 1;
nodes = (
"312 -14 CURVE SMOOTH",
"386 -14 OFFCURVE",
"454 31 OFFCURVE",
"502 80 CURVE",
"504 80 LINE",
"511 0 LINE",
"564 0 LINE",
"564 836 LINE",
"500 836 LINE",
"500 609 LINE",
"504 499 LINE",
"501 499 LINE",
"447 547 OFFCURVE",
"394 576 OFFCURVE",
"326 576 CURVE SMOOTH",
"192 576 OFFCURVE",
"72 462 OFFCURVE",
"72 281 CURVE SMOOTH",
"72 92 OFFCURVE",
"169 -14 OFFCURVE"
);
},
{
closed = 1;
nodes = (
"323 44 CURVE SMOOTH",
"208 44 OFFCURVE",
"139 137 OFFCURVE",
"139 281 CURVE SMOOTH",
"139 417 OFFCURVE",
"226 519 OFFCURVE",
"335 519 CURVE SMOOTH",
"389 519 OFFCURVE",
"442 496 OFFCURVE",
"499 442 CURVE",
"499 140 LINE",
"442 78 OFFCURVE",
"383 44 OFFCURVE"
);
}
);
width = 700;
},
{
components = (
{
name = caron.a;
transform = "{1, 0, 0, 1, 320, 0}";
}
);
layerId = "70058D0C-C9A7-4421-A18D-CF261F8AA98E";
paths = (
{
closed = 1;
nodes = (
"267 -14 CURVE SMOOTH",
"322 -14 OFFCURVE",
"377 22 OFFCURVE",
"418 64 CURVE",
"422 64 LINE",
"433 0 LINE",
"547 0 LINE",
"547 821 LINE",
"406 821 LINE",
"406 618 LINE",
"413 524 LINE",
"409 524 LINE",
"368 564 OFFCURVE",
"330 589 OFFCURVE",
"272 589 CURVE SMOOTH",
"156 589 OFFCURVE",
"46 475 OFFCURVE",
"46 287 CURVE SMOOTH",
"46 99 OFFCURVE",
"134 -14 OFFCURVE"
);
},
{
closed = 1;
nodes = (
"303 109 CURVE SMOOTH",
"233 109 OFFCURVE",
"191 169 OFFCURVE",
"191 289 CURVE SMOOTH",
"191 404 OFFCURVE",
"245 467 OFFCURVE",
"309 467 CURVE SMOOTH",
"342 467 OFFCURVE",
"371 451 OFFCURVE",
"405 420 CURVE",
"405 171 LINE",
"372 129 OFFCURVE",
"341 109 OFFCURVE"
);
}
);
width = 700;
}
);
unicode = 010F;
},
{
glyphname = dcroat;
lastChange = "2015-12-16 11:53:30 +0000";
layers = (
{
anchors = (
{
name = aboveUC;
position = "{541, 861}";
},
{
name = belowLC;
position = "{352, -23}";
}
);
layerId = "8A30092D-5DE4-432F-B813-0E7E8F54CAFB";
paths = (
{
closed = 1;
nodes = (
"322 -14 CURVE SMOOTH",
"398 -14 OFFCURVE",
"469 30 OFFCURVE",
"517 80 CURVE",
"519 80 LINE",
"526 0 LINE",
"582 0 LINE",
"582 836 LINE",
"515 836 LINE",
"515 586 LINE",
"519 475 LINE",
"516 475 LINE",
"463 524 OFFCURVE",
"408 553 OFFCURVE",
"337 553 CURVE SMOOTH",
"199 553 OFFCURVE",
"76 443 OFFCURVE",
"76 269 CURVE SMOOTH",
"76 87 OFFCURVE",
"175 -14 OFFCURVE"
);
},
{
closed = 1;
nodes = (
"334 44 CURVE SMOOTH",
"215 44 OFFCURVE",
"145 132 OFFCURVE",
"145 269 CURVE SMOOTH",
"145 397 OFFCURVE",
"234 495 OFFCURVE",
"346 495 CURVE SMOOTH",
"401 495 OFFCURVE",
"456 474 OFFCURVE",
"514 418 CURVE",
"514 140 LINE",
"457 77 OFFCURVE",
"396 44 OFFCURVE"
);
},
{
closed = 1;
nodes = (
"304 673 LINE",
"579 673 LINE",
"667 679 LINE",
"667 718 LINE",
"304 718 LINE"
);
}
);
width = 700;
},
{
anchors = (
{
name = aboveUC;
position = "{524, 855}";
},
{
name = belowLC;
position = "{358, -23}";
}
);
layerId = "70058D0C-C9A7-4421-A18D-CF261F8AA98E";
paths = (
{
closed = 1;
nodes = (
"304 -14 CURVE SMOOTH",
"365 -14 OFFCURVE",
"427 20 OFFCURVE",
"471 64 CURVE",
"475 64 LINE",
"486 0 LINE",
"608 0 LINE",
"608 821 LINE",
"459 821 LINE",
"459 594 LINE",
"466 500 LINE",
"462 500 LINE",
"421 540 OFFCURVE",
"376 566 OFFCURVE",
"310 566 CURVE SMOOTH",
"181 566 OFFCURVE",
"59 456 OFFCURVE",
"59 276 CURVE SMOOTH",
"59 94 OFFCURVE",
"156 -14 OFFCURVE"
);
},
{
closed = 1;
nodes = (
"341 109 CURVE SMOOTH",
"260 109 OFFCURVE",
"212 165 OFFCURVE",
"212 277 CURVE SMOOTH",
"212 385 OFFCURVE",
"273 443 OFFCURVE",
"349 443 CURVE SMOOTH",
"385 443 OFFCURVE",
"422 430 OFFCURVE",
"459 396 CURVE",
"459 171 LINE",
"423 128 OFFCURVE",
"385 109 OFFCURVE"
);
},
{
closed = 1;
nodes = (
"272 653 LINE",
"600 653 LINE",
"687 660 LINE",
"687 728 LINE",
"272 728 LINE"
);
}
);
width = 700;
}
);
unicode = 0111;
},
{
glyphname = dezh;
lastChange = "2015-12-16 11:53:30 +0000";
layers = (
{
anchors = (
{
name = aboveUC;
position = "{326, 851}";
},
{
name = belowLC;
position = "{385, -261}";
}
);
layerId = "8A30092D-5DE4-432F-B813-0E7E8F54CAFB";
paths = (
{
closed = 1;
nodes = (
"184 -14 CURVE SMOOTH",
"244 -14 OFFCURVE",
"289 33 OFFCURVE",
"312 78 CURVE",
"314 78 LINE",
"322 0 LINE",
"368 0 LINE",
"368 836 LINE",
"311 836 LINE",
"311 615 LINE",
"315 501 LINE",
"312 501 LINE",
"289 541 OFFCURVE",
"251 576 OFFCURVE",
"199 576 CURVE SMOOTH",
"97 576 OFFCURVE",
"7 461 OFFCURVE",
"7 281 CURVE SMOOTH",
"7 92 OFFCURVE",
"80 -14 OFFCURVE"
);
},
{
closed = 1;
nodes = (
"196 44 CURVE SMOOTH",
"118 44 OFFCURVE",
"70 137 OFFCURVE",
"70 281 CURVE SMOOTH",
"70 417 OFFCURVE",
"129 519 OFFCURVE",
"206 519 CURVE SMOOTH",
"251 519 OFFCURVE",
"281 489 OFFCURVE",
"311 442 CURVE",
"311 141 LINE",
"282 87 OFFCURVE",
"244 44 OFFCURVE"
);
},
{
closed = 1;
nodes = (
"538 -263 CURVE SMOOTH",
"636 -263 OFFCURVE",
"721 -177 OFFCURVE",
"721 -13 CURVE SMOOTH",
"721 125 OFFCURVE",
"651 211 OFFCURVE",
"541 212 CURVE",
"525 210 OFFCURVE",
"502 205 OFFCURVE",
"475 192 CURVE",
"490 174 LINE",
"697 527 LINE",
"697 562 LINE",
"356 562 LINE",
"356 506 LINE",
"621 506 LINE",
"432 183 LINE",
"462 138 LINE",
"485 151 OFFCURVE",
"501 158 OFFCURVE",
"530 158 CURVE SMOOTH",
"607 158 OFFCURVE",
"657 95 OFFCURVE",
"657 -14 CURVE SMOOTH",
"657 -140 OFFCURVE",
"603 -205 OFFCURVE",
"535 -205 CURVE SMOOTH",
"469 -205 OFFCURVE",
"435 -179 OFFCURVE",
"400 -144 CURVE",
"367 -190 LINE",
"408 -230 OFFCURVE",
"453 -263 OFFCURVE"
);
}
);
width = 700;
},
{
anchors = (
{
name = aboveUC;
position = "{326, 851}";
},
{
name = belowLC;
position = "{385, -244}";
}
);
layerId = "70058D0C-C9A7-4421-A18D-CF261F8AA98E";
paths = (
{
closed = 1;
nodes = (
"174 -14 CURVE SMOOTH",
"219 -14 OFFCURVE",
"255 14 OFFCURVE",
"283 57 CURVE",
"286 57 LINE",
"300 0 LINE",
"389 0 LINE",
"389 821 LINE",
"274 821 LINE",
"274 638 LINE",
"281 530 LINE",
"279 530 LINE",
"254 566 OFFCURVE",
"218 589 OFFCURVE",
"177 589 CURVE SMOOTH",
"76 589 OFFCURVE",
"-4 470 OFFCURVE",
"-4 287 CURVE SMOOTH",
"-4 101 OFFCURVE",
"70 -14 OFFCURVE"
);
},
{
closed = 1;
nodes = (
"208 109 CURVE SMOOTH",
"158 109 OFFCURVE",
"125 172 OFFCURVE",
"125 289 CURVE SMOOTH",
"125 403 OFFCURVE",
"162 467 OFFCURVE",
"210 467 CURVE SMOOTH",
"236 467 OFFCURVE",
"257 449 OFFCURVE",
"274 420 CURVE",
"274 176 LINE",
"261 136 OFFCURVE",
"236 109 OFFCURVE"
);
},
{
closed = 1;
nodes = (
"518 -236 CURVE SMOOTH",
"642 -236 OFFCURVE",
"721 -129 OFFCURVE",
"721 22 CURVE SMOOTH",
"721 159 OFFCURVE",
"652 249 OFFCURVE",
"542 253 CURVE",
"538 247 OFFCURVE",
"531 240 OFFCURVE",
"523 230 CURVE",
"534 209 LINE",
"695 496 LINE",
"695 575 LINE",
"353 575 LINE",
"353 457 LINE",
"557 457 LINE",
"416 217 LINE",
"463 134 LINE",
"480 143 OFFCURVE",
"488 146 OFFCURVE",
"505 146 CURVE SMOOTH",
"553 146 OFFCURVE",
"591 104 OFFCURVE",
"591 24 CURVE SMOOTH",
"591 -72 OFFCURVE",
"552 -115 OFFCURVE",
"503 -115 CURVE SMOOTH",
"464 -115 OFFCURVE",
"436 -99 OFFCURVE",
"410 -74 CURVE",
"352 -171 LINE",
"393 -210 OFFCURVE",
"442 -236 OFFCURVE"
);
}
);
width = 700;
}
);
unicode = 02A4;
},
{
glyphname = dhook;
lastChange = "2015-12-16 11:53:30 +0000";
layers = (
{
anchors = (
{
name = aboveUC;
position = "{390, 861}";
},
{
name = belowLC;
position = "{350, -23}";
}
);
layerId = "8A30092D-5DE4-432F-B813-0E7E8F54CAFB";
paths = (
{
closed = 1;
nodes = (
"321 -14 CURVE SMOOTH",
"396 -14 OFFCURVE",
"467 30 OFFCURVE",
"515 80 CURVE",
"517 80 LINE",
"524 0 LINE",
"580 0 LINE",
"580 680 LINE SMOOTH",
"580 748 OFFCURVE",
"598 796 OFFCURVE",
"652 796 CURVE SMOOTH",
"668 796 OFFCURVE",
"682 792 OFFCURVE",
"693 787 CURVE",
"707 841 LINE",
"691 848 OFFCURVE",
"670 852 OFFCURVE",
"647 852 CURVE SMOOTH",
"562 852 OFFCURVE",
"514 797 OFFCURVE",
"514 690 CURVE",
"514 609 LINE",
"517 499 LINE",
"514 499 LINE",
"460 548 OFFCURVE",
"405 576 OFFCURVE",
"336 576 CURVE SMOOTH",
"199 576 OFFCURVE",
"76 462 OFFCURVE",
"76 281 CURVE SMOOTH",
"76 92 OFFCURVE",
"175 -14 OFFCURVE"
);
},
{
closed = 1;
nodes = (
"333 44 CURVE SMOOTH",
"215 44 OFFCURVE",
"145 137 OFFCURVE",
"145 281 CURVE SMOOTH",
"144.994 416.994 OFFCURVE",
"233 519 OFFCURVE",
"343 519 CURVE SMOOTH",
"398 519 OFFCURVE",
"454 497 OFFCURVE",
"513 442 CURVE",
"513 140 LINE",
"455 77 OFFCURVE",
"394 44 OFFCURVE"
);
}
);
width = 700;
},
{
anchors = (
{
name = aboveUC;
position = "{495, 855}";
},
{
name = belowLC;
position = "{350, -23}";
}
);
layerId = "70058D0C-C9A7-4421-A18D-CF261F8AA98E";
paths = (
{
closed = 1;
nodes = (
"300 -14 CURVE SMOOTH",
"360 -14 OFFCURVE",
"422 20 OFFCURVE",
"465 64 CURVE",
"468 64 LINE",
"479 0 LINE",
"602 0 LINE",
"602 628 LINE SMOOTH",
"602 687 OFFCURVE",
"619 718 OFFCURVE",
"665 718 CURVE SMOOTH",
"676 718 OFFCURVE",
"684 716 OFFCURVE",
"693 713 CURVE",
"720 824 LINE",
"701 831 OFFCURVE",
"678 836 OFFCURVE",
"643 836 CURVE SMOOTH",
"510 836 OFFCURVE",
"457 757 OFFCURVE",
"457 654 CURVE",
"457 618 LINE",
"459 524 LINE",
"456 524 LINE",
"414 565 OFFCURVE",
"368 589 OFFCURVE",
"305 589 CURVE SMOOTH",
"180 589 OFFCURVE",
"59 475 OFFCURVE",
"59 287 CURVE SMOOTH",
"59 99 OFFCURVE",
"154 -14 OFFCURVE"
);
},
{
closed = 1;
nodes = (
"337 109 CURVE SMOOTH",
"259 109 OFFCURVE",
"212 169 OFFCURVE",
"212 289 CURVE SMOOTH",
"212 404 OFFCURVE",
"271 467 OFFCURVE",
"339 467 CURVE SMOOTH",
"375 467 OFFCURVE",
"416 454 OFFCURVE",
"453 420 CURVE",
"453 171 LINE",
"418 128 OFFCURVE",
"380 109 OFFCURVE"
);
}
);
width = 700;
}
);
unicode = 0257;
},
{
glyphname = dotlessjstroke;
lastChange = "2015-12-16 11:53:30 +0000";
layers = (
{
anchors = (
{
name = aboveLC;
position = "{407, 587}";
},
{
name = belowLC;
position = "{272, -261}";
}
);
components = (
{
name = dotlessj;
}
);
layerId = "8A30092D-5DE4-432F-B813-0E7E8F54CAFB";
paths = (
{
closed = 1;
nodes = (
"152 265 LINE",
"659 265 LINE",
"659 309 LINE",
"385 309 LINE",
"152 303 LINE"
);
}
);
width = 700;
},
{
anchors = (
{
name = aboveLC;
position = "{403, 599}";
},
{
name = belowLC;
position = "{284, -244}";
}
);
components = (
{
name = dotlessj;
}
);
layerId = "70058D0C-C9A7-4421-A18D-CF261F8AA98E";
paths = (
{
closed = 1;
nodes = (
"129 231 LINE",
"653 231 LINE",
"653 305 LINE",
"338 305 LINE",
"129 299 LINE"
);
}
);
width = 700;
}
);
unicode = 025F;
},
{
glyphname = dotlessjstrokehook;
lastChange = "2015-12-16 11:53:30 +0000";
layers = (
{
anchors = (
{
name = aboveUC;
position = "{409, 861}";
},
{
name = belowLC;
position = "{312, -261}";
}
);
components = (
{
name = esh;
}
);
layerId = "8A30092D-5DE4-432F-B813-0E7E8F54CAFB";
paths = (
{
closed = 1;
nodes = (
"101 274 LINE",
"597 274 LINE",
"597 318 LINE",
"318 318 LINE",
"101 312 LINE"
);
}
);
width = 700;
},
{
anchors = (
{
name = aboveUC;
position = "{444, 855}";
},
{
name = belowLC;
position = "{275, -244}";
}
);
components = (
{
name = esh;
}
);
layerId = "70058D0C-C9A7-4421-A18D-CF261F8AA98E";
paths = (
{
closed = 1;
nodes = (
"96 264 LINE",
"608 264 LINE",
"608 338 LINE",
"280 338 LINE",
"96 331 LINE"
);
}
);
width = 700;
}
);
unicode = 0284;
},
{
glyphname = dtail;
lastChange = "2015-12-16 11:53:30 +0000";
layers = (
{
anchors = (
{
name = aboveUC;
position = "{381, 861}";
},
{
name = belowLC;
position = "{354, -261}";
}
);
layerId = "8A30092D-5DE4-432F-B813-0E7E8F54CAFB";
paths = (
{
closed = 1;
nodes = (
"638 -207 CURVE SMOOTH",
"663 -207 OFFCURVE",
"688 -200 OFFCURVE",
"702 -193 CURVE",
"688 -140 LINE",
"676 -144 OFFCURVE",
"659 -151 OFFCURVE",
"643 -151 CURVE SMOOTH",
"594 -151 OFFCURVE",
"580 -107 OFFCURVE",
"580 -40 CURVE",
"580 836 LINE",
"513 836 LINE",
"513 609 LINE",
"518 499 LINE",
"514 499 LINE",
"461 547 OFFCURVE",
"406 576 OFFCURVE",
"336 576 CURVE SMOOTH",
"199 576 OFFCURVE",
"76 462 OFFCURVE",
"76 281 CURVE SMOOTH",
"76 92 OFFCURVE",
"175 -14 OFFCURVE",
"322 -14 CURVE SMOOTH",
"396 -14 OFFCURVE",
"468 28 OFFCURVE",
"514 78 CURVE",
"518 78 LINE",
"515 -54 LINE",
"515 -156 OFFCURVE",
"554 -207 OFFCURVE"
);
},
{
closed = 1;
nodes = (
"333 44 CURVE SMOOTH",
"216 44 OFFCURVE",
"145 137 OFFCURVE",
"145 281 CURVE SMOOTH",
"144.994 416.994 OFFCURVE",
"234 519 OFFCURVE",
"344 519 CURVE SMOOTH",
"399 519 OFFCURVE",
"455 497 OFFCURVE",
"513 442 CURVE",
"513 140 LINE",
"456 77 OFFCURVE",
"395 44 OFFCURVE"
);
}
);
width = 700;
},
{
anchors = (
{
name = aboveUC;
position = "{462, 855}";
},
{
name = belowLC;
position = "{366, -244}";
}
);
layerId = "70058D0C-C9A7-4421-A18D-CF261F8AA98E";
paths = (
{
closed = 1;
nodes = (
"634 -200 CURVE SMOOTH",
"673 -200 OFFCURVE",
"699 -193 OFFCURVE",
"719 -185 CURVE",
"692 -74 LINE",
"680 -78 OFFCURVE",
"669 -83 OFFCURVE",
"656 -83 CURVE SMOOTH",
"616 -83 OFFCURVE",
"603 -54 OFFCURVE",
"603 6 CURVE",
"603 821 LINE",
"454 821 LINE",
"454 618 LINE",
"462 524 LINE",
"457 524 LINE",
"416 564 OFFCURVE",
"373 589 OFFCURVE",
"307 589 CURVE SMOOTH",
"181 589 OFFCURVE",
"59 475 OFFCURVE",
"59 287 CURVE SMOOTH",
"59 99 OFFCURVE",
"156 -14 OFFCURVE",
"301 -14 CURVE SMOOTH",
"360 -14 OFFCURVE",
"418 16 OFFCURVE",
"457 57 CURVE",
"462 57 LINE",
"459 -29 LINE",
"459 -125 OFFCURVE",
"514 -200 OFFCURVE"
);
},
{
closed = 1;
nodes = (
"339 109 CURVE SMOOTH",
"261 109 OFFCURVE",
"212 169 OFFCURVE",
"212 289 CURVE SMOOTH",
"212 404 OFFCURVE",
"272 467 OFFCURVE",
"340 467 CURVE SMOOTH",
"377 467 OFFCURVE",
"417 454 OFFCURVE",
"454 420 CURVE",
"454 171 LINE",
"419 128 OFFCURVE",
"381 109 OFFCURVE"
);
}
);
width = 700;
}
);
unicode = 0256;
},
{
glyphname = e;
lastChange = "2015-12-16 11:53:30 +0000";
layers = (
{
anchors = (
{
name = aboveLC;
position = "{371, 587}";
},
{
name = baseLC;
position = "{371, 0}";
},
{
name = belowLC;
position = "{371, -23}";
},
{
name = ogonekLC;
position = "{472, 0}";
}
);
layerId = "8A30092D-5DE4-432F-B813-0E7E8F54CAFB";
paths = (
{
closed = 1;
nodes = (
"385 -14 CURVE SMOOTH",
"480 -14 OFFCURVE",
"546 18 OFFCURVE",
"599 52 CURVE",
"573 100 LINE",
"521 64 OFFCURVE",
"463 42 OFFCURVE",
"390 42 CURVE SMOOTH",
"260 42 OFFCURVE",
"154 125 OFFCURVE",
"154 282 CURVE SMOOTH",
"154 434 OFFCURVE",
"258 521 OFFCURVE",
"371 521 CURVE SMOOTH",
"485 521 OFFCURVE",
"562 448 OFFCURVE",
"562 298 CURVE",
"584 320 LINE",
"125 320 LINE",
"125 269 LINE",
"619 269 LINE",
"621 282 OFFCURVE",
"622 299 OFFCURVE",
"622 315 CURVE SMOOTH",
"622 475 OFFCURVE",
"525 576 OFFCURVE",
"369 576 CURVE SMOOTH",
"222 576 OFFCURVE",
"86 464 OFFCURVE",
"86 281 CURVE SMOOTH",
"86 96 OFFCURVE",
"221 -14 OFFCURVE"
);
}
);
width = 700;
},
{
anchors = (
{
name = aboveLC;
position = "{365, 599}";
},
{
name = baseLC;
position = "{365, 0}";
},
{
name = belowLC;
position = "{365, -23}";
},
{
name = ogonekLC;
position = "{468, 0}";
}
);
layerId = "70058D0C-C9A7-4421-A18D-CF261F8AA98E";
paths = (
{
closed = 1;
nodes = (
"385 -14 CURVE SMOOTH",
"466.006 -14 OFFCURVE",
"548 12 OFFCURVE",
"611 53 CURVE",
"561 145 LINE",
"509 116 OFFCURVE",
"461 101 OFFCURVE",
"404 101 CURVE SMOOTH",
"288 101 OFFCURVE",
"215 160 OFFCURVE",
"215 288 CURVE SMOOTH",
"215 411 OFFCURVE",
"280 474 OFFCURVE",
"371 474 CURVE SMOOTH",
"455 474 OFFCURVE",
"503 420 OFFCURVE",
"503 315 CURVE",
"529 345 LINE",
"178 345 LINE",
"178 246 LINE",
"628 246 LINE",
"630 259 OFFCURVE",
"634 287 OFFCURVE",
"634 315 CURVE SMOOTH",
"634 473 OFFCURVE",
"539 589 OFFCURVE",
"366 589 CURVE SMOOTH",
"214 589 OFFCURVE",
"69 476 OFFCURVE",
"69 287 CURVE SMOOTH",
"69 97 OFFCURVE",
"209 -14 OFFCURVE"
);
}
);
width = 700;
}
);
unicode = 0065;
},
{
glyphname = eogonek;
lastChange = "2015-12-16 11:53:30 +0000";
layers = (
{
anchors = (
{
name = aboveLC;
position = "{368, 587}";
}
);
layerId = "8A30092D-5DE4-432F-B813-0E7E8F54CAFB";
paths = (
{
closed = 1;
nodes = (
"495 -262 CURVE SMOOTH",
"542 -262 OFFCURVE",
"572 -245 OFFCURVE",
"596 -220 CURVE",
"571 -186 LINE",
"557 -201 OFFCURVE",
"536 -214 OFFCURVE",
"506 -214 CURVE SMOOTH",
"471 -214 OFFCURVE",
"435 -191 OFFCURVE",
"435 -145 CURVE SMOOTH",
"435 -80 OFFCURVE",
"480 -33 OFFCURVE",
"599 52 CURVE",
"573 100 LINE",
"523 64 OFFCURVE",
"464 42 OFFCURVE",
"390 42 CURVE SMOOTH",
"260 42 OFFCURVE",
"154 125 OFFCURVE",
"154 282 CURVE SMOOTH",
"154 434 OFFCURVE",
"258 521 OFFCURVE",
"371 521 CURVE SMOOTH",
"485 521 OFFCURVE",
"562 448 OFFCURVE",
"562 298 CURVE",
"584 320 LINE",
"125 320 LINE",
"125 269 LINE",
"619 269 LINE",
"621 282 OFFCURVE",
"622 299 OFFCURVE",
"622 315 CURVE SMOOTH",
"622 475 OFFCURVE",
"525 576 OFFCURVE",
"369 576 CURVE SMOOTH",
"222 576 OFFCURVE",
"86 464 OFFCURVE",
"86 281 CURVE SMOOTH",
"86 96 OFFCURVE",
"221 -14 OFFCURVE",
"385 -14 CURVE SMOOTH",
"419 -14 OFFCURVE",
"452 -15 OFFCURVE",
"509 12 CURVE",
"505 20 LINE",
"433 -27 OFFCURVE",
"381 -83 OFFCURVE",
"381 -157 CURVE SMOOTH",
"381 -228 OFFCURVE",
"432 -262 OFFCURVE"
);
}
);
width = 700;
},
{
anchors = (
{
name = aboveLC;
position = "{364, 599}";
}
);
layerId = "70058D0C-C9A7-4421-A18D-CF261F8AA98E";
paths = (
{
closed = 1;
nodes = (
"486 -264 CURVE SMOOTH",
"531 -264 OFFCURVE",
"580 -249 OFFCURVE",
"611 -222 CURVE",
"577 -155 LINE",
"563 -165 OFFCURVE",
"544 -174 OFFCURVE",
"520 -174 CURVE SMOOTH",
"487 -174 OFFCURVE",
"457 -155 OFFCURVE",
"457 -117 CURVE SMOOTH",
"457 -64 OFFCURVE",
"492 -27 OFFCURVE",
"611 53 CURVE",
"561 145 LINE",
"510 116 OFFCURVE",
"461 101 OFFCURVE",
"404 101 CURVE SMOOTH",
"288 101 OFFCURVE",
"215 160 OFFCURVE",
"215 288 CURVE SMOOTH",
"215 411 OFFCURVE",
"280 474 OFFCURVE",
"371 474 CURVE SMOOTH",
"455 474 OFFCURVE",
"503 420 OFFCURVE",
"503 315 CURVE",
"529 345 LINE",
"178 345 LINE",
"178 246 LINE",
"628 246 LINE",
"630 259 OFFCURVE",
"634 287 OFFCURVE",
"634 315 CURVE SMOOTH",
"634 473 OFFCURVE",
"539 589 OFFCURVE",
"366 589 CURVE SMOOTH",
"214 589 OFFCURVE",
"69 476 OFFCURVE",
"69 287 CURVE SMOOTH",
"69 97 OFFCURVE",
"209 -14 OFFCURVE",
"385 -14 CURVE SMOOTH",
"407 -14 OFFCURVE",
"434 -13 OFFCURVE",
"473 0 CURVE",
"466 13 LINE",
"396 -36 OFFCURVE",
"355 -85 OFFCURVE",
"355 -151 CURVE SMOOTH",
"355 -226 OFFCURVE",
"411 -264 OFFCURVE"
);
}
);
width = 700;
}
);
unicode = 0119;
},
{
glyphname = eopen;
lastChange = "2015-12-16 11:53:30 +0000";
layers = (
{
anchors = (
{
name = aboveLC;
position = "{385, 587}";
},
{
name = baseLC;
position = "{371, 0}";
},
{
name = belowLC;
position = "{371, -23}";
}
);
layerId = "8A30092D-5DE4-432F-B813-0E7E8F54CAFB";
paths = (
{
closed = 1;
nodes = (
"372 -14 CURVE SMOOTH",
"469 -14 OFFCURVE",
"548.006 7 OFFCURVE",
"619 70 CURVE",
"587 116 LINE",
"527 60 OFFCURVE",
"459 42 OFFCURVE",
"380 42 CURVE SMOOTH",
"259 42 OFFCURVE",
"184 83 OFFCURVE",
"184 158 CURVE SMOOTH",
"184 232 OFFCURVE",
"258 269 OFFCURVE",
"390 269 CURVE",
"462 269 LINE",
"462 320 LINE",
"406 320 LINE",
"279 320 OFFCURVE",
"215 359 OFFCURVE",
"215 422 CURVE SMOOTH",
"215 489 OFFCURVE",
"277 521 OFFCURVE",
"379 521 CURVE SMOOTH",
"464 521 OFFCURVE",
"518 497 OFFCURVE",
"574 457 CURVE",
"604 501 LINE",
"545 546 OFFCURVE",
"476 576 OFFCURVE",
"377 576 CURVE SMOOTH",
"244 576 OFFCURVE",
"147 527 OFFCURVE",
"147 429 CURVE SMOOTH",
"147 370 OFFCURVE",
"188 327 OFFCURVE",
"249 300 CURVE",
"249 296 LINE",
"176 277 OFFCURVE",
"116 236 OFFCURVE",
"116 153 CURVE SMOOTH",
"116 49 OFFCURVE",
"216 -14 OFFCURVE"
);
}
);
width = 700;
},
{
anchors = (
{
name = aboveLC;
position = "{385, 599}";
},
{
name = baseLC;
position = "{365, 0}";
},
{
name = belowLC;
position = "{365, -23}";
}
);
layerId = "70058D0C-C9A7-4421-A18D-CF261F8AA98E";
paths = (
{
closed = 1;
nodes = (
"369 -14 CURVE SMOOTH",
"482.994 -14 OFFCURVE",
"561 7 OFFCURVE",
"633 66 CURVE",
"573 161 LINE",
"527 122 OFFCURVE",
"467 101 OFFCURVE",
"397 101 CURVE SMOOTH",
"287 101 OFFCURVE",
"236 128 OFFCURVE",
"236 178 CURVE SMOOTH",
"236 226 OFFCURVE",
"283 246 OFFCURVE",
"378 246 CURVE",
"469 246 LINE",
"469 345 LINE",
"396 345 LINE",
"308 345 OFFCURVE",
"262 366 OFFCURVE",
"262 408 CURVE SMOOTH",
"262 451 OFFCURVE",
"303 474 OFFCURVE",
"394 474 CURVE SMOOTH",
"459 474 OFFCURVE",
"515 458 OFFCURVE",
"567 426 CURVE",
"621 520 LINE",
"556 563 OFFCURVE",
"473 589 OFFCURVE",
"386 589 CURVE SMOOTH",
"229 589 OFFCURVE",
"116 541 OFFCURVE",
"116 429 CURVE SMOOTH",
"116 379 OFFCURVE",
"154 329 OFFCURVE",
"223 306 CURVE",
"223 302 LINE",
"142 282 OFFCURVE",
"89 243 OFFCURVE",
"89 163 CURVE SMOOTH",
"89 48 OFFCURVE",
"208 -14 OFFCURVE"
);
}
);
width = 700;
}
);
unicode = 025B;
},
{
glyphname = eopenreversedclosed;
lastChange = "2015-12-16 11:53:30 +0000";
layers = (
{
anchors = (
{
name = aboveLC;
position = "{373, 587}";
},
{
name = belowLC;
position = "{351, -23}";
}
);
layerId = "8A30092D-5DE4-432F-B813-0E7E8F54CAFB";
paths = (
{
closed = 1;
nodes = (
"383 -14 CURVE SMOOTH",
"535 -14 OFFCURVE",
"623 49 OFFCURVE",
"623 153 CURVE SMOOTH",
"623 235 OFFCURVE",
"560 280 OFFCURVE",
"495 296 CURVE",
"495 300 LINE",
"556 323 OFFCURVE",
"592 372 OFFCURVE",
"592 429 CURVE SMOOTH",
"592 527 OFFCURVE",
"501 576 OFFCURVE",
"378 576 CURVE SMOOTH",
"216 576 OFFCURVE",
"76 470 OFFCURVE",
"76 275 CURVE SMOOTH",
"76 84 OFFCURVE",
"204 -14 OFFCURVE"
);
},
{
closed = 1;
nodes = (
"383 42 CURVE SMOOTH",
"234 42 OFFCURVE",
"144 125 OFFCURVE",
"144 275 CURVE SMOOTH",
"144 424 OFFCURVE",
"245 521 OFFCURVE",
"380 521 CURVE SMOOTH",
"466 521 OFFCURVE",
"525 489 OFFCURVE",
"525 422 CURVE SMOOTH",
"525 363 OFFCURVE",
"470 320 OFFCURVE",
"375 320 CURVE SMOOTH",
"346 320 LINE",
"346 269 LINE",
"389 269 LINE SMOOTH",
"484 269 OFFCURVE",
"555 228 OFFCURVE",
"555 158 CURVE SMOOTH",
"555 83 OFFCURVE",
"495 42 OFFCURVE"
);
}
);
width = 700;
},
{
anchors = (
{
name = aboveLC;
position = "{373, 599}";
},
{
name = belowLC;
position = "{353, -23}";
}
);
layerId = "70058D0C-C9A7-4421-A18D-CF261F8AA98E";
paths = (
{
closed = 1;
nodes = (
"371 -14 CURVE SMOOTH",
"525 -14 OFFCURVE",
"634 48 OFFCURVE",
"634 162 CURVE SMOOTH",
"634 241 OFFCURVE",
"584 286 OFFCURVE",
"507 300 CURVE",
"507 305 LINE",
"577 324 OFFCURVE",
"608 374 OFFCURVE",
"608 428 CURVE SMOOTH",
"608 540 OFFCURVE",
"499 589 OFFCURVE",
"367 589 CURVE SMOOTH",
"206 589 OFFCURVE",
"59 487 OFFCURVE",
"59 285 CURVE SMOOTH",
"59 85 OFFCURVE",
"193 -14 OFFCURVE"
);
},
{
closed = 1;
nodes = (
"375 101 CURVE SMOOTH",
"270 101 OFFCURVE",
"207 153 OFFCURVE",
"207 285 CURVE SMOOTH",
"207 411 OFFCURVE",
"275 474 OFFCURVE",
"374 474 CURVE SMOOTH",
"430 474 OFFCURVE",
"466 451 OFFCURVE",
"466 409 CURVE SMOOTH",
"466 368 OFFCURVE",
"431 345 OFFCURVE",
"375 345 CURVE SMOOTH",
"341 345 LINE",
"341 246 LINE",
"379 246 LINE SMOOTH",
"442 246 OFFCURVE",
"487 224 OFFCURVE",
"487 177 CURVE SMOOTH",
"487 128 OFFCURVE",
"444 101 OFFCURVE"
);
}
);
width = 700;
}
);
unicode = 025E;
},
{
glyphname = ereversed;
lastChange = "2015-12-16 11:53:30 +0000";
layers = (
{
anchors = (
{
name = aboveLC;
position = "{354, 587}";
},
{
name = belowLC;
position = "{340, -23}";
}
);
layerId = "8A30092D-5DE4-432F-B813-0E7E8F54CAFB";
paths = (
{
closed = 1;
nodes = (
"315 -14 CURVE SMOOTH",
"478.006 -14 OFFCURVE",
"612 96 OFFCURVE",
"612 281 CURVE SMOOTH",
"612 464 OFFCURVE",
"490 576 OFFCURVE",
"343 576 CURVE SMOOTH",
"188 576 OFFCURVE",
"77 475 OFFCURVE",
"77 315 CURVE SMOOTH",
"77 299 OFFCURVE",
"78 282 OFFCURVE",
"80 269 CURVE",
"574 269 LINE",
"574 320 LINE",
"114 320 LINE",
"137 298 LINE",
"137 448 OFFCURVE",
"226 521 OFFCURVE",
"340 521 CURVE SMOOTH",
"452 521 OFFCURVE",
"545 434 OFFCURVE",
"545 282 CURVE SMOOTH",
"545 125 OFFCURVE",
"439 42 OFFCURVE",
"309 42 CURVE SMOOTH",
"236 42 OFFCURVE",
"178 64 OFFCURVE",
"126 100 CURVE",
"100 52 LINE",
"153 18 OFFCURVE",
"218 -14 OFFCURVE"
);
}
);
width = 700;
},
{
anchors = (
{
name = aboveLC;
position = "{366, 599}";
},
{
name = belowLC;
position = "{346, -23}";
}
);
layerId = "70058D0C-C9A7-4421-A18D-CF261F8AA98E";
paths = (
{
closed = 1;
nodes = (
"315 -14 CURVE SMOOTH",
"490 -14 OFFCURVE",
"630 97 OFFCURVE",
"630 287 CURVE SMOOTH",
"630 476 OFFCURVE",
"498 589 OFFCURVE",
"345 589 CURVE SMOOTH",
"172 589 OFFCURVE",
"65 473 OFFCURVE",
"65 315 CURVE SMOOTH",
"65 287 OFFCURVE",
"69 259 OFFCURVE",
"71 246 CURVE",
"522 246 LINE",
"522 345 LINE",
"170 345 LINE",
"196 315 LINE",
"196 420 OFFCURVE",
"249 474 OFFCURVE",
"333 474 CURVE SMOOTH",
"424 474 OFFCURVE",
"485 411 OFFCURVE",
"485 288 CURVE SMOOTH",
"485 160 OFFCURVE",
"411 101 OFFCURVE",
"295 101 CURVE SMOOTH",
"238 101 OFFCURVE",
"190 116 OFFCURVE",
"138 145 CURVE",
"89 53 LINE",
"152 12 OFFCURVE",
"233 -14 OFFCURVE"
);
}
);
width = 700;
}
);
unicode = 0258;
},
{
glyphname = esh;
lastChange = "2015-12-16 11:53:30 +0000";
layers = (
{
anchors = (
{
name = aboveUC;
position = "{409, 861}";
},
{
name = belowLC;
position = "{312, -261}";
}
);
layerId = "8A30092D-5DE4-432F-B813-0E7E8F54CAFB";
paths = (
{
closed = 1;
nodes = (
"219 -263 CURVE SMOOTH",
"335 -263 OFFCURVE",
"385 -190 OFFCURVE",
"385 -52 CURVE SMOOTH",
"385 640 LINE SMOOTH",
"385 731 OFFCURVE",
"405 796 OFFCURVE",
"500 796 CURVE SMOOTH",
"539 796 OFFCURVE",
"566 783 OFFCURVE",
"602 764 CURVE",
"623 816 LINE",
"579 838 OFFCURVE",
"546 852 OFFCURVE",
"496 852 CURVE SMOOTH",
"371 852 OFFCURVE",
"318 780 OFFCURVE",
"318 642 CURVE SMOOTH",
"318 -50 LINE",
"318 -142 OFFCURVE",
"300 -206 OFFCURVE",
"215 -206 CURVE SMOOTH",
"170 -206 OFFCURVE",
"131 -191 OFFCURVE",
"95 -174 CURVE",
"71 -225 LINE",
"117 -249 OFFCURVE",
"162 -263 OFFCURVE"
);
}
);
width = 700;
},
{
anchors = (
{
name = aboveUC;
position = "{444, 855}";
},
{
name = belowLC;
position = "{275, -244}";
}
);
layerId = "70058D0C-C9A7-4421-A18D-CF261F8AA98E";
paths = (
{
closed = 1;
nodes = (
"216 -236 CURVE SMOOTH",
"375 -236 OFFCURVE",
"426 -135 OFFCURVE",
"426 -2 CURVE SMOOTH",
"426 605 LINE SMOOTH",
"426 679 OFFCURVE",
"448 718 OFFCURVE",
"521 718 CURVE SMOOTH",
"551 718 OFFCURVE",
"576 709 OFFCURVE",
"608 694 CURVE",
"647 802 LINE",
"607 819 OFFCURVE",
"565 836 OFFCURVE",
"499 836 CURVE SMOOTH",
"332 836 OFFCURVE",
"277 735 OFFCURVE",
"277 601 CURVE SMOOTH",
"277 -5 LINE",
"277 -79 OFFCURVE",
"259 -118 OFFCURVE",
"194 -118 CURVE SMOOTH",
"161 -118 OFFCURVE",
"131 -108 OFFCURVE",
"98 -93 CURVE",
"54 -198 LINE",
"98 -219 OFFCURVE",
"144 -236 OFFCURVE"
);
}
);
width = 700;
}
);
unicode = 0283;
},
{
glyphname = ezh;
lastChange = "2015-12-16 11:53:30 +0000";
layers = (
{
anchors = (
{
name = aboveLC;
position = "{358, 587}";
},
{
name = belowLC;
position = "{336, -265}";
}
);
layerId = "8A30092D-5DE4-432F-B813-0E7E8F54CAFB";
paths = (
{
closed = 1;
nodes = (
"338 -263 CURVE SMOOTH",
"478 -263 OFFCURVE",
"612 -171 OFFCURVE",
"612 -6 CURVE SMOOTH",
"612 135 OFFCURVE",
"517 222 OFFCURVE",
"355 222 CURVE SMOOTH",
"332 222 OFFCURVE",
"296 219 OFFCURVE",
"257 202 CURVE",
"265 192 LINE",
"588 527 LINE",
"588 562 LINE",
"122 562 LINE",
"122 506 LINE",
"495 506 LINE",
"178 182 LINE",
"210 139 LINE",
"254 161 OFFCURVE",
"276 171 OFFCURVE",
"328 171 CURVE SMOOTH",
"468 171 OFFCURVE",
"543 102 OFFCURVE",
"543 -9 CURVE SMOOTH",
"543 -127 OFFCURVE",
"447 -205 OFFCURVE",
"335 -205 CURVE SMOOTH",
"223 -205 OFFCURVE",
"160 -158 OFFCURVE",
"108 -107 CURVE",
"72 -152 LINE",
"129 -205 OFFCURVE",
"204 -263 OFFCURVE"
);
}
);
width = 700;
},
{
anchors = (
{
name = aboveLC;
position = "{349, 599}";
},
{
name = belowLC;
position = "{330, -258}";
}
);
layerId = "70058D0C-C9A7-4421-A18D-CF261F8AA98E";
paths = (
{
closed = 1;
nodes = (
"330 -236 CURVE SMOOTH",
"485 -236 OFFCURVE",
"620 -140 OFFCURVE",
"620 32 CURVE SMOOTH",
"620 156 OFFCURVE",
"526 253 OFFCURVE",
"378 253 CURVE SMOOTH",
"354 253 OFFCURVE",
"336 248 OFFCURVE",
"311 235 CURVE",
"334 219 LINE",
"593 496 LINE",
"593 575 LINE",
"104 575 LINE",
"104 457 LINE",
"411 457 LINE",
"163 205 LINE",
"214 131 LINE",
"254 148 OFFCURVE",
"269 156 OFFCURVE",
"313 156 CURVE SMOOTH",
"410 156 OFFCURVE",
"469 108 OFFCURVE",
"469 28 CURVE SMOOTH",
"469 -61 OFFCURVE",
"402 -115 OFFCURVE",
"314 -115 CURVE SMOOTH",
"236 -115 OFFCURVE",
"179 -78 OFFCURVE",
"132 -34 CURVE",
"63 -128 LINE",
"123 -184 OFFCURVE",
"204 -236 OFFCURVE"
);
}
);
width = 700;
}
);
unicode = 0292;
userData = {
com.typemytype.robofont.guides = (
);
};
},
{
glyphname = f;
lastChange = "2015-12-16 11:53:30 +0000";
layers = (
{
anchors = (
{
name = aboveUC;
position = "{493, 861}";
},
{
name = baseLC;
position = "{349, 0}";
},
{
name = belowLC;
position = "{339, -23}";
}
);
layerId = "8A30092D-5DE4-432F-B813-0E7E8F54CAFB";
paths = (
{
closed = 1;
nodes = (
"296 0 LINE",
"361 0 LINE",
"361 627 LINE SMOOTH",
"361 727 OFFCURVE",
"405 793 OFFCURVE",
"517 793 CURVE SMOOTH",
"569 793 OFFCURVE",
"603 788 OFFCURVE",
"652 765 CURVE",
"671 816 LINE",
"615 841 OFFCURVE",
"564 850 OFFCURVE",
"512 850 CURVE SMOOTH",
"366 850 OFFCURVE",
"296 763 OFFCURVE",
"296 623 CURVE SMOOTH"
);
},
{
closed = 1;
nodes = (
"130 506 LINE",
"613 506 LINE",
"613 562 LINE",
"297 562 LINE",
"130 557 LINE"
);
}
);
width = 700;
},
{
anchors = (
{
name = aboveUC;
position = "{484, 855}";
},
{
name = baseLC;
position = "{345, 0}";
},
{
name = belowLC;
position = "{341, -23}";
}
);
layerId = "70058D0C-C9A7-4421-A18D-CF261F8AA98E";
paths = (
{
closed = 1;
nodes = (
"259 0 LINE",
"407 0 LINE",
"407 601 LINE SMOOTH",
"407 678 OFFCURVE",
"444 717 OFFCURVE",
"526 717 CURVE SMOOTH",
"572 717 OFFCURVE",
"611 709 OFFCURVE",
"650 693 CURVE",
"680 803 LINE",
"630 821 OFFCURVE",
"571 835 OFFCURVE",
"508 835 CURVE SMOOTH",
"335 835 OFFCURVE",
"259 734 OFFCURVE",
"259 600 CURVE SMOOTH"
);
},
{
closed = 1;
nodes = (
"103 457 LINE",
"617 457 LINE",
"617 575 LINE",
"264 575 LINE",
"103 569 LINE"
);
}
);
width = 700;
}
);
unicode = 0066;
},
{
glyphname = g;
lastChange = "2015-12-16 11:53:30 +0000";
layers = (
{
anchors = (
{
name = aboveLC;
position = "{359, 587}";
},
{
name = belowLC;
position = "{360, -261}";
}
);
layerId = "8A30092D-5DE4-432F-B813-0E7E8F54CAFB";
paths = (
{
closed = 1;
nodes = (
"354 -267 CURVE SMOOTH",
"539 -267 OFFCURVE",
"656 -173 OFFCURVE",
"656 -73 CURVE SMOOTH",
"656 19 OFFCURVE",
"593 56 OFFCURVE",
"449 56 CURVE SMOOTH",
"314 56 LINE SMOOTH",
"237 56 OFFCURVE",
"189 78 OFFCURVE",
"189 129 CURVE SMOOTH",
"189 158 OFFCURVE",
"209 184 OFFCURVE",
"240 202 CURVE",
"274 187 OFFCURVE",
"310 178 OFFCURVE",
"342 178 CURVE SMOOTH",
"459 178 OFFCURVE",
"553 257 OFFCURVE",
"553 374 CURVE SMOOTH",
"553 430 OFFCURVE",
"524 477 OFFCURVE",
"492 508 CURVE",
"655 508 LINE",
"655 562 LINE",
"422 562 LINE",
"399 572 OFFCURVE",
"373 576 OFFCURVE",
"342 576 CURVE SMOOTH",
"226 576 OFFCURVE",
"129 493 OFFCURVE",
"129 375 CURVE SMOOTH",
"129 307 OFFCURVE",
"160 260 OFFCURVE",
"197 230 CURVE",
"197 225 LINE",
"153 196 OFFCURVE",
"129 155 OFFCURVE",
"129 119 CURVE SMOOTH",
"129 72 OFFCURVE",
"158 43 OFFCURVE",
"187 28 CURVE",
"187 24 LINE",
"127 -13 OFFCURVE",
"93 -62 OFFCURVE",
"93 -106 CURVE SMOOTH",
"93 -204 OFFCURVE",
"184 -267 OFFCURVE"
);
},
{
closed = 1;
nodes = (
"342 228 CURVE SMOOTH",
"261 228 OFFCURVE",
"195 288 OFFCURVE",
"195 375 CURVE SMOOTH",
"195 463 OFFCURVE",
"261 525 OFFCURVE",
"342 525 CURVE SMOOTH",
"423 525 OFFCURVE",
"489 463 OFFCURVE",
"489 375 CURVE SMOOTH",
"489 288 OFFCURVE",
"423 228 OFFCURVE"
);
},
{
closed = 1;
nodes = (
"355 -216 CURVE SMOOTH",
"221 -216 OFFCURVE",
"154 -168 OFFCURVE",
"154 -103 CURVE SMOOTH",
"154 -66 OFFCURVE",
"175 -28 OFFCURVE",
"238 6 CURVE",
"264 -1 OFFCURVE",
"294 -4 OFFCURVE",
"324 -4 CURVE SMOOTH",
"449 -4 LINE SMOOTH",
"543 -4 OFFCURVE",
"590 -23 OFFCURVE",
"590 -82 CURVE SMOOTH",
"590 -148 OFFCURVE",
"500 -216 OFFCURVE"
);
}
);
width = 700;
},
{
anchors = (
{
name = aboveLC;
position = "{355, 599}";
},
{
name = belowLC;
position = "{356, -244}";
}
);
layerId = "70058D0C-C9A7-4421-A18D-CF261F8AA98E";
paths = (
{
closed = 1;
nodes = (
"329 -250 CURVE SMOOTH",
"535 -250 OFFCURVE",
"665 -161 OFFCURVE",
"665 -45 CURVE SMOOTH",
"665 56 OFFCURVE",
"586 98 OFFCURVE",
"436 98 CURVE SMOOTH",
"323 98 LINE SMOOTH",
"254 98 OFFCURVE",
"219 112 OFFCURVE",
"219 148 CURVE SMOOTH",
"219 168 OFFCURVE",
"230 183 OFFCURVE",
"250 196 CURVE",
"281 187 OFFCURVE",
"309 182 OFFCURVE",
"335 182 CURVE SMOOTH",
"465 182 OFFCURVE",
"567 247 OFFCURVE",
"567 376 CURVE SMOOTH",
"567 412 OFFCURVE",
"551 444 OFFCURVE",
"534 465 CURVE",
"661 465 LINE",
"661 575 LINE",
"426 575 LINE",
"400 584 OFFCURVE",
"368 589 OFFCURVE",
"335 589 CURVE SMOOTH",
"207 589 OFFCURVE",
"94 515 OFFCURVE",
"94 381 CURVE SMOOTH",
"94 313 OFFCURVE",
"127 262 OFFCURVE",
"169 234 CURVE",
"169 229 LINE",
"127 200 OFFCURVE",
"100 159 OFFCURVE",
"100 120 CURVE SMOOTH",
"100 72 OFFCURVE",
"126 42 OFFCURVE",
"158 24 CURVE",
"158 19 LINE",
"99 -12 OFFCURVE",
"67 -53 OFFCURVE",
"67 -100 CURVE SMOOTH",
"67 -202 OFFCURVE",
"174 -250 OFFCURVE"
);
},
{
closed = 1;
nodes = (
"335 274 CURVE SMOOTH",
"279 274 OFFCURVE",
"235 313 OFFCURVE",
"235 381 CURVE SMOOTH",
"235 448 OFFCURVE",
"279 487 OFFCURVE",
"335 487 CURVE SMOOTH",
"389 487 OFFCURVE",
"435 448 OFFCURVE",
"435 381 CURVE SMOOTH",
"435 313 OFFCURVE",
"389 274 OFFCURVE"
);
},
{
closed = 1;
nodes = (
"348 -155 CURVE SMOOTH",
"249 -155 OFFCURVE",
"190 -126 OFFCURVE",
"190 -79 CURVE SMOOTH",
"190 -54 OFFCURVE",
"204 -32 OFFCURVE",
"241 -10 CURVE",
"262 -16 OFFCURVE",
"289 -19 OFFCURVE",
"328 -19 CURVE SMOOTH",
"412 -19 LINE SMOOTH",
"484 -19 OFFCURVE",
"522 -29 OFFCURVE",
"522 -70 CURVE SMOOTH",
"522 -116 OFFCURVE",
"452 -155 OFFCURVE"
);
}
);
width = 700;
}
);
unicode = 0067;
},
{
glyphname = gammalatin;
lastChange = "2015-12-16 11:53:30 +0000";
layers = (
{
anchors = (
{
name = aboveLC;
position = "{350, 587}";
},
{
name = belowLC;
position = "{350, -67}";
}
);
layerId = "8A30092D-5DE4-432F-B813-0E7E8F54CAFB";
paths = (
{
closed = 1;
nodes = (
"313 34 LINE",
"391 34 LINE",
"633 562 LINE",
"565 562 LINE",
"421 233 LINE",
"397 179 OFFCURVE",
"380 140 OFFCURVE",
"354 89 CURVE",
"350 89 LINE",
"323 140 OFFCURVE",
"307 179 OFFCURVE",
"283 233 CURVE",
"139 562 LINE",
"68 562 LINE"
);
},
{
closed = 1;
nodes = (
"352 -267 CURVE SMOOTH",
"428 -267 OFFCURVE",
"467 -215 OFFCURVE",
"467 -141 CURVE SMOOTH",
"467 -86 OFFCURVE",
"433 -30 OFFCURVE",
"387 64 CURVE",
"316 64 LINE",
"272 -30 OFFCURVE",
"237 -86 OFFCURVE",
"237 -141 CURVE SMOOTH",
"237 -215 OFFCURVE",
"276 -267 OFFCURVE"
);
},
{
closed = 1;
nodes = (
"352 -216 CURVE SMOOTH",
"314 -216 OFFCURVE",
"298 -184 OFFCURVE",
"298 -143 CURVE SMOOTH",
"298 -104 OFFCURVE",
"322 -48 OFFCURVE",
"350 7 CURVE",
"354 7 LINE",
"383 -48 OFFCURVE",
"406 -100 OFFCURVE",
"406 -143 CURVE SMOOTH",
"406 -184 OFFCURVE",
"390 -216 OFFCURVE"
);
}
);
width = 700;
},
{
anchors = (
{
name = aboveLC;
position = "{350, 599}";
},
{
name = belowLC;
position = "{350, -182}";
}
);
layerId = "70058D0C-C9A7-4421-A18D-CF261F8AA98E";
paths = (
{
closed = 1;
nodes = (
"266 62 LINE",
"439 62 LINE",
"657 575 LINE",
"512 575 LINE",
"407 299 LINE",
"389 248 OFFCURVE",
"374 213 OFFCURVE",
"356 160 CURVE",
"351 160 LINE",
"332 213 OFFCURVE",
"317 248 OFFCURVE",
"299 299 CURVE",
"194 575 LINE",
"43 575 LINE"
);
},
{
closed = 1;
nodes = (
"353 -250 CURVE SMOOTH",
"459 -250 OFFCURVE",
"525 -186 OFFCURVE",
"525 -90 CURVE SMOOTH",
"525 -23 OFFCURVE",
"484 27 OFFCURVE",
"425 134 CURVE",
"280 134 LINE",
"222 27 OFFCURVE",
"181 -23 OFFCURVE",
"181 -90 CURVE SMOOTH",
"181 -186 OFFCURVE",
"247 -250 OFFCURVE"
);
},
{
closed = 1;
nodes = (
"353 -155 CURVE SMOOTH",
"323 -155 OFFCURVE",
"304 -130 OFFCURVE",
"304 -93 CURVE SMOOTH",
"304 -61 OFFCURVE",
"322 -26 OFFCURVE",
"350 24 CURVE",
"355 24 LINE",
"385 -26 OFFCURVE",
"403 -60 OFFCURVE",
"403 -93 CURVE SMOOTH",
"403 -130 OFFCURVE",
"384 -155 OFFCURVE"
);
}
);
width = 700;
}
);
unicode = 0263;
},
{
glyphname = ghook;
lastChange = "2015-12-16 11:53:30 +0000";
layers = (
{
anchors = (
{
name = aboveLC;
position = "{352, 587}";
},
{
name = belowLC;
position = "{340, -261}";
}
);
layerId = "8A30092D-5DE4-432F-B813-0E7E8F54CAFB";
paths = (
{
closed = 1;
nodes = (
"331 -262 CURVE SMOOTH",
"485 -262 OFFCURVE",
"580 -177 OFFCURVE",
"580 -42 CURVE SMOOTH",
"580 551 LINE SMOOTH",
"580 619 OFFCURVE",
"598 667 OFFCURVE",
"652 667 CURVE SMOOTH",
"668 667 OFFCURVE",
"682 663 OFFCURVE",
"693 658 CURVE",
"707 712 LINE",
"691 719 OFFCURVE",
"671 723 OFFCURVE",
"647 723 CURVE SMOOTH",
"561 723 OFFCURVE",
"514 665 OFFCURVE",
"514 560 CURVE",
"517 499 LINE",
"514 499 LINE",
"464 546 OFFCURVE",
"406 576 OFFCURVE",
"337 576 CURVE SMOOTH",
"200 576 OFFCURVE",
"76 465 OFFCURVE",
"76 288 CURVE SMOOTH",
"76 106 OFFCURVE",
"175 2 OFFCURVE",
"321 2 CURVE SMOOTH",
"397 2 OFFCURVE",
"467 43 OFFCURVE",
"514 93 CURVE",
"517 93 LINE",
"513 -36 LINE SMOOTH",
"512 -141 OFFCURVE",
"448 -206 OFFCURVE",
"331 -206 CURVE SMOOTH",
"270 -206 OFFCURVE",
"204 -190 OFFCURVE",
"146 -151 CURVE",
"118 -200 LINE",
"178 -240 OFFCURVE",
"253 -262 OFFCURVE"
);
},
{
closed = 1;
nodes = (
"333 59 CURVE SMOOTH",
"216 59 OFFCURVE",
"145 150 OFFCURVE",
"145 289 CURVE SMOOTH",
"145 420 OFFCURVE",
"233 519 OFFCURVE",
"344 519 CURVE SMOOTH",
"399 519 OFFCURVE",
"455 498 OFFCURVE",
"513 442 CURVE",
"513 156 LINE",
"455 93 OFFCURVE",
"395 59 OFFCURVE"
);
}
);
width = 700;
},
{
anchors = (
{
name = aboveLC;
position = "{358, 599}";
},
{
name = belowLC;
position = "{346, -244}";
}
);
layerId = "70058D0C-C9A7-4421-A18D-CF261F8AA98E";
paths = (
{
closed = 1;
nodes = (
"317 -234 CURVE SMOOTH",
"498 -234 OFFCURVE",
"604 -151 OFFCURVE",
"604 -4 CURVE SMOOTH",
"604 545 LINE SMOOTH",
"604 602 OFFCURVE",
"621 636 OFFCURVE",
"667 636 CURVE SMOOTH",
"677 636 OFFCURVE",
"687 634 OFFCURVE",
"695 630 CURVE",
"722 741 LINE",
"703 748 OFFCURVE",
"680 753 OFFCURVE",
"646 753 CURVE SMOOTH",
"510 753 OFFCURVE",
"458 665 OFFCURVE",
"458 569 CURVE",
"460 524 LINE",
"456 524 LINE",
"417 563 OFFCURVE",
"372 589 OFFCURVE",
"311 589 CURVE SMOOTH",
"185 589 OFFCURVE",
"61 474 OFFCURVE",
"61 297 CURVE SMOOTH",
"61 127 OFFCURVE",
"157 12 OFFCURVE",
"302 12 CURVE SMOOTH",
"360 12 OFFCURVE",
"417 39 OFFCURVE",
"456 79 CURVE",
"460 79 LINE",
"454 -6 LINE SMOOTH",
"452 -71 OFFCURVE",
"410 -117 OFFCURVE",
"317 -117 CURVE SMOOTH",
"267 -117 OFFCURVE",
"205 -103 OFFCURVE",
"150 -71 CURVE",
"99 -171 LINE",
"165 -213 OFFCURVE",
"250 -234 OFFCURVE"
);
},
{
closed = 1;
nodes = (
"339 133 CURVE SMOOTH",
"261 133 OFFCURVE",
"212 195 OFFCURVE",
"212 299 CURVE SMOOTH",
"212 404 OFFCURVE",
"271 467 OFFCURVE",
"340 467 CURVE SMOOTH",
"377 467 OFFCURVE",
"417 454 OFFCURVE",
"454 420 CURVE",
"454 198 LINE",
"418 152 OFFCURVE",
"381 133 OFFCURVE"
);
}
);
width = 700;
}
);
unicode = 0260;
},
{
glyphname = glottalstop;
lastChange = "2015-12-16 11:53:30 +0000";
layers = (
{
anchors = (
{
name = aboveUC;
position = "{350, 861}";
},
{
name = belowLC;
position = "{326, -23}";
}
);
layerId = "8A30092D-5DE4-432F-B813-0E7E8F54CAFB";
paths = (
{
closed = 1;
nodes = (
"294 0 LINE",
"361 0 LINE",
"361 328 LINE",
"491 409 OFFCURVE",
"587 482 OFFCURVE",
"587 621 CURVE SMOOTH",
"587 771 OFFCURVE",
"476 850 OFFCURVE",
"334 850 CURVE SMOOTH",
"215 850 OFFCURVE",
"141 792 OFFCURVE",
"93 738 CURVE",
"130 693 LINE",
"173 744 OFFCURVE",
"234 793 OFFCURVE",
"332 793 CURVE SMOOTH",
"451 793 OFFCURVE",
"518 724 OFFCURVE",
"518 621 CURVE SMOOTH",
"518 510 OFFCURVE",
"446 446 OFFCURVE",
"294 362 CURVE"
);
}
);
width = 700;
},
{
anchors = (
{
name = aboveUC;
position = "{350, 855}";
},
{
name = belowLC;
position = "{325, -23}";
}
);
layerId = "70058D0C-C9A7-4421-A18D-CF261F8AA98E";
paths = (
{
closed = 1;
nodes = (
"251 0 LINE",
"400 0 LINE",
"400 307 LINE",
"525 394 OFFCURVE",
"609 463 OFFCURVE",
"609 593 CURVE SMOOTH",
"609 754 OFFCURVE",
"479 835 OFFCURVE",
"324 835 CURVE SMOOTH",
"204 835 OFFCURVE",
"120 783 OFFCURVE",
"66 723 CURVE",
"141 628 LINE",
"179 674 OFFCURVE",
"237 714 OFFCURVE",
"309 714 CURVE SMOOTH",
"402 714 OFFCURVE",
"459 667 OFFCURVE",
"459 588 CURVE SMOOTH",
"459 504 OFFCURVE",
"405 456 OFFCURVE",
"251 364 CURVE"
);
}
);
width = 700;
}
);
unicode = 0294;
},
{
glyphname = glottalstopreversed;
lastChange = "2015-12-16 11:53:30 +0000";
layers = (
{
anchors = (
{
name = aboveUC;
position = "{359, 861}";
},
{
name = belowLC;
position = "{373, -23}";
}
);
layerId = "8A30092D-5DE4-432F-B813-0E7E8F54CAFB";
paths = (
{
closed = 1;
nodes = (
"338 0 LINE",
"405 0 LINE",
"405 362 LINE",
"253 446 OFFCURVE",
"181 510 OFFCURVE",
"181 621 CURVE SMOOTH",
"181 724 OFFCURVE",
"249 793 OFFCURVE",
"368 793 CURVE SMOOTH",
"465 793 OFFCURVE",
"526 744 OFFCURVE",
"569 693 CURVE",
"607 738 LINE",
"558 792 OFFCURVE",
"484 850 OFFCURVE",
"365 850 CURVE SMOOTH",
"224 850 OFFCURVE",
"112 771 OFFCURVE",
"112 621 CURVE SMOOTH",
"112 482 OFFCURVE",
"208 409 OFFCURVE",
"338 328 CURVE"
);
}
);
width = 700;
},
{
anchors = (
{
name = aboveUC;
position = "{353, 855}";
},
{
name = belowLC;
position = "{373, -23}";
}
);
layerId = "70058D0C-C9A7-4421-A18D-CF261F8AA98E";
paths = (
{
closed = 1;
nodes = (
"297 0 LINE",
"445 0 LINE",
"445 364 LINE",
"292 456 OFFCURVE",
"237 504 OFFCURVE",
"237 588 CURVE SMOOTH",
"237 667 OFFCURVE",
"295 714 OFFCURVE",
"388 714 CURVE SMOOTH",
"460 714 OFFCURVE",
"517 674 OFFCURVE",
"556 628 CURVE",
"631 723 LINE",
"576 783 OFFCURVE",
"492 835 OFFCURVE",
"373 835 CURVE SMOOTH",
"218 835 OFFCURVE",
"87 754 OFFCURVE",
"87 593 CURVE SMOOTH",
"87 463 OFFCURVE",
"171 394 OFFCURVE",
"297 307 CURVE"
);
}
);
width = 700;
}
);
unicode = 0295;
},
{
glyphname = glottalstopstroke;
lastChange = "2015-12-16 11:53:30 +0000";
layers = (
{
anchors = (
{
name = aboveUC;
position = "{350, 861}";
},
{
name = belowLC;
position = "{326, -23}";
}
);
layerId = "8A30092D-5DE4-432F-B813-0E7E8F54CAFB";
paths = (
{
closed = 1;
nodes = (
"294 0 LINE",
"361 0 LINE",
"361 321 LINE",
"594 321 LINE",
"594 366 LINE",
"408 366 LINE",
"502 428 OFFCURVE",
"587 500 OFFCURVE",
"587 621 CURVE SMOOTH",
"587 771 OFFCURVE",
"478 850 OFFCURVE",
"337 850 CURVE SMOOTH",
"216 850 OFFCURVE",
"142 792 OFFCURVE",
"93 738 CURVE",
"130 693 LINE",
"174 743 OFFCURVE",
"236 793 OFFCURVE",
"334 793 CURVE SMOOTH",
"453 793 OFFCURVE",
"518 724 OFFCURVE",
"518 621 CURVE SMOOTH",
"518 518 OFFCURVE",
"437 439 OFFCURVE",
"308 366 CURVE",
"184 366 LINE",
"96 361 LINE",
"96 321 LINE",
"294 321 LINE"
);
}
);
width = 700;
},
{
anchors = (
{
name = aboveUC;
position = "{350, 855}";
},
{
name = belowLC;
position = "{325, -23}";
}
);
layerId = "70058D0C-C9A7-4421-A18D-CF261F8AA98E";
paths = (
{
closed = 1;
nodes = (
"251 0 LINE",
"400 0 LINE",
"400 292 LINE",
"622 292 LINE",
"622 366 LINE",
"461 366 LINE",
"540 424 OFFCURVE",
"609 499 OFFCURVE",
"609 593 CURVE SMOOTH",
"609 754 OFFCURVE",
"483 835 OFFCURVE",
"332 835 CURVE SMOOTH",
"208 835 OFFCURVE",
"122 783 OFFCURVE",
"66 723 CURVE",
"141 628 LINE",
"183 674 OFFCURVE",
"242 714 OFFCURVE",
"316 714 CURVE SMOOTH",
"405 714 OFFCURVE",
"459 667 OFFCURVE",
"459 588 CURVE SMOOTH",
"459 514 OFFCURVE",
"396 440 OFFCURVE",
"271 366 CURVE",
"158 366 LINE",
"70 360 LINE",
"70 292 LINE",
"251 292 LINE"
);
}
);
width = 700;
}
);
unicode = 02A1;
},
{
glyphname = glottalstopstrokereversed;
lastChange = "2015-12-16 11:53:30 +0000";
layers = (
{
anchors = (
{
name = aboveUC;
position = "{359, 861}";
},
{
name = belowLC;
position = "{373, -23}";
}
);
layerId = "8A30092D-5DE4-432F-B813-0E7E8F54CAFB";
paths = (
{
closed = 1;
nodes = (
"341 0 LINE",
"407 0 LINE",
"407 321 LINE",
"606 321 LINE",
"606 366 LINE",
"393 366 LINE",
"264 439 OFFCURVE",
"183 518 OFFCURVE",
"183 621 CURVE SMOOTH",
"183 724 OFFCURVE",
"248 793 OFFCURVE",
"367 793 CURVE SMOOTH",
"465 793 OFFCURVE",
"527 743 OFFCURVE",
"571 693 CURVE",
"608 738 LINE",
"559 792 OFFCURVE",
"485 850 OFFCURVE",
"365 850 CURVE SMOOTH",
"223 850 OFFCURVE",
"114 771 OFFCURVE",
"114 621 CURVE SMOOTH",
"114 500 OFFCURVE",
"199 428 OFFCURVE",
"293 366 CURVE",
"196 366 LINE",
"107 361 LINE",
"107 321 LINE",
"341 321 LINE"
);
}
);
width = 700;
},
{
anchors = (
{
name = aboveUC;
position = "{353, 855}";
},
{
name = belowLC;
position = "{373, -23}";
}
);
layerId = "70058D0C-C9A7-4421-A18D-CF261F8AA98E";
paths = (
{
closed = 1;
nodes = (
"298 0 LINE",
"447 0 LINE",
"447 292 LINE",
"628 292 LINE",
"628 366 LINE",
"427 366 LINE",
"301 440 OFFCURVE",
"239 514 OFFCURVE",
"239 588 CURVE SMOOTH",
"239 667 OFFCURVE",
"292 714 OFFCURVE",
"381 714 CURVE SMOOTH",
"456 714 OFFCURVE",
"515 674 OFFCURVE",
"557 628 CURVE",
"632 723 LINE",
"575 783 OFFCURVE",
"490 835 OFFCURVE",
"366 835 CURVE SMOOTH",
"215 835 OFFCURVE",
"89 754 OFFCURVE",
"89 593 CURVE SMOOTH",
"89 499 OFFCURVE",
"158 424 OFFCURVE",
"237 366 CURVE",
"165 366 LINE",
"76 360 LINE",
"76 292 LINE",
"298 292 LINE"
);
}
);
width = 700;
}
);
unicode = 02A2;
},
{
glyphname = gsmall;
lastChange = "2015-12-16 11:53:30 +0000";
layers = (
{
anchors = (
{
name = aboveLC;
position = "{387, 587}";
},
{
name = belowLC;
position = "{383, -23}";
}
);
layerId = "8A30092D-5DE4-432F-B813-0E7E8F54CAFB";
paths = (
{
closed = 1;
nodes = (
"395 -14 CURVE SMOOTH",
"490 -14 OFFCURVE",
"564 21 OFFCURVE",
"612 67 CURVE",
"612 290 LINE",
"375 290 LINE",
"375 238 LINE",
"551 238 LINE",
"551 95 LINE",
"515 63 OFFCURVE",
"461 42 OFFCURVE",
"400 42 CURVE SMOOTH",
"267 42 OFFCURVE",
"167 133 OFFCURVE",
"167 283 CURVE SMOOTH",
"167 431 OFFCURVE",
"275 521 OFFCURVE",
"404 521 CURVE SMOOTH",
"482 521 OFFCURVE",
"532 486 OFFCURVE",
"572 448 CURVE",
"608 492 LINE",
"564 535 OFFCURVE",
"500 576 OFFCURVE",
"402 576 CURVE SMOOTH",
"235 576 OFFCURVE",
"98 464 OFFCURVE",
"98 283 CURVE SMOOTH",
"98 94 OFFCURVE",
"229 -14 OFFCURVE"
);
}
);
width = 700;
},
{
anchors = (
{
name = aboveLC;
position = "{393, 599}";
},
{
name = belowLC;
position = "{377, -23}";
}
);
layerId = "70058D0C-C9A7-4421-A18D-CF261F8AA98E";
paths = (
{
closed = 1;
nodes = (
"393 -14 CURVE SMOOTH",
"483 -14 OFFCURVE",
"568 19 OFFCURVE",
"618 65 CURVE",
"618 334 LINE",
"368 334 LINE",
"368 234 LINE",
"489 234 LINE",
"489 127 LINE",
"465 110 OFFCURVE",
"435 101 OFFCURVE",
"399 101 CURVE SMOOTH",
"300 101 OFFCURVE",
"230 169 OFFCURVE",
"230 285 CURVE SMOOTH",
"230 412 OFFCURVE",
"314 474 OFFCURVE",
"407 474 CURVE SMOOTH",
"473 474 OFFCURVE",
"506 451 OFFCURVE",
"548 420 CURVE",
"617 511 LINE",
"565 555 OFFCURVE",
"503 589 OFFCURVE",
"398 589 CURVE SMOOTH",
"232 589 OFFCURVE",
"79 478 OFFCURVE",
"79 285 CURVE SMOOTH",
"79 84 OFFCURVE",
"224 -14 OFFCURVE"
);
}
);
width = 700;
}
);
unicode = 0262;
},
{
glyphname = h;
lastChange = "2015-12-16 11:53:30 +0000";
layers = (
{
anchors = (
{
name = aboveUC;
position = "{147, 861}";
},
{
name = baseLC;
position = "{151, 0}";
},
{
name = belowLC;
position = "{370, -23}";
}
);
layerId = "8A30092D-5DE4-432F-B813-0E7E8F54CAFB";
paths = (
{
closed = 1;
nodes = (
"118 0 LINE",
"185 0 LINE",
"185 399 LINE",
"261 478 OFFCURVE",
"313 517 OFFCURVE",
"388 517 CURVE SMOOTH",
"493 517 OFFCURVE",
"536 460 OFFCURVE",
"536 341 CURVE SMOOTH",
"536 0 LINE",
"603 0 LINE",
"603 349 LINE SMOOTH",
"603 501 OFFCURVE",
"538 576 OFFCURVE",
"404 576 CURVE SMOOTH",
"315 576 OFFCURVE",
"247 526 OFFCURVE",
"183 456 CURVE",
"181 456 LINE",
"185 598 LINE",
"185 836 LINE",
"118 836 LINE"
);
}
);
width = 700;
},
{
anchors = (
{
name = aboveUC;
position = "{164, 855}";
},
{
name = baseLC;
position = "{166, 0}";
},
{
name = belowLC;
position = "{361, -23}";
}
);
layerId = "70058D0C-C9A7-4421-A18D-CF261F8AA98E";
paths = (
{
closed = 1;
nodes = (
"91 0 LINE",
"240 0 LINE",
"240 389 LINE",
"287 436 OFFCURVE",
"323 462 OFFCURVE",
"375 462 CURVE SMOOTH",
"447 462 OFFCURVE",
"474 423 OFFCURVE",
"474 336 CURVE SMOOTH",
"474 0 LINE",
"623 0 LINE",
"623 355 LINE SMOOTH",
"623 503 OFFCURVE",
"564 589 OFFCURVE",
"433 589 CURVE SMOOTH",
"346 589 OFFCURVE",
"282 545 OFFCURVE",
"235 495 CURVE",
"232 495 LINE",
"240 613 LINE",
"240 821 LINE",
"91 821 LINE"
);
}
);
width = 700;
}
);
unicode = 0068;
},
{
glyphname = hbar;
lastChange = "2015-12-16 11:53:30 +0000";
layers = (
{
layerId = "8A30092D-5DE4-432F-B813-0E7E8F54CAFB";
paths = (
{
closed = 1;
nodes = (
"118 0 LINE",
"185 0 LINE",
"185 376 LINE",
"261 455 OFFCURVE",
"313 493 OFFCURVE",
"388 493 CURVE SMOOTH",
"493 493 OFFCURVE",
"536 436 OFFCURVE",
"536 317 CURVE SMOOTH",
"536 0 LINE",
"603 0 LINE",
"603 326 LINE SMOOTH",
"603 478 OFFCURVE",
"538 553 OFFCURVE",
"404 553 CURVE SMOOTH",
"315 553 OFFCURVE",
"247 502 OFFCURVE",
"183 432 CURVE",
"181 432 LINE",
"185 575 LINE",
"185 836 LINE",
"118 836 LINE"
);
},
{
closed = 1;
nodes = (
"30 673 LINE",
"445 673 LINE",
"445 718 LINE",
"121 718 LINE",
"30 713 LINE"
);
}
);
width = 700;
},
{
layerId = "70058D0C-C9A7-4421-A18D-CF261F8AA98E";
paths = (
{
closed = 1;
nodes = (
"91 0 LINE",
"240 0 LINE",
"240 366 LINE",
"287 413 OFFCURVE",
"323 438 OFFCURVE",
"375 438 CURVE SMOOTH",
"447 438 OFFCURVE",
"474 399 OFFCURVE",
"474 313 CURVE SMOOTH",
"474 0 LINE",
"623 0 LINE",
"623 332 LINE SMOOTH",
"623 479 OFFCURVE",
"564 566 OFFCURVE",
"433 566 CURVE SMOOTH",
"346 566 OFFCURVE",
"282 522 OFFCURVE",
"235 472 CURVE",
"232 472 LINE",
"240 590 LINE",
"240 821 LINE",
"91 821 LINE"
);
},
{
closed = 1;
nodes = (
"11 653 LINE",
"462 653 LINE",
"462 728 LINE",
"101 728 LINE",
"11 722 LINE"
);
}
);
width = 700;
}
);
unicode = 0127;
},
{
glyphname = henghook;
lastChange = "2015-12-16 11:53:30 +0000";
layers = (
{
anchors = (
{
name = aboveUC;
position = "{310, 861}";
},
{
name = belowLC;
position = "{437, -261}";
}
);
layerId = "8A30092D-5DE4-432F-B813-0E7E8F54CAFB";
paths = (
{
closed = 1;
nodes = (
"458 -212 CURVE SMOOTH",
"560 -212 OFFCURVE",
"603 -148 OFFCURVE",
"603 -30 CURVE",
"603 345 LINE SMOOTH",
"603 496 OFFCURVE",
"538 572 OFFCURVE",
"404 572 CURVE SMOOTH",
"315 572 OFFCURVE",
"247 521 OFFCURVE",
"183 452 CURVE",
"179 452 LINE",
"185 641 LINE",
"187 733 OFFCURVE",
"225 793 OFFCURVE",
"315 793 CURVE SMOOTH",
"339 793 OFFCURVE",
"366 787 OFFCURVE",
"393 776 CURVE",
"411 828 LINE",
"382 841 OFFCURVE",
"345 850 OFFCURVE",
"311 850 CURVE SMOOTH",
"186 850 OFFCURVE",
"118 770 OFFCURVE",
"118 642 CURVE",
"118 0 LINE",
"185 0 LINE",
"185 395 LINE",
"261 473 OFFCURVE",
"313 513 OFFCURVE",
"388 513 CURVE SMOOTH",
"493 513 OFFCURVE",
"536 456 OFFCURVE",
"536 337 CURVE SMOOTH",
"536 -28 LINE",
"536 -104 OFFCURVE",
"522 -155 OFFCURVE",
"453 -155 CURVE SMOOTH",
"428 -155 OFFCURVE",
"403 -148 OFFCURVE",
"387 -142 CURVE",
"372 -196 LINE",
"392 -204 OFFCURVE",
"426 -212 OFFCURVE"
);
}
);
width = 700;
},
{
anchors = (
{
name = aboveUC;
position = "{327, 855}";
},
{
name = belowLC;
position = "{390, -244}";
}
);
layerId = "70058D0C-C9A7-4421-A18D-CF261F8AA98E";
paths = (
{
closed = 1;
nodes = (
"428 -216 CURVE SMOOTH",
"575 -216 OFFCURVE",
"623 -119 OFFCURVE",
"623 7 CURVE",
"623 339 LINE SMOOTH",
"623 486 OFFCURVE",
"564 573 OFFCURVE",
"433 573 CURVE SMOOTH",
"346 573 OFFCURVE",
"282 529 OFFCURVE",
"235 480 CURVE",
"231 480 LINE",
"240 605 LINE",
"245 681 OFFCURVE",
"278 717 OFFCURVE",
"350 717 CURVE SMOOTH",
"373 717 OFFCURVE",
"400 709 OFFCURVE",
"426 700 CURVE",
"455 811 LINE",
"426 822 OFFCURVE",
"381 835 OFFCURVE",
"330 835 CURVE SMOOTH",
"160 835 OFFCURVE",
"91 729 OFFCURVE",
"91 596 CURVE",
"91 0 LINE",
"240 0 LINE",
"240 373 LINE",
"287 420 OFFCURVE",
"323 445 OFFCURVE",
"375 445 CURVE SMOOTH",
"447 445 OFFCURVE",
"474 406 OFFCURVE",
"474 320 CURVE SMOOTH",
"474 3 LINE",
"474 -65 OFFCURVE",
"459 -98 OFFCURVE",
"406 -98 CURVE SMOOTH",
"388 -98 OFFCURVE",
"371 -95 OFFCURVE",
"355 -89 CURVE",
"328 -200 LINE",
"351 -209 OFFCURVE",
"383 -216 OFFCURVE"
);
}
);
width = 700;
}
);
unicode = 0267;
},
{
glyphname = hhook;
lastChange = "2015-12-16 11:53:30 +0000";
layers = (
{
anchors = (
{
name = aboveUC;
position = "{310, 861}";
},
{
name = belowLC;
position = "{370, -23}";
}
);
layerId = "8A30092D-5DE4-432F-B813-0E7E8F54CAFB";
paths = (
{
closed = 1;
nodes = (
"118 0 LINE",
"185 0 LINE",
"185 395 LINE",
"261 473 OFFCURVE",
"313 513 OFFCURVE",
"388 513 CURVE SMOOTH",
"493 513 OFFCURVE",
"536 456 OFFCURVE",
"536 337 CURVE SMOOTH",
"536 0 LINE",
"603 0 LINE",
"603 345 LINE SMOOTH",
"603 496 OFFCURVE",
"538 572 OFFCURVE",
"404 572 CURVE SMOOTH",
"315 572 OFFCURVE",
"247 521 OFFCURVE",
"183 452 CURVE",
"179 452 LINE",
"185 641 LINE",
"187 733 OFFCURVE",
"225 793 OFFCURVE",
"315 793 CURVE SMOOTH",
"339 793 OFFCURVE",
"367 789 OFFCURVE",
"393 776 CURVE",
"411 828 LINE",
"382 841 OFFCURVE",
"345 850 OFFCURVE",
"311 850 CURVE SMOOTH",
"186 850 OFFCURVE",
"118 770 OFFCURVE",
"118 642 CURVE"
);
}
);
width = 700;
},
{
anchors = (
{
name = aboveUC;
position = "{327, 855}";
},
{
name = belowLC;
position = "{363, -23}";
}
);
layerId = "70058D0C-C9A7-4421-A18D-CF261F8AA98E";
paths = (
{
closed = 1;
nodes = (
"91 0 LINE",
"240 0 LINE",
"240 373 LINE",
"287 420 OFFCURVE",
"323 445 OFFCURVE",
"375 445 CURVE SMOOTH",
"447 445 OFFCURVE",
"474 406 OFFCURVE",
"474 320 CURVE SMOOTH",
"474 0 LINE",
"623 0 LINE",
"623 339 LINE SMOOTH",
"623 486 OFFCURVE",
"564 573 OFFCURVE",
"433 573 CURVE SMOOTH",
"346 573 OFFCURVE",
"282 529 OFFCURVE",
"235 480 CURVE",
"231 480 LINE",
"240 605 LINE",
"245 681 OFFCURVE",
"278 717 OFFCURVE",
"350 717 CURVE SMOOTH",
"373 717 OFFCURVE",
"401 710 OFFCURVE",
"426 700 CURVE",
"455 811 LINE",
"426 822 OFFCURVE",
"381 835 OFFCURVE",
"330 835 CURVE SMOOTH",
"160 835 OFFCURVE",
"91 729 OFFCURVE",
"91 596 CURVE"
);
}
);
width = 700;
}
);
unicode = 0266;
},
{
glyphname = hturned;
lastChange = "2015-12-16 11:53:30 +0000";
layers = (
{
anchors = (
{
name = aboveLC;
position = "{339, 587}";
},
{
name = belowLC;
position = "{383, -67}";
}
);
layerId = "8A30092D-5DE4-432F-B813-0E7E8F54CAFB";
paths = (
{
closed = 1;
nodes = (
"515 -249 LINE",
"581 -249 LINE",
"581 562 LINE",
"515 562 LINE",
"515 163 LINE",
"439 84 OFFCURVE",
"387 45 OFFCURVE",
"313 45 CURVE SMOOTH",
"207 45 OFFCURVE",
"164 102 OFFCURVE",
"164 222 CURVE SMOOTH",
"164 562 LINE",
"97 562 LINE",
"97 213 LINE SMOOTH",
"97 61 OFFCURVE",
"161 -14 OFFCURVE",
"296 -14 CURVE SMOOTH",
"386 -14 OFFCURVE",
"452 37 OFFCURVE",
"519 107 CURVE",
"515 -36 LINE"
);
}
);
width = 700;
},
{
anchors = (
{
name = aboveLC;
position = "{341, 599}";
},
{
name = belowLC;
position = "{467, -182}";
}
);
layerId = "70058D0C-C9A7-4421-A18D-CF261F8AA98E";
paths = (
{
closed = 1;
nodes = (
"459 -222 LINE",
"608 -222 LINE",
"608 575 LINE",
"459 575 LINE",
"459 186 LINE",
"411 139 OFFCURVE",
"375 113 OFFCURVE",
"324 113 CURVE SMOOTH",
"252 113 OFFCURVE",
"225 153 OFFCURVE",
"225 239 CURVE SMOOTH",
"225 575 LINE",
"76 575 LINE",
"76 220 LINE SMOOTH",
"76 72 OFFCURVE",
"135 -14 OFFCURVE",
"266 -14 CURVE SMOOTH",
"353 -14 OFFCURVE",
"417 30 OFFCURVE",
"467 80 CURVE",
"459 -38 LINE"
);
}
);
width = 700;
}
);
unicode = 0265;
},
{
glyphname = dotlessi;
lastChange = "2015-12-16 11:53:30 +0000";
layers = (
{
anchors = (
{
name = aboveLC;
position = "{407, 587}";
},
{
name = baseLC;
position = "{413, 0}";
},
{
name = belowLC;
position = "{407, -23}";
},
{
name = ogonekLC;
position = "{418, 0}";
}
);
layerId = "8A30092D-5DE4-432F-B813-0E7E8F54CAFB";
paths = (
{
closed = 1;
nodes = (
"385 0 LINE",
"451 0 LINE",
"451 562 LINE",
"111 562 LINE",
"111 506 LINE",
"385 506 LINE"
);
}
);
width = 700;
},
{
anchors = (
{
name = aboveLC;
position = "{403, 599}";
},
{
name = baseLC;
position = "{413, 0}";
},
{
name = belowLC;
position = "{403, -23}";
},
{
name = ogonekLC;
position = "{412, 0}";
}
);
layerId = "70058D0C-C9A7-4421-A18D-CF261F8AA98E";
paths = (
{
closed = 1;
nodes = (
"338 0 LINE",
"487 0 LINE",
"487 575 LINE",
"96 575 LINE",
"96 457 LINE",
"338 457 LINE"
);
}
);
width = 700;
}
);
unicode = 0131;
},
{
glyphname = ij;
lastChange = "2015-12-16 11:53:30 +0000";
layers = (
{
layerId = "8A30092D-5DE4-432F-B813-0E7E8F54CAFB";
paths = (
{
closed = 1;
nodes = (
"146 0 LINE",
"213 0 LINE",
"213 562 LINE",
"146 562 LINE"
);
},
{
closed = 1;
nodes = (
"181 691 CURVE SMOOTH",
"214 691 OFFCURVE",
"240 714 OFFCURVE",
"240 750 CURVE SMOOTH",
"240 786 OFFCURVE",
"214 809 OFFCURVE",
"181 809 CURVE SMOOTH",
"147 809 OFFCURVE",
"121 786 OFFCURVE",
"121 750 CURVE SMOOTH",
"121 714 OFFCURVE",
"147 691 OFFCURVE"
);
},
{
closed = 1;
nodes = (
"438 -263 CURVE SMOOTH",
"534 -263 OFFCURVE",
"575 -202 OFFCURVE",
"575 -90 CURVE SMOOTH",
"575 562 LINE",
"508 562 LINE",
"508 -88 LINE SMOOTH",
"508 -159 OFFCURVE",
"495 -206 OFFCURVE",
"434 -206 CURVE SMOOTH",
"412 -206 OFFCURVE",
"391 -200 OFFCURVE",
"377 -196 CURVE",
"363 -248 LINE",
"381 -256 OFFCURVE",
"409 -263 OFFCURVE"
);
},
{
closed = 1;
nodes = (
"542 691 CURVE SMOOTH",
"575 691 OFFCURVE",
"601 714 OFFCURVE",
"601 750 CURVE SMOOTH",
"601 786 OFFCURVE",
"575 809 OFFCURVE",
"542 809 CURVE SMOOTH",
"509 809 OFFCURVE",
"483 786 OFFCURVE",
"483 750 CURVE SMOOTH",
"483 714 OFFCURVE",
"509 691 OFFCURVE"
);
}
);
width = 700;
},
{
layerId = "70058D0C-C9A7-4421-A18D-CF261F8AA98E";
paths = (
{
closed = 1;
nodes = (
"102 0 LINE",
"251 0 LINE",
"251 575 LINE",
"102 575 LINE"
);
},
{
closed = 1;
nodes = (
"177 669 CURVE SMOOTH",
"230 669 OFFCURVE",
"269 704 OFFCURVE",
"269 754 CURVE SMOOTH",
"269 803 OFFCURVE",
"230 838 OFFCURVE",
"177 838 CURVE SMOOTH",
"124 838 OFFCURVE",
"85 803 OFFCURVE",
"85 754 CURVE SMOOTH",
"85 704 OFFCURVE",
"124 669 OFFCURVE"
);
},
{
closed = 1;
nodes = (
"421 -236 CURVE SMOOTH",
"566 -236 OFFCURVE",
"613 -139 OFFCURVE",
"613 -16 CURVE SMOOTH",
"613 575 LINE",
"464 575 LINE",
"464 -20 LINE SMOOTH",
"464 -86 OFFCURVE",
"449 -118 OFFCURVE",
"400 -118 CURVE SMOOTH",
"383 -118 OFFCURVE",
"367 -114 OFFCURVE",
"352 -110 CURVE",
"325 -220 LINE",
"347 -229 OFFCURVE",
"377 -236 OFFCURVE"
);
},
{
closed = 1;
nodes = (
"539 669 CURVE SMOOTH",
"592 669 OFFCURVE",
"630 704 OFFCURVE",
"630 754 CURVE SMOOTH",
"630 803 OFFCURVE",
"592 838 OFFCURVE",
"539 838 CURVE SMOOTH",
"486 838 OFFCURVE",
"447 803 OFFCURVE",
"447 754 CURVE SMOOTH",
"447 704 OFFCURVE",
"486 669 OFFCURVE"
);
}
);
width = 700;
}
);
unicode = 0133;
},
{
glyphname = ismall;
lastChange = "2015-12-16 11:53:30 +0000";
layers = (
{
anchors = (
{
name = aboveLC;
position = "{350, 587}";
},
{
name = belowLC;
position = "{350, -23}";
}
);
layerId = "8A30092D-5DE4-432F-B813-0E7E8F54CAFB";
paths = (
{
closed = 1;
nodes = (
"104 0 LINE",
"596 0 LINE",
"596 57 LINE",
"383 57 LINE",
"383 506 LINE",
"596 506 LINE",
"596 562 LINE",
"104 562 LINE",
"104 506 LINE",
"316 506 LINE",
"316 57 LINE",
"104 57 LINE"
);
}
);
width = 700;
},
{
anchors = (
{
name = aboveLC;
position = "{350, 599}";
},
{
name = belowLC;
position = "{350, -23}";
}
);
layerId = "70058D0C-C9A7-4421-A18D-CF261F8AA98E";
paths = (
{
closed = 1;
nodes = (
"95 0 LINE",
"606 0 LINE",
"606 118 LINE",
"424 118 LINE",
"424 457 LINE",
"606 457 LINE",
"606 575 LINE",
"95 575 LINE",
"95 457 LINE",
"276 457 LINE",
"276 118 LINE",
"95 118 LINE"
);
}
);
width = 700;
}
);
unicode = 026A;
},
{
glyphname = dotlessj;
lastChange = "2015-12-16 11:53:30 +0000";
layers = (
{
anchors = (
{
name = aboveLC;
position = "{407, 587}";
},
{
name = belowLC;
position = "{272, -261}";
}
);
layerId = "8A30092D-5DE4-432F-B813-0E7E8F54CAFB";
paths = (
{
closed = 1;
nodes = (
"226 -263 CURVE SMOOTH",
"398 -263 OFFCURVE",
"451 -171 OFFCURVE",
"451 -33 CURVE SMOOTH",
"451 562 LINE",
"111 562 LINE",
"111 506 LINE",
"384 506 LINE",
"384 -40 LINE SMOOTH",
"384 -141 OFFCURVE",
"352 -206 OFFCURVE",
"228 -206 CURVE SMOOTH",
"182 -206 OFFCURVE",
"132 -192 OFFCURVE",
"94 -173 CURVE",
"70 -225 LINE",
"113 -247 OFFCURVE",
"171 -263 OFFCURVE"
);
}
);
width = 700;
},
{
anchors = (
{
name = aboveLC;
position = "{403, 599}";
},
{
name = belowLC;
position = "{284, -244}";
}
);
layerId = "70058D0C-C9A7-4421-A18D-CF261F8AA98E";
paths = (
{
closed = 1;
nodes = (
"227 -236 CURVE SMOOTH",
"429 -236 OFFCURVE",
"487 -121 OFFCURVE",
"487 20 CURVE SMOOTH",
"487 575 LINE",
"96 575 LINE",
"96 457 LINE",
"338 457 LINE",
"338 13 LINE SMOOTH",
"338 -75 OFFCURVE",
"311 -118 OFFCURVE",
"219 -118 CURVE SMOOTH",
"183 -118 OFFCURVE",
"143 -110 OFFCURVE",
"98 -89 CURVE",
"54 -197 LINE",
"102 -220 OFFCURVE",
"160 -236 OFFCURVE"
);
}
);
width = 700;
}
);
unicode = 0237;
},
{
glyphname = k;
lastChange = "2015-12-16 11:53:30 +0000";
layers = (
{
anchors = (
{
name = aboveUC;
position = "{213, 861}";
},
{
name = belowLC;
position = "{396, -23}";
}
);
layerId = "8A30092D-5DE4-432F-B813-0E7E8F54CAFB";
paths = (
{
closed = 1;
nodes = (
"137 0 LINE",
"204 0 LINE",
"204 157 LINE",
"629 562 LINE",
"549 562 LINE",
"208 238 LINE",
"204 238 LINE",
"204 836 LINE",
"137 836 LINE"
);
},
{
closed = 1;
nodes = (
"588 0 LINE",
"664 0 LINE",
"387 361 LINE",
"345 316 LINE"
);
}
);
width = 700;
},
{
anchors = (
{
name = aboveUC;
position = "{197, 855}";
},
{
name = belowLC;
position = "{382, -23}";
}
);
layerId = "70058D0C-C9A7-4421-A18D-CF261F8AA98E";
paths = (
{
closed = 1;
nodes = (
"99 0 LINE",
"248 0 LINE",
"248 148 LINE",
"657 575 LINE",
"492 575 LINE",
"252 322 LINE",
"248 322 LINE",
"248 821 LINE",
"99 821 LINE"
);
},
{
closed = 1;
nodes = (
"516 0 LINE",
"679 0 LINE",
"418 367 LINE",
"332 274 LINE"
);
}
);
width = 700;
}
);
unicode = 006B;
},
{
glyphname = kgreenlandic;
lastChange = "2015-12-16 11:53:30 +0000";
layers = (
{
layerId = "8A30092D-5DE4-432F-B813-0E7E8F54CAFB";
paths = (
{
closed = 1;
nodes = (
"137 0 LINE",
"204 0 LINE",
"204 155 LINE",
"356 300 LINE",
"588 0 LINE",
"664 0 LINE",
"400 342 LINE",
"629 562 LINE",
"549 562 LINE",
"206 239 LINE",
"204 237 LINE",
"204 562 LINE",
"137 562 LINE"
);
}
);
width = 700;
},
{
layerId = "70058D0C-C9A7-4421-A18D-CF261F8AA98E";
paths = (
{
closed = 1;
nodes = (
"99 0 LINE",
"248 0 LINE",
"248 146 LINE",
"349 243 LINE",
"516 0 LINE",
"679 0 LINE",
"436 341 LINE",
"657 575 LINE",
"492 575 LINE",
"252 326 LINE",
"248 325 LINE",
"248 575 LINE",
"99 575 LINE"
);
}
);
width = 700;
}
);
unicode = 0138;
},
{
glyphname = kturned;
lastChange = "2015-12-16 11:53:30 +0000";
layers = (
{
anchors = (
{
name = aboveLC;
position = "{325, 587}";
},
{
name = belowLC;
position = "{525, -261}";
}
);
layerId = "8A30092D-5DE4-432F-B813-0E7E8F54CAFB";
paths = (
{
closed = 1;
nodes = (
"496 -249 LINE",
"563 -249 LINE",
"563 562 LINE",
"496 562 LINE",
"496 405 LINE",
"38 0 LINE",
"122 0 LINE",
"491 324 LINE",
"496 324 LINE"
);
},
{
closed = 1;
nodes = (
"316 201 LINE",
"357 246 LINE",
"144 562 LINE",
"73 562 LINE"
);
}
);
width = 700;
},
{
anchors = (
{
name = aboveLC;
position = "{340, 599}";
},
{
name = belowLC;
position = "{525, -244}";
}
);
layerId = "70058D0C-C9A7-4421-A18D-CF261F8AA98E";
paths = (
{
closed = 1;
nodes = (
"452 -222 LINE",
"601 -222 LINE",
"601 575 LINE",
"452 575 LINE",
"452 427 LINE",
"22 0 LINE",
"196 0 LINE",
"447 253 LINE",
"452 253 LINE"
);
},
{
closed = 1;
nodes = (
"291 208 LINE",
"375 301 LINE",
"196 575 LINE",
"44 575 LINE"
);
}
);
width = 700;
}
);
unicode = 029E;
},
{
glyphname = l;
lastChange = "2015-12-16 11:53:30 +0000";
layers = (
{
anchors = (
{
name = aboveUC;
position = "{338, 861}";
},
{
name = baseLC;
position = "{444, 0}";
},
{
name = belowLC;
position = "{457, -23}";
},
{
name = center;
position = "{340, 457}";
}
);
layerId = "8A30092D-5DE4-432F-B813-0E7E8F54CAFB";
paths = (
{
closed = 1;
nodes = (
"480 -14 CURVE SMOOTH",
"538 -14 OFFCURVE",
"574 -2 OFFCURVE",
"624 20 CURVE",
"604 71 LINE",
"564 52 OFFCURVE",
"527 44 OFFCURVE",
"492 44 CURVE SMOOTH",
"416 44 OFFCURVE",
"373 83 OFFCURVE",
"373 169 CURVE SMOOTH",
"373 836 LINE",
"103 836 LINE",
"103 779 LINE",
"306 779 LINE",
"306 176 LINE SMOOTH",
"306 46 OFFCURVE",
"369 -14 OFFCURVE"
);
}
);
width = 700;
},
{
anchors = (
{
name = aboveUC;
position = "{324, 855}";
},
{
name = baseLC;
position = "{386, 0}";
},
{
name = belowLC;
position = "{434, -23}";
},
{
name = center;
position = "{327, 434}";
}
);
layerId = "70058D0C-C9A7-4421-A18D-CF261F8AA98E";
paths = (
{
closed = 1;
nodes = (
"465.006 -14 CURVE SMOOTH",
"534 -14 OFFCURVE",
"574 -2 OFFCURVE",
"632 18 CURVE",
"597 128 LINE",
"561 113 OFFCURVE",
"531 107 OFFCURVE",
"503 107 CURVE SMOOTH",
"448 107 OFFCURVE",
"403 134 OFFCURVE",
"403 208 CURVE SMOOTH",
"403 821 LINE",
"78 821 LINE",
"78 703 LINE",
"254 703 LINE",
"254 215 LINE SMOOTH",
"254 73 OFFCURVE",
"327 -14 OFFCURVE"
);
}
);
width = 700;
}
);
unicode = 006C;
},
{
glyphname = lbelt;
lastChange = "2015-12-16 11:53:30 +0000";
layers = (
{
anchors = (
{
name = aboveUC;
position = "{338, 861}";
},
{
name = belowLC;
position = "{457, -23}";
}
);
components = (
{
name = l;
}
);
layerId = "8A30092D-5DE4-432F-B813-0E7E8F54CAFB";
paths = (
{
closed = 1;
nodes = (
"275 378 CURVE SMOOTH",
"541 378 LINE",
"541 423 LINE",
"265 423 LINE SMOOTH",
"189 423 OFFCURVE",
"168 446 OFFCURVE",
"168 474 CURVE SMOOTH",
"168 495 OFFCURVE",
"183 514 OFFCURVE",
"219 514 CURVE SMOOTH",
"276 514 OFFCURVE",
"306 473 OFFCURVE",
"306 435 CURVE",
"339 420 LINE",
"339 463 OFFCURVE",
"319 557 OFFCURVE",
"214 557 CURVE SMOOTH",
"156 557 OFFCURVE",
"118 522 OFFCURVE",
"118 475 CURVE SMOOTH",
"118 420 OFFCURVE",
"162 378 OFFCURVE"
);
}
);
width = 700;
},
{
anchors = (
{
name = aboveUC;
position = "{324, 855}";
},
{
name = belowLC;
position = "{434, -23}";
}
);
components = (
{
name = l;
}
);
layerId = "70058D0C-C9A7-4421-A18D-CF261F8AA98E";
paths = (
{
closed = 1;
nodes = (
"237 333 CURVE SMOOTH",
"559 333 LINE",
"559 408 LINE",
"222 408 LINE SMOOTH",
"167 408 OFFCURVE",
"148 427 OFFCURVE",
"148 450 CURVE SMOOTH",
"148 470 OFFCURVE",
"160 484 OFFCURVE",
"188 484 CURVE SMOOTH",
"236 484 OFFCURVE",
"255 446 OFFCURVE",
"255 418 CURVE",
"309 392 LINE",
"309 437 OFFCURVE",
"293 557 OFFCURVE",
"182 557 CURVE SMOOTH",
"113 557 OFFCURVE",
"66 512 OFFCURVE",
"66 450 CURVE SMOOTH",
"66 385 OFFCURVE",
"116 333 OFFCURVE"
);
}
);
width = 700;
}
);
unicode = 026C;
},
{
glyphname = lezh;
lastChange = "2015-12-16 11:53:30 +0000";
layers = (
{
anchors = (
{
name = aboveUC;
position = "{147, 861}";
},
{
name = belowLC;
position = "{412, -261}";
}
);
layerId = "8A30092D-5DE4-432F-B813-0E7E8F54CAFB";
paths = (
{
closed = 1;
nodes = (
"109 0 LINE",
"176 0 LINE",
"176 836 LINE",
"109 836 LINE"
);
},
{
closed = 1;
nodes = (
"412 -263 CURVE SMOOTH",
"534 -263 OFFCURVE",
"653 -172 OFFCURVE",
"653 -11 CURVE SMOOTH",
"653 132 OFFCURVE",
"544 245 OFFCURVE",
"351 199 CURVE",
"365 177 LINE",
"629 527 LINE",
"629 562 LINE",
"172 562 LINE",
"172 506 LINE",
"541 506 LINE",
"294 179 LINE",
"327 139 LINE",
"352 152 OFFCURVE",
"371 158 OFFCURVE",
"413 158 CURVE SMOOTH",
"520 158 OFFCURVE",
"585 94 OFFCURVE",
"585 -14 CURVE SMOOTH",
"585 -128 OFFCURVE",
"504 -205 OFFCURVE",
"408 -205 CURVE SMOOTH",
"313 -205 OFFCURVE",
"256 -169 OFFCURVE",
"214 -129 CURVE",
"178 -173 LINE",
"225 -217 OFFCURVE",
"294 -263 OFFCURVE"
);
}
);
width = 700;
},
{
anchors = (
{
name = aboveUC;
position = "{135, 855}";
},
{
name = belowLC;
position = "{424, -244}";
}
);
layerId = "70058D0C-C9A7-4421-A18D-CF261F8AA98E";
paths = (
{
closed = 1;
nodes = (
"60 0 LINE",
"209 0 LINE",
"209 821 LINE",
"60 821 LINE"
);
},
{
closed = 1;
nodes = (
"427 -236 CURVE SMOOTH",
"566 -236 OFFCURVE",
"689 -141 OFFCURVE",
"689 27 CURVE SMOOTH",
"689 154 OFFCURVE",
"605 258 OFFCURVE",
"438 249 CURVE",
"452 220 LINE",
"662 496 LINE",
"662 575 LINE",
"205 575 LINE",
"205 457 LINE",
"482 457 LINE",
"290 204 LINE",
"341 131 LINE",
"366 142 OFFCURVE",
"380 146 OFFCURVE",
"414 146 CURVE SMOOTH",
"490 146 OFFCURVE",
"539 101 OFFCURVE",
"539 24 CURVE SMOOTH",
"539 -62 OFFCURVE",
"484 -115 OFFCURVE",
"409 -115 CURVE SMOOTH",
"342 -115 OFFCURVE",
"293 -85 OFFCURVE",
"255 -50 CURVE",
"186 -143 LINE",
"239 -193 OFFCURVE",
"313 -236 OFFCURVE"
);
}
);
width = 700;
}
);
unicode = 026E;
userData = {
com.typemytype.robofont.guides = (
{
angle = 90;
isGlobal = 0;
magnetic = 5;
x = 530;
y = 63;
}
);
};
},
{
glyphname = lretroflex;
lastChange = "2015-12-16 11:53:30 +0000";
layers = (
{
anchors = (
{
name = aboveUC;
position = "{338, 861}";
},
{
name = belowLC;
position = "{457, -261}";
}
);
layerId = "8A30092D-5DE4-432F-B813-0E7E8F54CAFB";
paths = (
{
closed = 1;
nodes = (
"478 -212 CURVE SMOOTH",
"536 -212 OFFCURVE",
"575 -195 OFFCURVE",
"623 -178 CURVE",
"603 -126 LINE",
"560 -146 OFFCURVE",
"526 -154 OFFCURVE",
"490 -154 CURVE SMOOTH",
"415 -154 OFFCURVE",
"372 -115 OFFCURVE",
"372 -29 CURVE SMOOTH",
"372 836 LINE",
"103 836 LINE",
"103 779 LINE",
"306 779 LINE",
"306 -22 LINE SMOOTH",
"306 -152 OFFCURVE",
"368 -212 OFFCURVE"
);
}
);
width = 700;
},
{
anchors = (
{
name = aboveUC;
position = "{324, 855}";
},
{
name = belowLC;
position = "{434, -244}";
}
);
layerId = "70058D0C-C9A7-4421-A18D-CF261F8AA98E";
paths = (
{
closed = 1;
nodes = (
"465 -216 CURVE SMOOTH",
"534 -216 OFFCURVE",
"575 -203 OFFCURVE",
"632 -185 CURVE",
"598 -74 LINE",
"560 -89 OFFCURVE",
"531 -95 OFFCURVE",
"503 -95 CURVE SMOOTH",
"449 -95 OFFCURVE",
"404 -69 OFFCURVE",
"404 6 CURVE SMOOTH",
"404 821 LINE",
"79 821 LINE",
"79 703 LINE",
"255 703 LINE",
"255 13 LINE SMOOTH",
"255 -130 OFFCURVE",
"327 -216 OFFCURVE"
);
}
);
width = 700;
}
);
unicode = 026D;
},
{
glyphname = lslash;
lastChange = "2015-12-16 11:53:30 +0000";
layers = (
{
anchors = (
{
name = aboveUC;
position = "{338, 861}";
},
{
name = belowLC;
position = "{457, -23}";
}
);
components = (
{
name = l;
}
);
layerId = "8A30092D-5DE4-432F-B813-0E7E8F54CAFB";
paths = (
{
closed = 1;
nodes = (
"171 333 LINE",
"311 416 LINE",
"364 441 LINE",
"581 566 LINE",
"557 612 LINE",
"364 501 LINE",
"311 477 LINE",
"147 380 LINE"
);
}
);
width = 700;
},
{
anchors = (
{
name = aboveUC;
position = "{324, 855}";
},
{
name = belowLC;
position = "{434, -23}";
}
);
components = (
{
name = l;
}
);
layerId = "70058D0C-C9A7-4421-A18D-CF261F8AA98E";
paths = (
{
closed = 1;
nodes = (
"147 280 LINE",
"261 346 LINE",
"376 399 LINE",
"604 526 LINE",
"554 620 LINE",
"376 520 LINE",
"261 468 LINE",
"96 374 LINE"
);
}
);
width = 700;
}
);
unicode = 0142;
},
{
glyphname = lsmall;
lastChange = "2015-12-16 11:53:30 +0000";
layers = (
{
anchors = (
{
name = aboveLC;
position = "{223, 587}";
},
{
name = belowLC;
position = "{404, -23}";
}
);
layerId = "8A30092D-5DE4-432F-B813-0E7E8F54CAFB";
paths = (
{
closed = 1;
nodes = (
"185 0 LINE",
"619 0 LINE",
"619 57 LINE",
"252 57 LINE",
"252 562 LINE",
"185 562 LINE"
);
}
);
width = 700;
},
{
anchors = (
{
name = aboveLC;
position = "{225, 599}";
},
{
name = belowLC;
position = "{392, -23}";
}
);
layerId = "70058D0C-C9A7-4421-A18D-CF261F8AA98E";
paths = (
{
closed = 1;
nodes = (
"150 0 LINE",
"624 0 LINE",
"624 118 LINE",
"299 118 LINE",
"299 575 LINE",
"150 575 LINE"
);
}
);
width = 700;
}
);
unicode = 029F;
userData = {
com.typemytype.robofont.guides = (
{
angle = 90;
isGlobal = 0;
magnetic = 5;
x = 528;
y = 334;
}
);
};
},
{
glyphname = m;
lastChange = "2015-12-16 11:53:30 +0000";
layers = (
{
anchors = (
{
name = aboveLC;
position = "{364, 587}";
},
{
name = baseLC;
position = "{601, 0}";
},
{
name = belowLC;
position = "{362, -23}";
}
);
layerId = "8A30092D-5DE4-432F-B813-0E7E8F54CAFB";
paths = (
{
closed = 1;
nodes = (
"81 0 LINE",
"146 0 LINE",
"146 418 LINE",
"180 484 OFFCURVE",
"210 517 OFFCURVE",
"257 517 CURVE SMOOTH",
"307 517 OFFCURVE",
"332 477 OFFCURVE",
"332 399 CURVE SMOOTH",
"332 0 LINE",
"390 0 LINE",
"390 418 LINE",
"424 484 OFFCURVE",
"455 517 OFFCURVE",
"502 517 CURVE SMOOTH",
"552 517 OFFCURVE",
"576 477 OFFCURVE",
"576 399 CURVE SMOOTH",
"576 0 LINE",
"641 0 LINE",
"641 406 LINE SMOOTH",
"641 519 OFFCURVE",
"597 576 OFFCURVE",
"519 576 CURVE SMOOTH",
"456 576 OFFCURVE",
"420 539 OFFCURVE",
"382 477 CURVE",
"368 544 OFFCURVE",
"332 576 OFFCURVE",
"272 576 CURVE SMOOTH",
"209 576 OFFCURVE",
"174 540 OFFCURVE",
"144 486 CURVE",
"141 486 LINE",
"135 562 LINE",
"81 562 LINE"
);
}
);
width = 700;
},
{
anchors = (
{
name = aboveLC;
position = "{373, 602}";
},
{
name = baseLC;
position = "{594, 0}";
},
{
name = belowLC;
position = "{355, -23}";
}
);
layerId = "70058D0C-C9A7-4421-A18D-CF261F8AA98E";
paths = (
{
closed = 1;
nodes = (
"50 0 LINE",
"191 0 LINE",
"191 396 LINE",
"211 440 OFFCURVE",
"229 462 OFFCURVE",
"256 462 CURVE SMOOTH",
"284 462 OFFCURVE",
"299 440 OFFCURVE",
"299 395 CURVE SMOOTH",
"299 0 LINE",
"414 0 LINE",
"414 396 LINE",
"434 440 OFFCURVE",
"453 462 OFFCURVE",
"481 462 CURVE SMOOTH",
"510 462 OFFCURVE",
"522 440 OFFCURVE",
"522 395 CURVE SMOOTH",
"522 0 LINE",
"663 0 LINE",
"663 406 LINE SMOOTH",
"663 521 OFFCURVE",
"618 589 OFFCURVE",
"536 589 CURVE SMOOTH",
"470 589 OFFCURVE",
"430 548 OFFCURVE",
"406 494 CURVE",
"392 556 OFFCURVE",
"356 589 OFFCURVE",
"303 589 CURVE SMOOTH",
"237 589 OFFCURVE",
"201 550 OFFCURVE",
"178 503 CURVE",
"174 503 LINE",
"163 575 LINE",
"50 575 LINE"
);
}
);
width = 700;
}
);
unicode = 006D;
},
{
glyphname = mhook;
lastChange = "2015-12-16 11:53:30 +0000";
layers = (
{
anchors = (
{
name = aboveLC;
position = "{352, 587}";
},
{
name = belowLC;
position = "{352, -261}";
}
);
layerId = "8A30092D-5DE4-432F-B813-0E7E8F54CAFB";
paths = (
{
closed = 1;
nodes = (
"513 -212 CURVE SMOOTH",
"602 -212 OFFCURVE",
"641 -154 OFFCURVE",
"641 -46 CURVE",
"641 406 LINE SMOOTH",
"641 519 OFFCURVE",
"596 576 OFFCURVE",
"519 576 CURVE SMOOTH",
"456 576 OFFCURVE",
"420 539 OFFCURVE",
"382 477 CURVE",
"368 544 OFFCURVE",
"332 576 OFFCURVE",
"272 576 CURVE SMOOTH",
"209 576 OFFCURVE",
"175 540 OFFCURVE",
"144 486 CURVE",
"141 486 LINE",
"135 562 LINE",
"81 562 LINE",
"81 0 LINE",
"146 0 LINE",
"146 418 LINE",
"180 484 OFFCURVE",
"210 517 OFFCURVE",
"257 517 CURVE SMOOTH",
"307 517 OFFCURVE",
"332 477 OFFCURVE",
"332 399 CURVE SMOOTH",
"332 0 LINE",
"390 0 LINE",
"390 418 LINE",
"424 484 OFFCURVE",
"455 517 OFFCURVE",
"502 517 CURVE SMOOTH",
"552 517 OFFCURVE",
"576 477 OFFCURVE",
"576 399 CURVE SMOOTH",
"576 -41 LINE",
"576 -109 OFFCURVE",
"565 -155 OFFCURVE",
"508 -155 CURVE SMOOTH",
"488 -155 OFFCURVE",
"467 -149 OFFCURVE",
"454 -145 CURVE",
"440 -198 LINE",
"457 -205 OFFCURVE",
"485 -212 OFFCURVE"
);
}
);
width = 700;
},
{
anchors = (
{
name = aboveLC;
position = "{358, 599}";
},
{
name = belowLC;
position = "{358, -244}";
}
);
layerId = "70058D0C-C9A7-4421-A18D-CF261F8AA98E";
paths = (
{
closed = 1;
nodes = (
"499 -216 CURVE SMOOTH",
"622 -216 OFFCURVE",
"663 -132 OFFCURVE",
"663 -21 CURVE",
"663 406 LINE SMOOTH",
"663 521 OFFCURVE",
"616 589 OFFCURVE",
"536 589 CURVE SMOOTH",
"471 589 OFFCURVE",
"430 548 OFFCURVE",
"406 494 CURVE",
"392 556 OFFCURVE",
"356 589 OFFCURVE",
"303 589 CURVE SMOOTH",
"236 589 OFFCURVE",
"202 550 OFFCURVE",
"178 502 CURVE",
"174 502 LINE",
"163 575 LINE",
"50 575 LINE",
"50 0 LINE",
"191 0 LINE",
"191 396 LINE",
"211 440 OFFCURVE",
"229 462 OFFCURVE",
"256 462 CURVE SMOOTH",
"284 462 OFFCURVE",
"299 440 OFFCURVE",
"299 395 CURVE SMOOTH",
"299 0 LINE",
"414 0 LINE",
"414 396 LINE",
"434 440 OFFCURVE",
"453 462 OFFCURVE",
"481 462 CURVE SMOOTH",
"510 462 OFFCURVE",
"522 440 OFFCURVE",
"522 395 CURVE SMOOTH",
"522 -16 LINE",
"522 -70 OFFCURVE",
"513 -98 OFFCURVE",
"477 -98 CURVE SMOOTH",
"464 -98 OFFCURVE",
"451 -96 OFFCURVE",
"440 -92 CURVE",
"413 -202 LINE",
"434 -211 OFFCURVE",
"461 -216 OFFCURVE"
);
}
);
width = 700;
}
);
unicode = 0271;
},
{
glyphname = mlonglegturned;
lastChange = "2015-12-16 11:53:30 +0000";
layers = (
{
anchors = (
{
name = aboveLC;
position = "{350, 587}";
},
{
name = belowLC;
position = "{581, -265}";
}
);
layerId = "8A30092D-5DE4-432F-B813-0E7E8F54CAFB";
paths = (
{
closed = 1;
nodes = (
"553 -249 LINE",
"618 -249 LINE",
"618 562 LINE",
"553 562 LINE",
"553 144 LINE",
"520 78 OFFCURVE",
"489 45 OFFCURVE",
"442 45 CURVE SMOOTH",
"393 45 OFFCURVE",
"367 85 OFFCURVE",
"367 163 CURVE SMOOTH",
"367 562 LINE",
"309 562 LINE",
"309 144 LINE",
"276 78 OFFCURVE",
"245 45 OFFCURVE",
"198 45 CURVE SMOOTH",
"148 45 OFFCURVE",
"124 85 OFFCURVE",
"124 163 CURVE SMOOTH",
"124 562 LINE",
"59 562 LINE",
"59 157 LINE SMOOTH",
"59 44 OFFCURVE",
"103 -14 OFFCURVE",
"181 -14 CURVE SMOOTH",
"244 -14 OFFCURVE",
"279 23 OFFCURVE",
"317 85 CURVE",
"332 19 OFFCURVE",
"367 -14 OFFCURVE",
"428 -14 CURVE SMOOTH",
"487 -14 OFFCURVE",
"522 21 OFFCURVE",
"555 80 CURVE",
"560 80 LINE",
"553 -38 LINE"
);
}
);
width = 700;
},
{
anchors = (
{
name = aboveLC;
position = "{350, 599}";
},
{
name = belowLC;
position = "{575, -258}";
}
);
layerId = "70058D0C-C9A7-4421-A18D-CF261F8AA98E";
paths = (
{
closed = 1;
nodes = (
"508 -222 LINE",
"649 -222 LINE",
"649 575 LINE",
"508 575 LINE",
"508 179 LINE",
"489 135 OFFCURVE",
"471 113 OFFCURVE",
"444 113 CURVE SMOOTH",
"416 113 OFFCURVE",
"401 135 OFFCURVE",
"401 180 CURVE SMOOTH",
"401 575 LINE",
"286 575 LINE",
"286 179 LINE",
"266 135 OFFCURVE",
"246 113 OFFCURVE",
"219 113 CURVE SMOOTH",
"191 113 OFFCURVE",
"178 135 OFFCURVE",
"178 180 CURVE SMOOTH",
"178 575 LINE",
"37 575 LINE",
"37 169 LINE SMOOTH",
"37 54 OFFCURVE",
"84 -14 OFFCURVE",
"165 -14 CURVE SMOOTH",
"229 -14 OFFCURVE",
"269 27 OFFCURVE",
"294 81 CURVE",
"307 19 OFFCURVE",
"344 -14 OFFCURVE",
"397 -14 CURVE SMOOTH",
"457 -14 OFFCURVE",
"490 25 OFFCURVE",
"514 74 CURVE",
"519 74 LINE",
"508 -39 LINE"
);
}
);
width = 700;
}
);
unicode = 0270;
},
{
glyphname = n;
lastChange = "2015-12-16 11:53:30 +0000";
layers = (
{
anchors = (
{
name = aboveLC;
position = "{372, 587}";
},
{
name = baseLC;
position = "{563.994, 0}";
},
{
name = belowLC;
position = "{368, -23}";
}
);
layerId = "8A30092D-5DE4-432F-B813-0E7E8F54CAFB";
paths = (
{
closed = 1;
nodes = (
"118 0 LINE",
"185 0 LINE",
"185 399 LINE",
"261 478 OFFCURVE",
"313 517 OFFCURVE",
"388 517 CURVE SMOOTH",
"493 517 OFFCURVE",
"536 460 OFFCURVE",
"536 341 CURVE SMOOTH",
"536 0 LINE",
"603 0 LINE",
"603 349 LINE SMOOTH",
"603 501 OFFCURVE",
"538 576 OFFCURVE",
"404 576 CURVE SMOOTH",
"314 576 OFFCURVE",
"247 526 OFFCURVE",
"185 458 CURVE",
"180 458 LINE",
"174 562 LINE",
"118 562 LINE"
);
}
);
width = 700;
},
{
anchors = (
{
name = aboveLC;
position = "{368, 599}";
},
{
name = baseLC;
position = "{551, 0}";
},
{
name = belowLC;
position = "{359, -23}";
}
);
layerId = "70058D0C-C9A7-4421-A18D-CF261F8AA98E";
paths = (
{
closed = 1;
nodes = (
"91 0 LINE",
"240 0 LINE",
"240 389 LINE",
"287 436 OFFCURVE",
"323 462 OFFCURVE",
"375 462 CURVE SMOOTH",
"447 462 OFFCURVE",
"474 423 OFFCURVE",
"474 336 CURVE SMOOTH",
"474 0 LINE",
"623 0 LINE",
"623 355 LINE SMOOTH",
"623 503 OFFCURVE",
"564 589 OFFCURVE",
"432 589 CURVE SMOOTH",
"345 589 OFFCURVE",
"281 545 OFFCURVE",
"229 492 CURVE",
"224 492 LINE",
"213 575 LINE",
"91 575 LINE"
);
}
);
width = 700;
}
);
unicode = 006E;
},
{
glyphname = napostrophe;
lastChange = "2015-12-16 12:27:51 +0000";
layers = (
{
components = (
{
name = quoteright;
transform = "{1, 0, 0, 1, -256, 0}";
}
);
layerId = "8A30092D-5DE4-432F-B813-0E7E8F54CAFB";
paths = (
{
closed = 1;
nodes = (
"239 0 LINE",
"306 0 LINE",
"306 409 LINE",
"376 481 OFFCURVE",
"424 517 OFFCURVE",
"494 517 CURVE SMOOTH",
"588 517 OFFCURVE",
"628 463 OFFCURVE",
"628 350 CURVE SMOOTH",
"628 0 LINE",
"695 0 LINE",
"695 359 LINE SMOOTH",
"695 504 OFFCURVE",
"635 576 OFFCURVE",
"510 576 CURVE SMOOTH",
"425 576 OFFCURVE",
"364 529 OFFCURVE",
"306 468 CURVE",
"301 468 LINE",
"295 562 LINE",
"239 562 LINE"
);
}
);
width = 700;
},
{
components = (
{
name = quoteright;
transform = "{1, 0, 0, 1, -287, 0}";
}
);
layerId = "70058D0C-C9A7-4421-A18D-CF261F8AA98E";
paths = (
{
closed = 1;
nodes = (
"245 0 LINE",
"394 0 LINE",
"394 392 LINE",
"435 437 OFFCURVE",
"463 462 OFFCURVE",
"507 462 CURVE SMOOTH",
"563 462 OFFCURVE",
"585 424 OFFCURVE",
"585 340 CURVE SMOOTH",
"585 0 LINE",
"735 0 LINE",
"735 359 LINE SMOOTH",
"735 504 OFFCURVE",
"682 589 OFFCURVE",
"564 589 CURVE SMOOTH",
"485 589 OFFCURVE",
"431 546 OFFCURVE",
"383 496 CURVE",
"378 496 LINE",
"367 575 LINE",
"245 575 LINE"
);
}
);
width = 700;
}
);
unicode = 0149;
},
{
glyphname = eng;
lastChange = "2015-12-16 11:53:30 +0000";
layers = (
{
anchors = (
{
name = aboveLC;
position = "{372, 587}";
},
{
name = belowLC;
position = "{437, -261}";
}
);
layerId = "8A30092D-5DE4-432F-B813-0E7E8F54CAFB";
paths = (
{
closed = 1;
nodes = (
"560 -212 OFFCURVE",
"603 -148 OFFCURVE",
"603 -30 CURVE SMOOTH",
"603 -9 OFFCURVE",
"603 328 OFFCURVE",
"603 349 CURVE SMOOTH",
"603 501 OFFCURVE",
"538 576 OFFCURVE",
"404 576 CURVE SMOOTH",
"314 576 OFFCURVE",
"247 526 OFFCURVE",
"185 458 CURVE",
"180 458 LINE",
"174 562 LINE",
"118 562 LINE",
"118 0 LINE",
"185 0 LINE",
"185 399 LINE",
"261 478 OFFCURVE",
"313 517 OFFCURVE",
"388 517 CURVE SMOOTH",
"493 517 OFFCURVE",
"536 460 OFFCURVE",
"536 341 CURVE SMOOTH",
"536 321 OFFCURVE",
"536 -8 OFFCURVE",
"536 -28 CURVE SMOOTH",
"536 -104 OFFCURVE",
"522 -155 OFFCURVE",
"455 -155 CURVE SMOOTH",
"430 -155 OFFCURVE",
"406 -148 OFFCURVE",
"390 -142 CURVE",
"375 -196 LINE",
"395 -204 OFFCURVE",
"429 -212 OFFCURVE",
"460 -212 CURVE SMOOTH"
);
}
);
width = 700;
},
{
anchors = (
{
name = aboveLC;
position = "{368, 599}";
},
{
name = belowLC;
position = "{390, -244}";
}
);
layerId = "70058D0C-C9A7-4421-A18D-CF261F8AA98E";
paths = (
{
closed = 1;
nodes = (
"574 -216 OFFCURVE",
"623 -119 OFFCURVE",
"623 7 CURVE SMOOTH",
"623 83 OFFCURVE",
"623 279 OFFCURVE",
"623 355 CURVE SMOOTH",
"623 503 OFFCURVE",
"564 589 OFFCURVE",
"432 589 CURVE SMOOTH",
"345 589 OFFCURVE",
"281 545 OFFCURVE",
"229 492 CURVE",
"224 492 LINE",
"213 575 LINE",
"91 575 LINE",
"91 0 LINE",
"240 0 LINE",
"240 389 LINE",
"287 436 OFFCURVE",
"323 462 OFFCURVE",
"375 462 CURVE SMOOTH",
"447 462 OFFCURVE",
"474 423 OFFCURVE",
"474 336 CURVE SMOOTH",
"474 265 OFFCURVE",
"474 74 OFFCURVE",
"474 3 CURVE SMOOTH",
"474 -65 OFFCURVE",
"459 -98 OFFCURVE",
"414 -98 CURVE SMOOTH",
"397 -98 OFFCURVE",
"381 -95 OFFCURVE",
"366 -89 CURVE",
"339 -200 LINE",
"362 -209 OFFCURVE",
"393 -216 OFFCURVE",
"436 -216 CURVE SMOOTH"
);
}
);
width = 700;
}
);
unicode = 014B;
},
{
glyphname = nhookleft;
lastChange = "2015-12-16 11:53:30 +0000";
layers = (
{
anchors = (
{
name = aboveLC;
position = "{377, 587}";
},
{
name = belowLC;
position = "{162, -261}";
}
);
layerId = "8A30092D-5DE4-432F-B813-0E7E8F54CAFB";
paths = (
{
closed = 1;
nodes = (
"63 -212 CURVE SMOOTH",
"152 -212 OFFCURVE",
"187 -156 OFFCURVE",
"187 -47 CURVE SMOOTH",
"187 399 LINE",
"263 478 OFFCURVE",
"314 517 OFFCURVE",
"389 517 CURVE SMOOTH",
"492 517 OFFCURVE",
"536 462 OFFCURVE",
"536 341 CURVE SMOOTH",
"536 0 LINE",
"603 0 LINE",
"603 349 LINE SMOOTH",
"603 501 OFFCURVE",
"538 576 OFFCURVE",
"404 576 CURVE SMOOTH",
"315 576 OFFCURVE",
"250 526 OFFCURVE",
"187 458 CURVE",
"182 458 LINE",
"177 562 LINE",
"120 562 LINE",
"120 -45 LINE SMOOTH",
"120 -112 OFFCURVE",
"106 -155 OFFCURVE",
"59 -155 CURVE SMOOTH",
"41 -155 OFFCURVE",
"25 -149 OFFCURVE",
"13 -145 CURVE",
"-1 -197 LINE",
"13 -205 OFFCURVE",
"39 -212 OFFCURVE"
);
}
);
width = 700;
},
{
anchors = (
{
name = aboveLC;
position = "{389, 599}";
},
{
name = belowLC;
position = "{278, -244}";
}
);
layerId = "70058D0C-C9A7-4421-A18D-CF261F8AA98E";
paths = (
{
closed = 1;
nodes = (
"70 -216 CURVE SMOOTH",
"206 -216 OFFCURVE",
"250 -125 OFFCURVE",
"250 -6 CURVE SMOOTH",
"250 389 LINE",
"297 436 OFFCURVE",
"330 462 OFFCURVE",
"382 462 CURVE SMOOTH",
"446 462 OFFCURVE",
"474 429 OFFCURVE",
"474 336 CURVE SMOOTH",
"474 0 LINE",
"624 0 LINE",
"624 355 LINE SMOOTH",
"624 503 OFFCURVE",
"566 589 OFFCURVE",
"435 589 CURVE SMOOTH",
"352 589 OFFCURVE",
"291 545 OFFCURVE",
"239 492 CURVE",
"234 492 LINE",
"223 575 LINE",
"101 575 LINE",
"101 -10 LINE SMOOTH",
"101 -69 OFFCURVE",
"87 -98 OFFCURVE",
"48 -98 CURVE SMOOTH",
"35 -98 OFFCURVE",
"24 -95 OFFCURVE",
"12 -90 CURVE",
"-15 -201 LINE",
"5 -209 OFFCURVE",
"31 -216 OFFCURVE"
);
}
);
width = 700;
}
);
unicode = 0272;
},
{
glyphname = nretroflex;
lastChange = "2015-12-16 11:53:30 +0000";
layers = (
{
anchors = (
{
name = aboveLC;
position = "{375, 587}";
},
{
name = belowLC;
position = "{540, -261}";
}
);
layerId = "8A30092D-5DE4-432F-B813-0E7E8F54CAFB";
paths = (
{
closed = 1;
nodes = (
"657 -212 CURVE SMOOTH",
"682 -212 OFFCURVE",
"708 -205 OFFCURVE",
"721 -197 CURVE",
"707 -145 LINE",
"695 -149 OFFCURVE",
"679 -155 OFFCURVE",
"662 -155 CURVE SMOOTH",
"614 -155 OFFCURVE",
"601 -112 OFFCURVE",
"601 -45 CURVE",
"601 349 LINE SMOOTH",
"601 501 OFFCURVE",
"536 576 OFFCURVE",
"402 576 CURVE SMOOTH",
"313 576 OFFCURVE",
"247 526 OFFCURVE",
"185 458 CURVE",
"180 458 LINE",
"174 562 LINE",
"118 562 LINE",
"118 0 LINE",
"185 0 LINE",
"185 399 LINE",
"261 478 OFFCURVE",
"312 517 OFFCURVE",
"387 517 CURVE SMOOTH",
"490 517 OFFCURVE",
"534 462 OFFCURVE",
"534 341 CURVE SMOOTH",
"534 -47 LINE SMOOTH",
"534 -156 OFFCURVE",
"569 -212 OFFCURVE"
);
}
);
width = 700;
},
{
anchors = (
{
name = aboveLC;
position = "{381, 599}";
},
{
name = belowLC;
position = "{430, -244}";
}
);
layerId = "70058D0C-C9A7-4421-A18D-CF261F8AA98E";
paths = (
{
closed = 1;
nodes = (
"644 -216 CURVE SMOOTH",
"683 -216 OFFCURVE",
"709 -209 OFFCURVE",
"729 -201 CURVE",
"702 -90 LINE",
"690 -95 OFFCURVE",
"679 -98 OFFCURVE",
"666 -98 CURVE SMOOTH",
"626 -98 OFFCURVE",
"614 -69 OFFCURVE",
"614 -10 CURVE",
"614 355 LINE SMOOTH",
"614 503 OFFCURVE",
"556 589 OFFCURVE",
"425 589 CURVE SMOOTH",
"342 589 OFFCURVE",
"281 545 OFFCURVE",
"229 492 CURVE",
"224 492 LINE",
"213 575 LINE",
"91 575 LINE",
"91 0 LINE",
"240 0 LINE",
"240 389 LINE",
"287 436 OFFCURVE",
"320 462 OFFCURVE",
"372 462 CURVE SMOOTH",
"436 462 OFFCURVE",
"464 429 OFFCURVE",
"464 336 CURVE SMOOTH",
"464 -6 LINE SMOOTH",
"464 -125 OFFCURVE",
"508 -216 OFFCURVE"
);
}
);
width = 700;
}
);
unicode = 0273;
userData = {
com.typemytype.robofont.guides = (
);
};
},
{
glyphname = nsmall;
lastChange = "2015-12-16 11:53:30 +0000";
layers = (
{
anchors = (
{
name = aboveLC;
position = "{360, 587}";
},
{
name = belowLC;
position = "{351, -23}";
}
);
layerId = "8A30092D-5DE4-432F-B813-0E7E8F54CAFB";
paths = (
{
closed = 1;
nodes = (
"122 0 LINE",
"186 0 LINE",
"186 264 LINE SMOOTH",
"186 325 OFFCURVE",
"183 397 OFFCURVE",
"179 472 CURVE",
"184 472 LINE",
"209 434 OFFCURVE",
"242 386 OFFCURVE",
"267 350 CURVE SMOOTH",
"511 0 LINE",
"578 0 LINE",
"578 562 LINE",
"513 562 LINE",
"513 298 LINE SMOOTH",
"513 237 OFFCURVE",
"517 164 OFFCURVE",
"520 91 CURVE",
"516 91 LINE",
"488 128 OFFCURVE",
"457 177 OFFCURVE",
"432 212 CURVE SMOOTH",
"187 562 LINE",
"122 562 LINE"
);
}
);
width = 700;
},
{
anchors = (
{
name = aboveLC;
position = "{358, 599}";
},
{
name = belowLC;
position = "{355, -23}";
}
);
layerId = "70058D0C-C9A7-4421-A18D-CF261F8AA98E";
paths = (
{
closed = 1;
nodes = (
"94 0 LINE",
"234 0 LINE",
"234 183 LINE SMOOTH",
"234 241 OFFCURVE",
"226 316 OFFCURVE",
"220 388 CURVE",
"225 388 LINE",
"244 352 OFFCURVE",
"272 300 OFFCURVE",
"293 267 CURVE SMOOTH",
"466 0 LINE",
"605 0 LINE",
"605 575 LINE",
"465 575 LINE",
"465 392 LINE SMOOTH",
"465 333 OFFCURVE",
"472 258 OFFCURVE",
"478 187 CURVE",
"474 187 LINE",
"454 222 OFFCURVE",
"427 275 OFFCURVE",
"405 308 CURVE SMOOTH",
"232 575 LINE",
"94 575 LINE"
);
}
);
width = 700;
}
);
unicode = 0274;
},
{
glyphname = o;
lastChange = "2015-12-16 11:53:30 +0000";
layers = (
{
anchors = (
{
name = aboveLC;
position = "{350, 587}";
},
{
name = baseLC;
position = "{350, 0}";
},
{
name = belowLC;
position = "{350, -23}";
},
{
name = hornLC;
position = "{479, 562}";
},
{
name = ogonekLC;
position = "{350, 0}";
}
);
layerId = "8A30092D-5DE4-432F-B813-0E7E8F54CAFB";
paths = (
{
closed = 1;
nodes = (
"350 -14 CURVE SMOOTH",
"498 -14 OFFCURVE",
"625 94 OFFCURVE",
"625 281 CURVE SMOOTH",
"625 468 OFFCURVE",
"498 576 OFFCURVE",
"350 576.006 CURVE SMOOTH",
"203 576 OFFCURVE",
"76 468 OFFCURVE",
"76 281 CURVE SMOOTH",
"76 94 OFFCURVE",
"203 -14 OFFCURVE"
);
},
{
closed = 1;
nodes = (
"350 44 CURVE SMOOTH",
"230 44 OFFCURVE",
"145 139 OFFCURVE",
"145 281 CURVE SMOOTH",
"145 421 OFFCURVE",
"230 519 OFFCURVE",
"350 519 CURVE SMOOTH",
"470 519 OFFCURVE",
"555 421 OFFCURVE",
"555 281 CURVE SMOOTH",
"555 139 OFFCURVE",
"470 44 OFFCURVE"
);
}
);
width = 700;
},
{
anchors = (
{
name = aboveLC;
position = "{350, 599}";
},
{
name = baseLC;
position = "{350, 0}";
},
{
name = belowLC;
position = "{350, -23}";
},
{
name = hornLC;
position = "{481, 575}";
},
{
name = ogonekLC;
position = "{350, 0}";
}
);
layerId = "70058D0C-C9A7-4421-A18D-CF261F8AA98E";
paths = (
{
closed = 1;
nodes = (
"350 -14 CURVE SMOOTH",
"501 -14 OFFCURVE",
"641 96 OFFCURVE",
"641 287 CURVE SMOOTH",
"641 478 OFFCURVE",
"501 589 OFFCURVE",
"350 589 CURVE SMOOTH",
"198 589 OFFCURVE",
"59 478 OFFCURVE",
"59 287 CURVE SMOOTH",
"59 96 OFFCURVE",
"198 -14 OFFCURVE"
);
},
{
closed = 1;
nodes = (
"350 107 CURVE SMOOTH",
"262 107 OFFCURVE",
"212 178 OFFCURVE",
"212 287 CURVE SMOOTH",
"212 396 OFFCURVE",
"262 468 OFFCURVE",
"350 468 CURVE SMOOTH",
"437 468 OFFCURVE",
"487 396 OFFCURVE",
"487 287 CURVE SMOOTH",
"487 178 OFFCURVE",
"437 107 OFFCURVE"
);
}
);
width = 700;
}
);
unicode = 006F;
},
{
glyphname = obar;
lastChange = "2015-12-16 11:53:30 +0000";
layers = (
{
anchors = (
{
name = aboveLC;
position = "{350, 587}";
},
{
name = belowLC;
position = "{350, -23}";
}
);
layerId = "8A30092D-5DE4-432F-B813-0E7E8F54CAFB";
paths = (
{
closed = 1;
nodes = (
"350 -14 CURVE SMOOTH",
"499 -14 OFFCURVE",
"625 87 OFFCURVE",
"625 281 CURVE SMOOTH",
"625 475 OFFCURVE",
"499 576 OFFCURVE",
"350 576.006 CURVE SMOOTH",
"201 576 OFFCURVE",
"76 475 OFFCURVE",
"76 281 CURVE SMOOTH",
"76 87 OFFCURVE",
"201 -14 OFFCURVE"
);
},
{
closed = 1;
nodes = (
"350 41 CURVE SMOOTH",
"228 41 OFFCURVE",
"140 131 OFFCURVE",
"140 281 CURVE SMOOTH",
"140 430 OFFCURVE",
"228 522 OFFCURVE",
"350 522 CURVE SMOOTH",
"472 522 OFFCURVE",
"560 430 OFFCURVE",
"560 281 CURVE SMOOTH",
"560 131 OFFCURVE",
"472 41 OFFCURVE"
);
},
{
closed = 1;
nodes = (
"123 269 LINE",
"571 269 LINE",
"571 320 LINE",
"123 320 LINE"
);
}
);
width = 700;
},
{
anchors = (
{
name = aboveLC;
position = "{350, 599}";
},
{
name = belowLC;
position = "{350, -23}";
}
);
layerId = "70058D0C-C9A7-4421-A18D-CF261F8AA98E";
paths = (
{
closed = 1;
nodes = (
"350 -14 CURVE SMOOTH",
"504 -14 OFFCURVE",
"641 89 OFFCURVE",
"641 287 CURVE SMOOTH",
"641 485 OFFCURVE",
"504 589 OFFCURVE",
"350 589 CURVE SMOOTH",
"195 589 OFFCURVE",
"59 485 OFFCURVE",
"59 287 CURVE SMOOTH",
"59 89 OFFCURVE",
"195 -14 OFFCURVE"
);
},
{
closed = 1;
nodes = (
"350 99 CURVE SMOOTH",
"256 99 OFFCURVE",
"199 167 OFFCURVE",
"199 287 CURVE SMOOTH",
"199 408 OFFCURVE",
"256 477 OFFCURVE",
"350 477 CURVE SMOOTH",
"444 477 OFFCURVE",
"501 408 OFFCURVE",
"501 287 CURVE SMOOTH",
"501 167 OFFCURVE",
"444 99 OFFCURVE"
);
},
{
closed = 1;
nodes = (
"171 246 LINE",
"524 246 LINE",
"524 345 LINE",
"171 345 LINE"
);
}
);
width = 700;
}
);
unicode = 0275;
},
{
glyphname = oesmall;
lastChange = "2015-12-16 11:53:30 +0000";
layers = (
{
anchors = (
{
name = aboveLC;
position = "{410, 587}";
},
{
name = belowLC;
position = "{408, -23}";
}
);
layerId = "8A30092D-5DE4-432F-B813-0E7E8F54CAFB";
paths = (
{
closed = 1;
nodes = (
"276 -14 CURVE SMOOTH",
"311 -14 OFFCURVE",
"346 -12 OFFCURVE",
"387.006 0 CURVE",
"682 0 LINE",
"682 57 LINE",
"434 57 LINE",
"434 269 LINE",
"624 269 LINE",
"624 320 LINE",
"434 320 LINE",
"434 506 LINE",
"670 506 LINE",
"670 562 LINE",
"387.006 562.006 LINE",
"345 574 OFFCURVE",
"311 576 OFFCURVE",
"276 576 CURVE SMOOTH",
"146 576 OFFCURVE",
"44 472 OFFCURVE",
"44 282 CURVE SMOOTH",
"44 90 OFFCURVE",
"146 -14 OFFCURVE"
);
},
{
closed = 1;
nodes = (
"283 43 CURVE SMOOTH",
"187 43 OFFCURVE",
"115 123 OFFCURVE",
"115 282 CURVE SMOOTH",
"115 439 OFFCURVE",
"187 519 OFFCURVE",
"283 519 CURVE SMOOTH",
"310 519 OFFCURVE",
"343 511 OFFCURVE",
"370 503 CURVE",
"370 59 LINE",
"342 51 OFFCURVE",
"309 43 OFFCURVE"
);
}
);
width = 700;
},
{
anchors = (
{
name = aboveLC;
position = "{416, 599}";
},
{
name = belowLC;
position = "{408, -23}";
}
);
layerId = "70058D0C-C9A7-4421-A18D-CF261F8AA98E";
paths = (
{
closed = 1;
nodes = (
"280 -14 CURVE SMOOTH",
"321 -14 OFFCURVE",
"353 -11 OFFCURVE",
"400 0 CURVE",
"690 0 LINE",
"690 118 LINE",
"483 118 LINE",
"483 246 LINE",
"641 246 LINE",
"641 345 LINE",
"483 345 LINE",
"483 457 LINE",
"678 457 LINE",
"678 575 LINE",
"400 575 LINE",
"350 586 OFFCURVE",
"321 589 OFFCURVE",
"280 589 CURVE SMOOTH",
"150 589 OFFCURVE",
"27 487 OFFCURVE",
"27 287 CURVE SMOOTH",
"27 83 OFFCURVE",
"150 -14 OFFCURVE"
);
},
{
closed = 1;
nodes = (
"294 104 CURVE SMOOTH",
"233 104 OFFCURVE",
"181 152 OFFCURVE",
"181 287 CURVE SMOOTH",
"181 414 OFFCURVE",
"233 468 OFFCURVE",
"294 468 CURVE SMOOTH",
"313 468 OFFCURVE",
"333 464 OFFCURVE",
"349 459 CURVE",
"349 114 LINE",
"331 109 OFFCURVE",
"311 104 OFFCURVE"
);
}
);
width = 700;
}
);
unicode = 0276;
},
{
glyphname = ohorn;
lastChange = "2015-12-16 11:53:30 +0000";
layers = (
{
anchors = (
{
name = aboveLC;
position = "{350, 587}";
},
{
name = belowLC;
position = "{350, -23}";
}
);
components = (
{
name = o;
}
);
layerId = "8A30092D-5DE4-432F-B813-0E7E8F54CAFB";
paths = (
{
closed = 1;
nodes = (
"504 517 LINE",
"570 536 OFFCURVE",
"636 579 OFFCURVE",
"636 672 CURVE SMOOTH",
"636 702 OFFCURVE",
"627 733 OFFCURVE",
"612 759 CURVE",
"558 731 LINE",
"569 712 OFFCURVE",
"575 688 OFFCURVE",
"575 667 CURVE SMOOTH",
"575 598 OFFCURVE",
"534 562 OFFCURVE",
"457 550 CURVE"
);
}
);
width = 700;
},
{
anchors = (
{
name = aboveLC;
position = "{350, 599}";
},
{
name = belowLC;
position = "{350, -23}";
}
);
components = (
{
name = o;
}
);
layerId = "70058D0C-C9A7-4421-A18D-CF261F8AA98E";
paths = (
{
closed = 1;
nodes = (
"532 510 LINE",
"615 535 OFFCURVE",
"680 591 OFFCURVE",
"680 691 CURVE SMOOTH",
"680 733 OFFCURVE",
"665 775 OFFCURVE",
"647 803 CURVE",
"536 753 LINE",
"547 736 OFFCURVE",
"554 708 OFFCURVE",
"554 680 CURVE SMOOTH",
"554 607 OFFCURVE",
"516 575 OFFCURVE",
"458 562 CURVE"
);
}
);
width = 700;
}
);
unicode = 01A1;
},
{
glyphname = oogonek;
lastChange = "2015-12-16 11:53:30 +0000";
layers = (
{
anchors = (
{
name = aboveLC;
position = "{350, 587}";
}
);
layerId = "8A30092D-5DE4-432F-B813-0E7E8F54CAFB";
paths = (
{
closed = 1;
nodes = (
"380 -262 CURVE SMOOTH",
"426 -262 OFFCURVE",
"457 -244 OFFCURVE",
"481 -220 CURVE",
"457 -186 LINE",
"442 -201 OFFCURVE",
"421 -214 OFFCURVE",
"392 -214 CURVE SMOOTH",
"356 -214 OFFCURVE",
"321 -191 OFFCURVE",
"321 -145 CURVE SMOOTH",
"321 -93 OFFCURVE",
"361 -33 OFFCURVE",
"426 -5 CURVE SMOOTH",
"545 46 OFFCURVE",
"625 121 OFFCURVE",
"625 281 CURVE SMOOTH",
"625 468 OFFCURVE",
"498 576 OFFCURVE",
"350 576.006 CURVE SMOOTH",
"203 576 OFFCURVE",
"76 468 OFFCURVE",
"76 281 CURVE SMOOTH",
"76 103 OFFCURVE",
"189 -10 OFFCURVE",
"349 -13 CURVE",
"305 -48 OFFCURVE",
"267 -95 OFFCURVE",
"267 -157 CURVE SMOOTH",
"267 -228 OFFCURVE",
"316 -262 OFFCURVE"
);
},
{
closed = 1;
nodes = (
"350 43 CURVE SMOOTH",
"230 43 OFFCURVE",
"145 138 OFFCURVE",
"145 281 CURVE SMOOTH",
"145 421 OFFCURVE",
"230 519 OFFCURVE",
"350 519 CURVE SMOOTH",
"470 519 OFFCURVE",
"555 421 OFFCURVE",
"555 281 CURVE SMOOTH",
"555 138 OFFCURVE",
"470 43 OFFCURVE"
);
}
);
width = 700;
},
{
anchors = (
{
name = aboveLC;
position = "{350, 599}";
}
);
layerId = "70058D0C-C9A7-4421-A18D-CF261F8AA98E";
paths = (
{
closed = 1;
nodes = (
"374 -264 CURVE SMOOTH",
"423 -264 OFFCURVE",
"473 -248 OFFCURVE",
"502 -222 CURVE",
"468 -155 LINE",
"456 -165 OFFCURVE",
"435 -174 OFFCURVE",
"409 -174 CURVE SMOOTH",
"380 -174 OFFCURVE",
"348 -156 OFFCURVE",
"348 -117 CURVE SMOOTH",
"348 -77 OFFCURVE",
"378 -27 OFFCURVE",
"439 -1 CURVE SMOOTH",
"559 52 OFFCURVE",
"641 133 OFFCURVE",
"641 287 CURVE SMOOTH",
"641 478 OFFCURVE",
"502 589 OFFCURVE",
"350 589 CURVE SMOOTH",
"198 589 OFFCURVE",
"59 478 OFFCURVE",
"59 287 CURVE SMOOTH",
"59 112 OFFCURVE",
"176 2 OFFCURVE",
"321 -11 CURVE",
"286 -41 OFFCURVE",
"246 -88 OFFCURVE",
"246 -151 CURVE SMOOTH",
"246 -227 OFFCURVE",
"302 -264 OFFCURVE"
);
},
{
closed = 1;
nodes = (
"350 104 CURVE SMOOTH",
"262 104 OFFCURVE",
"212 175 OFFCURVE",
"212 287 CURVE SMOOTH",
"212 396 OFFCURVE",
"262 468 OFFCURVE",
"350 468 CURVE SMOOTH",
"437 468 OFFCURVE",
"487 396 OFFCURVE",
"487 287 CURVE SMOOTH",
"487 175 OFFCURVE",
"437 104 OFFCURVE"
);
}
);
width = 700;
}
);
unicode = 01EB;
},
{
glyphname = oopen;
lastChange = "2015-12-16 11:53:30 +0000";
layers = (
{
anchors = (
{
name = aboveLC;
position = "{338, 587}";
},
{
name = baseLC;
position = "{326, 0}";
},
{
name = belowLC;
position = "{326, -23}";
}
);
layerId = "8A30092D-5DE4-432F-B813-0E7E8F54CAFB";
paths = (
{
closed = 1;
nodes = (
"302 -14 CURVE SMOOTH",
"471 -14 OFFCURVE",
"602 94 OFFCURVE",
"602 281 CURVE SMOOTH",
"602 468 OFFCURVE",
"468 576 OFFCURVE",
"309 576 CURVE SMOOTH",
"205 576 OFFCURVE",
"135 536 OFFCURVE",
"88 492 CURVE",
"125 447 LINE",
"172 491 OFFCURVE",
"230 519 OFFCURVE",
"306 519 CURVE SMOOTH",
"439 519 OFFCURVE",
"531 421 OFFCURVE",
"531 281 CURVE SMOOTH",
"531 139 OFFCURVE",
"437 44 OFFCURVE",
"297 44 CURVE SMOOTH",
"221 44 OFFCURVE",
"157 77 OFFCURVE",
"108 121 CURVE",
"75 76 LINE",
"134 20 OFFCURVE",
"213 -14 OFFCURVE"
);
}
);
width = 700;
},
{
anchors = (
{
name = aboveLC;
position = "{338, 599}";
},
{
name = baseLC;
position = "{326, 0}";
},
{
name = belowLC;
position = "{326, -23}";
}
);
layerId = "70058D0C-C9A7-4421-A18D-CF261F8AA98E";
paths = (
{
closed = 1;
nodes = (
"297 -14 CURVE SMOOTH",
"475 -14 OFFCURVE",
"617 96 OFFCURVE",
"617 287 CURVE SMOOTH",
"617 478 OFFCURVE",
"471 589 OFFCURVE",
"304 589 CURVE SMOOTH",
"205 589 OFFCURVE",
"124 555 OFFCURVE",
"74 509 CURVE",
"144 416 LINE",
"192 452 OFFCURVE",
"239 468 OFFCURVE",
"293 468 CURVE SMOOTH",
"389 468 OFFCURVE",
"464 396 OFFCURVE",
"464 287 CURVE SMOOTH",
"464 178 OFFCURVE",
"389 107 OFFCURVE",
"279 107 CURVE SMOOTH",
"218 107 OFFCURVE",
"167 135 OFFCURVE",
"126 167 CURVE",
"63 72 LINE",
"128 14 OFFCURVE",
"213 -14 OFFCURVE"
);
}
);
width = 700;
}
);
unicode = 0254;
},
{
glyphname = oslash;
lastChange = "2015-12-16 11:53:30 +0000";
layers = (
{
anchors = (
{
name = aboveLC;
position = "{350, 587}";
},
{
name = baseLC;
position = "{350, 0}";
},
{
name = belowLC;
position = "{350, -23}";
}
);
layerId = "8A30092D-5DE4-432F-B813-0E7E8F54CAFB";
paths = (
{
closed = 1;
nodes = (
"350 -14 CURVE SMOOTH",
"498 -14 OFFCURVE",
"625 94 OFFCURVE",
"625 281 CURVE SMOOTH",
"625 468 OFFCURVE",
"498 576 OFFCURVE",
"350 576.006 CURVE SMOOTH",
"203 576 OFFCURVE",
"76 468 OFFCURVE",
"76 281 CURVE SMOOTH",
"76 94 OFFCURVE",
"203 -14 OFFCURVE"
);
},
{
closed = 1;
nodes = (
"350 42 CURVE SMOOTH",
"230 42 OFFCURVE",
"145 139 OFFCURVE",
"145 281 CURVE SMOOTH",
"145 421 OFFCURVE",
"230 521 OFFCURVE",
"350 521 CURVE SMOOTH",
"470 521 OFFCURVE",
"555 421 OFFCURVE",
"555 281 CURVE SMOOTH",
"555 139 OFFCURVE",
"470 42 OFFCURVE"
);
},
{
closed = 1;
nodes = (
"114 -27 LINE",
"621 560 LINE",
"586 588 LINE",
"80 1 LINE"
);
}
);
width = 700;
},
{
anchors = (
{
name = aboveLC;
position = "{350, 599}";
},
{
name = baseLC;
position = "{350, 0}";
},
{
name = belowLC;
position = "{350, -23}";
}
);
layerId = "70058D0C-C9A7-4421-A18D-CF261F8AA98E";
paths = (
{
closed = 1;
nodes = (
"350 -14 CURVE SMOOTH",
"501 -14 OFFCURVE",
"641 96 OFFCURVE",
"641 287 CURVE SMOOTH",
"641 478 OFFCURVE",
"501 589 OFFCURVE",
"350 589 CURVE SMOOTH",
"198 589 OFFCURVE",
"59 478 OFFCURVE",
"59 287 CURVE SMOOTH",
"59 96 OFFCURVE",
"198 -14 OFFCURVE"
);
},
{
closed = 1;
nodes = (
"350 102 CURVE SMOOTH",
"262 102 OFFCURVE",
"212 178 OFFCURVE",
"212 287 CURVE SMOOTH",
"212 396 OFFCURVE",
"262 473 OFFCURVE",
"350 473 CURVE SMOOTH",
"437 473 OFFCURVE",
"487 396 OFFCURVE",
"487 287 CURVE SMOOTH",
"487 178 OFFCURVE",
"437 102 OFFCURVE"
);
},
{
closed = 1;
nodes = (
"131 -29 LINE",
"627 560 LINE",
"568 605 LINE",
"74 16 LINE"
);
}
);
width = 700;
}
);
unicode = 00F8;
},
